<svg width="174" height="65" viewBox="0 0 174 65" fill="none" xmlns="http://www.w3.org/2000/svg">
<g clip-path="url(#clip0_7560_7972)">
<path d="M27.4392 40.2971C27.019 39.9488 26.735 39.5782 26.45 39.2086C26.3654 39.0983 26.3742 38.9677 26.3781 38.838C26.4471 36.5565 26.4782 34.273 26.5949 31.9935C26.7457 29.0376 28.0412 26.6399 30.4328 24.8906C32.2866 23.535 34.4166 22.9129 36.71 23.1538C40.2027 23.5196 42.7334 25.3105 44.1738 28.5267C44.6708 29.6365 44.8984 30.8247 44.8663 32.0457C44.806 34.3398 44.7117 36.6329 44.6728 38.927C44.664 39.464 44.3966 39.7988 44.061 40.1287C43.8996 40.2874 43.7303 40.5883 43.5407 40.5216C43.385 40.4664 43.4901 40.121 43.4969 39.9062C43.5737 37.3199 43.6827 34.7346 43.7264 32.1473C43.7644 29.8648 42.9085 27.9278 41.2473 26.3545C39.9965 25.1702 38.4967 24.5326 36.783 24.3207C32.5434 23.7963 28.5557 26.7522 27.8418 30.994C27.6668 32.0341 27.7095 33.0936 27.6784 34.1463C27.621 36.0514 27.5627 37.9566 27.5014 39.8617C27.4975 39.9875 27.4674 40.1123 27.4401 40.2981L27.4392 40.2971Z" fill="#EEF0F2"/>
<path d="M30.0175 36.662C29.967 38.3223 29.9213 39.9826 29.8629 41.643C29.8454 42.1326 29.7773 42.1567 29.3562 41.88C29.2978 41.8413 29.2424 41.7939 29.1792 41.7659C28.8387 41.613 28.7065 41.3633 28.723 40.986C28.7872 39.5259 28.8368 38.0649 28.8825 36.6039C28.9273 35.1787 28.9671 33.7535 28.9953 32.3282C29.0634 28.934 31.4696 26.1117 34.8378 25.6346C38.6027 25.1015 41.823 27.5204 42.3628 31.2213C42.462 31.8996 42.4163 32.5779 42.4008 33.2542C42.3395 35.9208 42.2452 38.5864 42.1839 41.2521C42.1751 41.6246 42.0176 41.8278 41.7199 42.001C41.0031 42.417 40.9769 42.4228 40.9973 41.6236C41.0702 38.6513 41.1539 35.6779 41.257 32.7066C41.293 31.6713 41.1714 30.6756 40.7143 29.739C39.588 27.4285 36.8968 26.249 34.403 26.8828C32.2205 27.4382 30.1488 29.5339 30.1459 32.3844C30.145 33.8106 30.0662 35.2377 30.0234 36.6639C30.0214 36.6639 30.0195 36.6639 30.0175 36.6639V36.662Z" fill="#EEF0F2"/>
<path d="M32.4889 37.3373C32.4335 39.1399 32.379 40.9415 32.3236 42.7441C32.311 43.1524 32.2458 43.1978 31.8636 43.075C31.1516 42.8447 31.138 42.8166 31.1604 42.0542C31.2528 38.9319 31.3452 35.8086 31.4278 32.6862C31.4599 31.471 31.7313 30.3554 32.5862 29.4246C33.7786 28.1271 35.7102 27.6598 37.3666 28.3013C38.9772 28.9253 40.0237 30.5083 39.978 32.3099C39.8914 35.6789 39.7893 39.048 39.6901 42.4161C39.6746 42.9318 39.1785 43.341 38.6553 43.2869C38.522 43.2733 38.5162 43.1824 38.5123 43.0866C38.5035 42.8766 38.488 42.6657 38.4938 42.4557C38.5901 39.1796 38.6912 35.9034 38.7885 32.6263C38.806 32.037 38.7613 31.4526 38.4967 30.9137C37.6058 29.0937 35.3037 28.6254 33.7203 29.9432C33.0355 30.5131 32.6689 31.2417 32.6446 32.1415C32.5988 33.8734 32.5415 35.6054 32.488 37.3373H32.4889Z" fill="#EEF0F2"/>
<path d="M37.4376 37.614C37.3841 39.3673 37.3306 41.1215 37.2771 42.8747C37.2742 42.9801 37.2537 43.0856 37.2576 43.1901C37.2703 43.521 37.0845 43.6284 36.784 43.6545C36.0944 43.7136 36.0652 43.6923 36.0856 42.9995C36.1868 39.6072 36.287 36.2159 36.3871 32.8236C36.392 32.6601 36.393 32.4956 36.3794 32.3331C36.3405 31.889 36.0438 31.5813 35.6801 31.5968C35.2959 31.6132 35.0459 31.9035 35.0323 32.3669C34.935 35.5725 34.8407 38.778 34.7454 41.9826C34.7327 42.4151 34.7036 42.8486 34.7055 43.2811C34.7065 43.5665 34.5791 43.6594 34.3155 43.6187C34.3038 43.6168 34.2921 43.6158 34.2805 43.6149C33.518 43.5684 33.4907 43.551 33.5121 42.8011C33.5899 40.1229 33.6765 37.4437 33.7572 34.7655C33.7844 33.8763 33.7465 32.9852 33.8418 32.0999C33.9848 30.784 35.3251 30.008 36.5262 30.5605C37.1993 30.8701 37.5718 31.4274 37.5543 32.1792C37.5124 33.9915 37.4483 35.8028 37.3928 37.614C37.4074 37.614 37.423 37.614 37.4376 37.615V37.614Z" fill="#EEF0F2"/>
<path d="M57.6571 32.2479V32.3998C56.7603 32.5043 55.8646 32.5053 54.9678 32.4743C52.3826 32.3466 49.8101 32.0428 47.3513 31.0646C47.3299 30.8101 47.3017 30.5537 47.2638 30.2964C47.009 28.5818 46.4283 26.9873 45.4509 25.5572C45.0647 24.9922 44.6455 24.4726 44.1933 24.0024C43.1934 22.9593 42.0302 22.1505 40.7026 21.5786C40.4147 21.4528 40.1171 21.3416 39.8107 21.24C39.447 21.1171 39.0706 21.0116 38.6835 20.9236C36.5282 20.4301 34.475 20.5066 32.5288 21.1113C31.3734 21.4703 30.2568 22.014 29.1792 22.7358C27.1172 24.1165 25.6525 26.013 24.8102 28.3554C24.4581 29.3365 24.2412 30.3206 24.1537 31.3075C22.3923 31.8754 20.6027 32.1686 18.782 32.3737C16.6977 32.5798 14.6105 32.7085 12.5213 32.5179V32.366L0 32.7162V32.8875L12.5213 33.2378V33.0858C13.5649 32.9813 14.6085 32.9813 15.6512 33.0113C18.5739 33.1362 21.4868 33.4235 24.2957 34.3475C24.393 34.8855 24.5252 35.4244 24.6974 35.9634C24.7908 36.2517 24.8627 36.5584 25.1088 36.8593C25.1312 36.6233 25.1555 36.452 25.1604 36.2798C25.2002 34.9339 25.2411 33.589 25.2712 32.2421C25.2946 31.2659 25.4249 30.2973 25.7196 29.3733C26.6163 26.5674 28.3116 24.3778 30.9814 23.0358C34.1949 21.419 37.4687 21.298 40.7026 22.9526C43.8869 24.5819 45.6094 27.2737 46.1035 30.7637C46.297 32.126 46.1288 33.498 46.0918 34.8662C46.0714 35.6228 46.0461 36.3814 46.0208 37.1999C46.1249 37.1341 46.1511 37.1274 46.1628 37.109C46.1998 37.0499 46.2377 36.99 46.2669 36.9261C46.6559 36.0969 46.9448 35.2532 47.1335 34.395C49.6584 33.3461 52.3068 33.0268 54.9688 32.8952C55.8655 32.8652 56.7613 32.8662 57.658 32.9697V33.1216L68.4131 32.7714V32.6001L57.658 32.2499L57.6571 32.2479Z" fill="#EEF0F2"/>
<path d="M19.8237 44.7837L10.3048 52.2262C10.2581 52.2629 10.19 52.2533 10.156 52.2049C9.17557 50.8058 7.94133 48.7294 7.30622 47.638C7.28677 47.6051 7.28774 47.5654 7.30816 47.5325L11.3095 41.0827C11.361 41.0005 11.2793 40.8989 11.1869 40.9318L5.35809 42.9656C5.30362 42.985 5.24429 42.956 5.22581 42.9018C5.12369 42.6018 5.006 42.2593 4.87081 41.8674C4.12288 39.6933 3.81942 37.5192 3.72022 36.6416C3.71341 36.5855 3.75426 36.5362 3.8097 36.5284L15.7484 34.9823C15.8019 34.9755 15.8515 35.0094 15.8632 35.0626C16.0373 35.8676 16.4565 37.7592 16.7998 38.9067L16.7561 38.988L14.5453 43.1553C14.4977 43.2443 14.5949 43.342 14.6854 43.2946L17.8152 41.6681C17.8648 41.642 17.9251 41.6594 17.9533 41.7078C18.2792 42.2825 19.0572 43.6168 19.8412 44.6405C19.8752 44.685 19.8674 44.7488 19.8227 44.7837H19.8237Z" fill="#EEF0F2"/>
<path d="M44.2536 58.3837C46.7366 57.6184 49.4181 56.4593 51.6502 55.1327C51.7504 55.0727 51.7796 54.9421 51.7144 54.8454C51.6055 54.6828 51.5199 54.5551 51.41 54.3906C51.3468 54.2967 51.2194 54.2716 51.125 54.3345C50.5074 54.7467 50.1408 54.9692 49.4531 55.3553C47.6762 56.3664 43.6399 57.6581 42.8569 54.7486C42.1557 52.141 44.2565 50.3849 46.3408 49.1629C48.0253 48.1508 49.5008 46.8117 50.8829 45.4271C50.9607 45.3497 51.0842 45.3468 51.1649 45.4213C52.2144 46.3802 53.4155 47.2403 54.4659 48.1992C54.5515 48.2775 54.5545 48.4111 54.4718 48.4933C52.8514 50.1033 50.9811 51.6534 49.0612 52.8938C48.9697 52.9528 48.9406 53.0738 48.997 53.1666C49.0563 53.2653 49.1059 53.3495 49.1643 53.4482C49.2226 53.5469 49.3491 53.5779 49.4463 53.5188C50.2089 53.0554 50.9568 52.5397 51.659 51.9949C53.6266 50.4836 55.992 49.3564 58.1239 51.2364C60.6527 53.4666 57.9099 56.349 56.0513 57.8632C56.0474 57.8661 56.0435 57.869 56.0396 57.8719C52.9613 60.0837 49.4113 61.9008 45.7922 63.058C45.6862 63.0919 45.5724 63.0348 45.5364 62.9303C45.0852 61.6309 44.5541 60.0663 44.1174 58.6353C44.0843 58.5279 44.1456 58.4166 44.2526 58.3837H44.2536Z" fill="#EEF0F2"/>
<path d="M52.2503 43.5462C53.9689 40.8689 54.9377 38.091 55.5095 34.9755C55.5222 34.9068 55.5874 34.8594 55.6574 34.8691C56.8372 35.0306 58.016 35.1922 59.1957 35.3548C59.2696 35.3654 59.3212 35.4341 59.3085 35.5077C58.9146 37.7872 58.368 39.9894 57.4197 42.1084C57.3896 42.1761 57.4207 42.2545 57.4898 42.2835C57.6804 42.3619 57.8166 42.418 58.0082 42.4973C58.0743 42.5244 58.1511 42.4944 58.1803 42.4296C59.1024 40.3948 59.3893 39.7001 59.7871 37.5105C59.7997 37.4408 59.8659 37.3925 59.9359 37.4031C60.7791 37.5241 61.6214 37.645 62.4647 37.7659C62.5386 37.7766 62.5892 37.8463 62.5755 37.9198C62.1349 40.3609 61.7517 41.2114 60.7859 43.5007C60.7577 43.5674 60.7898 43.6458 60.8569 43.6739C61.0962 43.7726 61.2586 43.8393 61.4979 43.939C61.566 43.9671 61.6438 43.9351 61.672 43.8674C62.7214 41.3508 63.4168 38.8109 63.8681 36.125C63.8798 36.0553 63.945 36.0069 64.016 36.0166C65.1948 36.1782 66.3745 36.3398 67.5533 36.5023C67.6273 36.512 67.6778 36.5816 67.6662 36.6542C66.8336 41.6913 65.1753 46.2979 62.2925 50.5358C62.2507 50.5968 62.167 50.6123 62.1067 50.5697C58.8329 48.2882 55.5592 46.0067 52.2844 43.7252C52.226 43.6845 52.2114 43.6062 52.2494 43.5471L52.2503 43.5462Z" fill="#EEF0F2"/>
<path d="M21.5024 46.5824C23.8182 48.7691 26.3751 50.2436 29.3416 51.3931C29.4077 51.4183 29.4418 51.4908 29.4194 51.5576C29.0352 52.679 28.652 53.8004 28.2678 54.9208C28.2435 54.9915 28.1657 55.0282 28.0957 55.0021C25.9209 54.1845 23.8512 53.2324 21.9401 51.904C21.8788 51.8614 21.7951 51.8778 21.7543 51.9388C21.6405 52.1101 21.5598 52.232 21.445 52.4042C21.4051 52.4632 21.4207 52.5445 21.479 52.5851C23.3124 53.872 23.9436 54.2851 26.0289 55.0892C26.095 55.1143 26.13 55.1879 26.1067 55.2556C25.8276 56.0558 25.5474 56.856 25.2683 57.6561C25.244 57.7268 25.1652 57.7626 25.0952 57.7355C22.7697 56.8414 22.0033 56.3054 19.9268 54.9276C19.8655 54.887 19.7828 54.9034 19.742 54.9644C19.599 55.1792 19.5017 55.3253 19.3588 55.5401C19.3179 55.601 19.3354 55.6833 19.3957 55.7239C21.6804 57.2265 24.0545 58.3886 26.6202 59.3397C26.6873 59.3648 26.7224 59.4374 26.699 59.5051C26.3158 60.6256 25.9316 61.747 25.5484 62.8674C25.5241 62.938 25.4463 62.9748 25.3772 62.9487C20.5648 61.179 16.333 58.6847 12.6983 55.064C12.6458 55.0118 12.6468 54.9266 12.7003 54.8754C15.5734 52.111 18.4474 49.3467 21.3205 46.5824C21.3711 46.533 21.4518 46.534 21.5034 46.5824H21.5024Z" fill="#EEF0F2"/>
<path d="M29.0167 57.0804C30.6254 57.5449 32.2409 57.78 33.9051 57.9241C33.8739 58.4873 33.8584 58.7688 33.8272 59.3329C34.8728 59.4064 35.9096 59.3852 36.9551 59.3542C36.9016 58.4021 36.8472 57.4491 36.7937 56.497C35.1276 56.5415 32.3479 56.3615 30.6974 56.11C30.8481 54.7941 30.9328 53.2915 31.1321 51.9359C33.8195 52.2639 37.6496 52.38 40.3155 51.9204C40.7687 53.8091 41.221 55.6978 41.6742 57.5865C42.961 62.6188 39.411 64.7145 34.7162 64.6293C32.8002 64.5945 30.321 64.1591 29.1568 62.4494C28.0918 60.8859 28.5606 58.7717 29.0177 57.0824L29.0167 57.0804Z" fill="#EEF0F2"/>
<path d="M60.0399 11.6872C61.6973 13.6572 63.093 15.6978 64.3262 17.9541C63.1328 19.0039 61.9074 20.0189 60.64 20.9778C60.676 21.0532 60.6935 21.091 60.7286 21.1664C62.2974 20.85 63.8779 20.582 65.4661 20.3847C66.4125 22.7716 67.0836 25.1422 67.5339 27.6685C63.4927 28.2645 59.4506 28.8595 55.4094 29.4555C55.2528 28.4551 54.9999 27.4256 54.6731 26.4667C56.7331 25.8253 58.7921 25.1847 60.8521 24.5432C60.8268 24.4658 60.8141 24.4281 60.7889 24.3517C58.5781 24.5432 56.4005 24.8345 54.2179 25.2331C53.8581 24.3507 53.6519 23.923 53.1928 23.0977C54.9114 21.7228 56.5483 20.284 58.1317 18.7572C58.0889 18.6895 58.0675 18.6566 58.0247 18.5898C56.1914 19.7219 54.358 20.853 52.5246 21.985C51.9975 21.1539 51.3769 20.3353 50.7185 19.6029C53.826 16.9643 56.9334 14.3267 60.0409 11.6882L60.0399 11.6872Z" fill="#EEF0F2"/>
<path d="M47.8328 2.9424C51.8496 4.64338 55.3393 6.93553 58.4945 9.93691C57.587 10.83 56.6796 11.724 55.7731 12.6171C54.1051 11.0428 52.3622 9.69212 50.4209 8.47009C50.2497 8.75068 50.1651 8.89001 49.9939 9.1706C51.8039 10.3085 53.4398 11.5624 55.0067 13.0157C54.3463 13.6785 53.6859 14.3422 53.0245 15.005C51.6707 13.6978 50.1573 12.5222 48.533 11.5653C48.3346 11.8914 48.2354 12.0539 48.036 12.38C49.6584 13.336 51.1659 14.5174 52.5061 15.8342C51.5987 16.7273 50.6913 17.6213 49.7848 18.5144C47.7919 16.6828 45.7339 15.3388 43.2489 14.2522C44.7768 10.4816 46.3048 6.71203 47.8318 2.94143L47.8328 2.9424Z" fill="#EEF0F2"/>
<path d="M29.5468 1.19789C32.1213 0.750873 34.6238 0.575744 37.2362 0.647343C37.1166 3.05077 36.997 5.45419 36.8783 7.85859C39.1289 8.01823 41.2434 8.39945 43.4084 9.04095C42.8842 10.6142 42.3609 12.1884 41.8367 13.7617C38.5171 12.8077 35.3153 12.618 31.9005 13.1637C31.1166 9.17544 30.3317 5.18618 29.5478 1.19789H29.5468Z" fill="#EEF0F2"/>
<path d="M14.4024 8.413C18.2967 5.18424 22.5761 2.95014 27.4645 1.60426C27.7825 2.83403 28.1015 4.06477 28.4196 5.29455C25.8285 6.00861 23.4359 6.99068 21.0929 8.3027C21.2612 8.58426 21.3448 8.72552 21.5121 9.00805C23.7082 7.78408 25.9141 6.8649 28.331 6.16535C28.5752 7.06712 28.8193 7.96889 29.0634 8.86969C26.8984 9.50441 24.9182 10.3288 22.9467 11.4183C23.1422 11.7463 23.2395 11.9098 23.4349 12.2378C25.4103 11.1493 27.3905 10.3375 29.5653 9.72405C29.8833 10.9538 30.2023 12.1846 30.5204 13.4143C27.5004 14.2764 24.9007 15.6262 22.4604 17.5981C19.7741 14.5367 17.0877 11.4753 14.4014 8.41397L14.4024 8.413Z" fill="#EEF0F2"/>
<path d="M14.8634 20.7949C14.202 21.9347 13.6359 23.1296 13.174 24.3633C14.4296 24.8122 15.6852 25.2612 16.9418 25.7101C16.4643 26.9757 16.1637 28.2616 15.9177 29.5871C11.8716 29.0172 7.82559 28.4464 3.78052 27.8765C4.14914 25.7169 4.68018 23.655 5.40477 21.5844C6.61275 22.016 7.82073 22.4485 9.02773 22.88C9.5792 21.4219 10.2347 19.9947 11.0225 18.6469C9.90405 18.0219 8.78555 17.3959 7.66608 16.7708C8.76415 14.945 9.97213 13.2586 11.3503 11.6301C14.4481 14.2803 17.5448 16.9305 20.6426 19.5806C19.7779 20.5578 19.0096 21.6183 18.3531 22.7445C17.1898 22.0943 16.0266 21.4441 14.8634 20.7939V20.7949Z" fill="#EEF0F2"/>
</g>
<path d="M165.067 48.6205V36.7042H163.126V48.6205H154.985V16.6318H173.22V48.6205H165.067ZM163.126 29.4661H165.067V23.8683H163.126V29.4661ZM135.724 48.6205V16.6318H153.054V36.7025H142.97V48.6189H135.724V48.6205ZM142.962 29.4661H144.902V23.8683H142.962V29.4661ZM125.664 48.6205V16.6318H133.817V48.6205H125.664ZM115.58 48.6205V36.7042H113.639V48.6205H105.483V16.6318H113.636V28.5482H115.577V16.6318H123.723V31.2033H120.053V33.1441H123.723V48.6302L115.58 48.6205ZM84.4141 48.6205V16.6318H103.554V26.6171H92.5603V28.5579H103.556V36.7025H92.5603V38.6434H103.556V48.6318L84.4157 48.6189L84.4141 48.6205ZM165.08 48.6205V36.7042H163.139V48.6205H154.985V16.6318H173.22V48.6205H165.08ZM163.139 29.4661H165.08V23.8683H163.139V29.4661ZM135.737 48.6205V16.6318H153.054V36.7025H142.97V48.6189H135.737V48.6205ZM142.975 29.4661H144.914V23.8683H142.975V29.4661ZM125.664 48.6205V16.6318H133.817V48.6205H125.664ZM115.58 48.6205V36.7042H113.639V48.6205H105.483V16.6318H113.636V28.5482H115.577V16.6318H123.723V31.2033H120.053V33.1441H123.723V48.6302L115.58 48.6205ZM84.4141 48.6205V16.6318H103.554V26.6171H92.5603V28.5579H103.556V36.7025H92.5603V38.6434H103.556V48.6318L84.4157 48.6189L84.4141 48.6205Z" fill="#EEF0F2"/>
<defs>
<clipPath id="clip0_7560_7972">
<rect width="68.4131" height="64" fill="white" transform="translate(0 0.631836)"/>
</clipPath>
</defs>
</svg>
