<?xml version="1.0" encoding="UTF-8"?>
<svg id="Layer_1" data-name="Layer 1" xmlns="http://www.w3.org/2000/svg" viewBox="0 0 184.64 56">
  <g>
    <path d="M3.19,17.76c0,1.19.26,2.21.77,3.04.52.83,1.31,1.46,2.39,1.88,1.08.42,2.46.63,4.15.63,2.74,0,4.7-.64,5.89-1.92,1.18-1.28,1.75-3.24,1.7-5.89h-4.39c.02,1.38-.13,2.36-.47,2.93-.34.57-.95.86-1.84.86-.59,0-1.03-.12-1.33-.35-.3-.23-.51-.56-.61-.97-.11-.41-.16-.92-.16-1.53v-7.83h6.82v-3.9h-6.82V.44h-4.74l-1.12,4.29H0v3.9h3.2v9.13h0Z" style="fill: #eef0f2; stroke-width: 0px;"/>
    <path d="M21.15,22.01c.68.42,1.43.73,2.27.91.83.19,1.67.28,2.51.28,1.64,0,3.09-.29,4.36-.86,1.27-.57,2.25-1.45,2.95-2.62h.11c.26,1.05.76,1.83,1.49,2.34s1.59.81,2.56.91,1.94.06,2.9-.12v-4.01c-.49.12-.91.16-1.26.12-.35-.04-.61-.18-.79-.42-.18-.25-.26-.61-.26-1.11v-6.89c0-1.31-.28-2.44-.83-3.37-.55-.94-1.45-1.66-2.69-2.16-1.24-.5-2.9-.76-4.99-.76-2.23,0-3.99.24-5.31.72s-2.26,1.19-2.83,2.14-.86,2.14-.86,3.57h5.87c0-.68.09-1.21.26-1.58.18-.37.46-.65.86-.83s.93-.26,1.58-.26c1.01,0,1.74.19,2.21.58s.7,1.05.7,1.98v3.55c-.52-.66-1.28-1.16-2.3-1.53-1.02-.36-2.27-.55-3.74-.55-.77,0-1.57.09-2.39.26s-1.58.47-2.28.88c-.7.41-1.28.98-1.72,1.7s-.67,1.65-.67,2.78c0,1.03.21,1.9.63,2.62.42.71.97,1.28,1.65,1.7h0ZM25.78,15.88c.59-.36,1.5-.55,2.74-.55s2.15.18,2.72.55.86.91.86,1.63c0,.77-.28,1.33-.83,1.67-.55.34-1.47.51-2.76.51s-2.24-.17-2.79-.51-.83-.9-.83-1.67c0-.73.29-1.27.88-1.63h0Z" style="fill: #eef0f2; stroke-width: 0px;"/>
    <rect x="41.84" width="6.22" height="22.86" style="fill: #eef0f2; stroke-width: 0px;"/>
    <path d="M55.28,22.45c1.58.6,3.47.9,5.67.9,3.21,0,5.61-.64,7.2-1.92,1.59-1.28,2.44-3.04,2.53-5.29h-5.41c-.02,1.17-.35,2.03-.97,2.56-.62.54-1.63.83-3.04.88-1.1,0-1.98-.16-2.64-.49-.66-.33-1.14-.88-1.44-1.65s-.47-1.8-.49-3.09h13.18c.14-2.51-.11-4.5-.76-5.97-.64-1.48-1.68-2.54-3.11-3.18-1.43-.64-3.27-.97-5.52-.97-.98,0-1.96.08-2.93.25-.97.16-1.89.45-2.76.84-.87.4-1.63.95-2.3,1.67s-1.19,1.62-1.56,2.72c-.38,1.1-.56,2.44-.56,4.01,0,2.41.42,4.32,1.26,5.73.84,1.41,2.06,2.41,3.64,3h0ZM57.68,8.77c.56-.54,1.51-.81,2.85-.81,1.01,0,1.76.12,2.25.37.49.25.83.63,1,1.14.18.52.24,1.15.19,1.9h-7.31c.12-1.19.46-2.06,1.02-2.6h0Z" style="fill: #eef0f2; stroke-width: 0px;"/>
    <path d="M92.22,10.1c0-1.73-.52-3.12-1.56-4.16-1.04-1.04-2.57-1.56-4.58-1.56-1.66,0-3.16.34-4.48,1.02-1.32.68-2.37,1.66-3.14,2.95l-.14-.04.18-3.58h-5.97v18.13h6.08v-10.58c0-.7.14-1.31.42-1.83.28-.52.73-.91,1.33-1.18s1.38-.4,2.32-.4c1.41,0,2.34.29,2.79.88.46.59.69,1.43.69,2.53v10.58h6.08v-12.75h0Z" style="fill: #eef0f2; stroke-width: 0px;"/>
    <path d="M96.93,17.76c0,1.19.26,2.21.77,3.04.52.83,1.31,1.46,2.39,1.88,1.08.42,2.46.63,4.15.63,2.74,0,4.7-.64,5.89-1.92,1.18-1.28,1.75-3.24,1.7-5.89h-4.39c.02,1.38-.13,2.36-.47,2.93-.34.57-.95.86-1.84.86-.59,0-1.03-.12-1.33-.35-.3-.23-.51-.56-.61-.97-.11-.41-.16-.92-.16-1.53v-7.83h6.82v-3.9h-6.82V.44h-4.74l-1.12,4.29h-3.41v3.9h3.2v9.13h0Z" style="fill: #eef0f2; stroke-width: 0px;"/>
  </g>
  <g>
    <path d="M7.53,49.26c-.85,0-1.7-.1-2.54-.28-.84-.19-1.6-.5-2.29-.92-.69-.43-1.24-1-1.67-1.72-.43-.72-.64-1.6-.64-2.64,0-1.14.22-2.07.67-2.8.45-.73,1.03-1.31,1.74-1.72.71-.41,1.48-.71,2.31-.89s1.63-.27,2.41-.27c1.49,0,2.75.18,3.78.55,1.03.37,1.8.88,2.32,1.54v-3.58c0-.95-.24-1.61-.71-2s-1.22-.59-2.23-.59c-.66,0-1.19.09-1.6.27-.4.18-.69.46-.87.83-.18.38-.27.91-.27,1.6H2.04c0-1.44.29-2.64.87-3.6s1.53-1.68,2.86-2.16c1.32-.48,3.11-.73,5.36-.73,2.1,0,3.78.25,5.04.76,1.25.51,2.16,1.24,2.71,2.18s.83,2.08.83,3.41v6.95c0,.5.09.87.27,1.12.18.25.44.39.8.43s.78,0,1.28-.12v4.04c-.97.19-1.95.23-2.93.12-.98-.11-1.84-.41-2.59-.92-.74-.51-1.25-1.29-1.51-2.36h-.11c-.71,1.18-1.7,2.06-2.98,2.64s-2.74.87-4.4.87h0ZM10.16,45.71c1.3,0,2.23-.17,2.79-.51.56-.34.83-.9.83-1.69,0-.73-.29-1.28-.87-1.65-.58-.37-1.5-.55-2.75-.55s-2.18.18-2.77.55c-.59.37-.89.92-.89,1.65,0,.78.28,1.34.83,1.69.56.34,1.5.51,2.82.51h0Z" style="fill: #eef0f2; stroke-width: 0px;"/>
    <path d="M29.7,48.91h-6.1v-21.71h6.1v9.79h1.35l5.11-6.38h6.21l-6.1,7.38,7.7,10.93h-7.52l-5.46-7.87h-1.28v7.87h0Z" style="fill: #eef0f2; stroke-width: 0px;"/>
    <path d="M50.14,49.26c-.85,0-1.7-.1-2.54-.28-.84-.19-1.6-.5-2.29-.92-.69-.43-1.24-1-1.67-1.72-.43-.72-.64-1.6-.64-2.64,0-1.14.22-2.07.67-2.8.45-.73,1.03-1.31,1.74-1.72.71-.41,1.48-.71,2.31-.89s1.63-.27,2.41-.27c1.49,0,2.75.18,3.78.55,1.03.37,1.8.88,2.32,1.54v-3.58c0-.95-.24-1.61-.71-2s-1.22-.59-2.23-.59c-.66,0-1.19.09-1.6.27-.4.18-.69.46-.87.83-.18.38-.27.91-.27,1.6h-5.92c0-1.44.29-2.64.87-3.6s1.53-1.68,2.86-2.16c1.32-.48,3.11-.73,5.36-.73,2.1,0,3.78.25,5.04.76,1.25.51,2.16,1.24,2.71,2.18s.83,2.08.83,3.41v6.95c0,.5.09.87.27,1.12.18.25.44.39.8.43s.78,0,1.28-.12v4.04c-.97.19-1.95.23-2.93.12-.98-.11-1.84-.41-2.59-.92-.74-.51-1.25-1.29-1.51-2.36h-.11c-.71,1.18-1.7,2.06-2.98,2.64s-2.74.87-4.4.87h0ZM52.76,45.71c1.3,0,2.23-.17,2.79-.51s.83-.9.83-1.69c0-.73-.29-1.28-.87-1.65-.58-.37-1.5-.55-2.75-.55s-2.18.18-2.77.55c-.59.37-.89.92-.89,1.65,0,.78.28,1.34.83,1.69s1.5.51,2.82.51h0Z" style="fill: #eef0f2; stroke-width: 0px;"/>
    <path d="M79.9,26.64h6.14v22.27h-6.14l.18-3.8-.11-.04c-.78,1.28-1.79,2.29-3.01,3.05-1.23.76-2.68,1.14-4.36,1.14-1.16,0-2.19-.18-3.1-.55-.91-.37-1.69-.94-2.32-1.72s-1.12-1.77-1.45-2.96c-.33-1.19-.5-2.62-.5-4.27,0-1.84.22-3.38.66-4.61.44-1.23,1.04-2.2,1.81-2.93.77-.72,1.67-1.23,2.7-1.53,1.03-.29,2.15-.44,3.35-.44.92,0,1.78.11,2.57.34.79.23,1.5.56,2.11,1.01.61.45,1.11.99,1.49,1.63v-6.59h0ZM75.71,34.08c-.97,0-1.77.17-2.41.5-.64.33-1.12.9-1.44,1.72s-.48,1.93-.48,3.35.15,2.53.46,3.33c.31.8.78,1.37,1.42,1.69s1.45.48,2.45.48,1.8-.16,2.43-.48c.63-.32,1.09-.88,1.4-1.69.31-.8.46-1.92.46-3.33s-.15-2.57-.46-3.37-.77-1.37-1.4-1.7c-.63-.33-1.44-.5-2.43-.5h0Z" style="fill: #eef0f2; stroke-width: 0px;"/>
    <path d="M99.05,49.4c-2.22,0-4.13-.3-5.73-.9s-2.82-1.61-3.67-3.03-1.28-3.35-1.28-5.78c0-1.58.19-2.93.57-4.04.38-1.11.9-2.03,1.58-2.75.67-.72,1.45-1.28,2.32-1.69.87-.4,1.8-.69,2.79-.85.98-.16,1.97-.25,2.96-.25,2.27,0,4.13.32,5.57.98,1.44.65,2.49,1.72,3.14,3.21.65,1.49.9,3.5.76,6.03h-13.3c.02,1.3.19,2.34.5,3.12.31.78.79,1.34,1.45,1.67.66.33,1.55.5,2.66.5,1.42-.05,2.44-.34,3.07-.89s.95-1.41.98-2.59h5.46c-.1,2.27-.95,4.05-2.55,5.34-1.61,1.29-4.03,1.93-7.27,1.93h0ZM98.63,33.87c-1.35,0-2.31.27-2.87.82-.57.54-.91,1.42-1.03,2.62h7.38c.05-.76-.02-1.39-.19-1.92-.18-.52-.51-.9-1.01-1.15-.5-.25-1.25-.37-2.27-.37h0Z" style="fill: #eef0f2; stroke-width: 0px;"/>
    <path d="M116.75,38.26v10.64h-6.03v-18.3h5.99l-.18,3.62.11.04c.8-1.32,1.84-2.32,3.1-3,1.26-.67,2.65-1.01,4.17-1.01s2.82.35,3.71,1.05,1.46,1.65,1.72,2.86l.11.04c.8-1.3,1.83-2.28,3.07-2.94s2.62-.99,4.13-.99c1.87,0,3.29.53,4.27,1.58.98,1.05,1.47,2.45,1.47,4.2v12.88h-6.14v-10.64c0-1.11-.2-1.96-.6-2.55s-1.23-.89-2.48-.89c-.83,0-1.51.14-2.04.41-.53.27-.93.66-1.19,1.17-.26.51-.39,1.13-.39,1.86v10.64h-6.14v-10.64c0-1.11-.2-1.96-.6-2.55s-1.22-.89-2.45-.89c-.83,0-1.51.14-2.04.41s-.93.66-1.19,1.17c-.26.51-.39,1.13-.39,1.86h0Z" style="fill: #eef0f2; stroke-width: 0px;"/>
    <path d="M148.5,29.83c-1.28,0-2.2-.23-2.79-.69-.58-.46-.87-1.18-.87-2.15s.29-1.69.87-2.15,1.51-.69,2.79-.69,2.19.23,2.75.69c.56.46.83,1.18.83,2.15s-.28,1.69-.83,2.15c-.56.46-1.47.69-2.75.69ZM151.55,48.91h-6.17v-18.3h6.17v18.3Z" style="fill: #eef0f2; stroke-width: 0px;"/>
    <path d="M151.94,56l-2.02-3.58,4.86-2.98v-18.84h6.21v19.86l-9.04,5.53h0ZM157.93,29.83c-1.28,0-2.21-.23-2.8-.69-.59-.46-.89-1.18-.89-2.15s.29-1.69.89-2.15,1.53-.69,2.8-.69,2.16.23,2.73.69c.57.46.85,1.18.85,2.15s-.28,1.69-.85,2.15-1.48.69-2.73.69Z" style="fill: #eef0f2; stroke-width: 0px;"/>
    <path d="M170.14,49.26c-.85,0-1.7-.1-2.54-.28-.84-.19-1.6-.5-2.29-.92-.69-.43-1.24-1-1.67-1.72-.43-.72-.64-1.6-.64-2.64,0-1.14.22-2.07.67-2.8.45-.73,1.03-1.31,1.74-1.72.71-.41,1.48-.71,2.31-.89s1.63-.27,2.41-.27c1.49,0,2.75.18,3.78.55,1.03.37,1.8.88,2.32,1.54v-3.58c0-.95-.24-1.61-.71-2s-1.22-.59-2.23-.59c-.66,0-1.19.09-1.6.27-.4.18-.69.46-.87.83-.18.38-.27.91-.27,1.6h-5.92c0-1.44.29-2.64.87-3.6s1.53-1.68,2.86-2.16c1.32-.48,3.11-.73,5.36-.73,2.1,0,3.78.25,5.04.76,1.25.51,2.16,1.24,2.71,2.18s.83,2.08.83,3.41v6.95c0,.5.09.87.27,1.12.18.25.44.39.8.43s.78,0,1.28-.12v4.04c-.97.19-1.95.23-2.93.12-.98-.11-1.84-.41-2.59-.92-.74-.51-1.25-1.29-1.51-2.36h-.11c-.71,1.18-1.7,2.06-2.98,2.64s-2.74.87-4.4.87h0ZM172.76,45.71c1.3,0,2.23-.17,2.79-.51s.83-.9.83-1.69c0-.73-.29-1.28-.87-1.65-.58-.37-1.5-.55-2.75-.55s-2.18.18-2.77.55c-.59.37-.89.92-.89,1.65,0,.78.28,1.34.83,1.69s1.5.51,2.82.51h0Z" style="fill: #eef0f2; stroke-width: 0px;"/>
  </g>
</svg>