<svg width="841" height="884" viewBox="0 0 841 884" fill="none" xmlns="http://www.w3.org/2000/svg">
<path d="M466.955 795.266H234.74C225.643 793.55 207.853 787.721 219.421 776.711C227.746 768.781 243.345 766.05 254.037 763.512C273.667 758.803 293.876 755.845 313.962 753.797C315.522 753.621 317.064 753.464 318.624 753.324C313.716 753.376 309.037 753.359 304.602 753.289C219.561 751.818 217.616 727.574 217.616 727.574C217.616 700.284 268.812 689.868 304.427 685.93C304.83 685.877 305.198 685.842 305.601 685.807H305.619C306.005 685.755 306.408 685.72 306.793 685.685C310.947 685.247 314.838 684.897 318.396 684.617C319.167 684.564 319.921 684.494 320.657 684.442C321.288 684.407 321.884 684.354 322.48 684.319C323.234 684.267 323.952 684.214 324.636 684.179C325.46 684.127 326.213 684.074 326.967 684.039H326.984C333.785 683.637 337.974 683.567 337.974 683.567C337.974 683.567 333.873 683.637 327.177 683.479C326.459 683.462 325.705 683.444 324.934 683.409C320.184 683.287 314.383 683.024 307.95 682.569C307.582 682.551 307.214 682.516 306.846 682.499C306.478 682.464 306.11 682.446 305.742 682.411C304.848 682.341 303.954 682.271 303.043 682.184C266.516 679.155 214.829 669.563 217.616 639.559C220.858 605.039 288.372 596.34 322.235 594.151H322.27C330.034 593.644 336.028 593.486 339.043 593.434C339.481 593.416 339.867 593.416 340.182 593.416C340.445 593.399 340.673 593.399 340.831 593.399H340.182C339.867 593.399 339.499 593.399 339.061 593.399C333.75 593.329 319.132 592.874 301.938 590.143C267.428 584.664 222.576 570.065 221.927 531.186C221.209 488.702 275.122 473.28 310.702 467.731C328.159 465 341.199 464.65 341.199 464.65C314.277 464.947 292.281 462.497 274.649 457.963C274.631 457.963 274.631 457.963 274.631 457.963C163.422 429.482 225.485 318.956 319.693 298.3C362.792 288.883 415.619 298.23 450.568 318.011C462.574 324.803 472.459 332.837 479.119 341.747C479.312 342.01 479.505 342.255 479.68 342.5C479.873 342.763 480.048 343.025 480.223 343.288C488.601 355.296 491.125 368.828 485.201 383.112C483.887 386.263 482.344 389.238 480.609 392.039C480.486 392.249 480.364 392.459 480.223 392.652C480.101 392.862 479.978 393.055 479.838 393.265C476.841 397.886 473.3 402.035 469.357 405.798H469.339C468.235 406.866 467.096 407.881 465.921 408.861C452.934 419.872 436.353 426.979 420.369 431.565C419.527 431.828 418.668 432.056 417.827 432.283C411.745 433.946 405.769 435.241 400.142 436.274C399.722 436.344 399.319 436.414 398.915 436.484C398.512 436.554 398.109 436.624 397.706 436.694C388.75 438.217 380.792 439.04 374.851 439.478C380.319 439.95 387.558 440.755 395.69 442.086C396.041 442.138 396.392 442.191 396.76 442.243C397.11 442.313 397.478 442.366 397.829 442.418C401.58 443.066 405.488 443.819 409.502 444.694C410.624 444.939 411.745 445.202 412.885 445.464C413.586 445.622 414.287 445.797 414.988 445.972C423.383 448.02 432.024 450.681 440.227 454.059C442.786 455.127 445.292 456.247 447.728 457.473C448.377 457.788 449.025 458.103 449.656 458.436C459.489 463.529 468.165 469.936 474.247 478.006C474.79 478.689 475.281 479.389 475.754 480.089C480.749 487.459 483.659 496.124 483.483 506.329C483.098 529.191 467.884 543.772 448.447 553.085H448.429C447.535 553.505 446.607 553.943 445.695 554.345H445.678C434.268 559.439 421.63 562.818 409.765 565.041C408.941 565.198 408.117 565.356 407.311 565.496C390.713 568.454 375.973 569.224 368.786 569.417C367.91 569.452 367.139 569.452 366.49 569.469C365.579 569.487 364.931 569.487 364.545 569.487C364.931 569.487 365.579 569.504 366.473 569.504C367.104 569.522 367.858 569.539 368.734 569.557C375.499 569.749 389.1 570.327 404.77 572.288C405.488 572.375 406.189 572.463 406.908 572.55C406.908 572.55 406.919 572.556 406.943 572.568C416.548 573.828 426.854 575.596 436.774 578.117C437.405 578.274 438.018 578.432 438.649 578.607H438.702C438.702 578.607 438.807 578.642 438.86 578.66C447.588 580.953 455.948 583.841 463.205 587.465C463.853 587.78 464.484 588.112 465.115 588.445C470.478 591.298 475.176 594.554 478.891 598.318C479.154 598.598 479.435 598.878 479.698 599.175C479.978 599.473 480.241 599.77 480.504 600.068C484.57 604.742 487.164 610.133 487.743 616.348C489.057 630.597 478.418 640.312 462.977 646.929C462.539 647.121 462.083 647.314 461.627 647.506C461.172 647.682 460.733 647.857 460.278 648.049C454.213 650.412 447.535 652.373 440.612 653.948C439.771 654.141 438.965 654.333 438.123 654.508C428.361 656.627 418.23 658.044 408.801 659.007C408.012 659.095 407.223 659.182 406.435 659.252C392.799 660.565 380.828 660.915 373.852 661.003C373.028 661.02 372.257 661.02 371.573 661.02C368.909 661.02 367.419 661.02 367.419 661.02C368.786 661.02 370.171 661.073 371.538 661.108C372.292 661.143 373.028 661.16 373.782 661.195C383.053 661.545 392.343 662.281 401.58 663.366C402.631 663.506 403.683 663.629 404.734 663.786C405.471 663.856 406.189 663.944 406.908 664.066C409.589 664.399 412.254 664.784 414.9 665.204C414.935 665.204 414.97 665.204 415.005 665.221C417.214 665.554 419.422 665.922 421.613 666.307C424.47 666.814 428.361 667.585 432.848 668.635C433.531 668.793 434.232 668.95 434.951 669.125C439.824 670.298 445.275 671.768 450.778 673.501C451.111 673.606 451.462 673.711 451.795 673.816C452.145 673.939 452.478 674.044 452.811 674.149C480.101 683.077 507.478 698.673 473.721 719.172C459.839 727.609 445.029 732.756 429.728 735.819C429.325 735.889 428.904 735.977 428.501 736.064C428.098 736.134 427.677 736.204 427.274 736.292C421.175 737.412 415.005 738.217 408.783 738.795C408.012 738.865 407.241 738.917 406.452 738.987C395.463 739.88 384.315 740.038 373.186 739.88C382.65 740.02 392.132 740.388 401.58 740.983C402.929 741.053 404.261 741.141 405.593 741.246H405.611C405.611 741.246 405.716 741.246 405.751 741.246C406.452 741.281 407.136 741.333 407.819 741.403C413.48 741.788 419.142 742.278 424.785 742.838H424.82C425.189 742.873 425.557 742.908 425.925 742.944C426.293 742.979 426.661 743.014 427.029 743.049C449.849 745.184 478.085 747.127 496.383 761.761C500.309 764.912 503.99 768.903 504.831 773.892C507.145 788.299 486.884 793.463 466.955 795.301V795.266Z" fill="#EA8BF3"/>
<path d="M466.99 796.142H234.739C230.515 795.354 217.09 792.326 215.022 785.341C214.163 782.418 215.425 779.302 218.825 776.081C226.344 768.922 239.367 765.963 249.848 763.583C251.232 763.267 252.564 762.97 253.844 762.655C268.584 759.119 284.744 756.318 302.972 754.13C219.701 752.379 216.827 728.66 216.757 727.645C216.757 700.442 264.378 689.484 304.339 685.055C304.743 685.003 305.128 684.968 305.531 684.933C305.899 684.88 306.32 684.845 306.723 684.81C309.79 684.495 312.893 684.198 315.995 683.935C313.331 683.795 310.614 683.637 307.897 683.445L305.671 683.287C304.795 683.217 303.884 683.147 302.972 683.06C274.088 680.662 236.685 674.255 222.488 657.345C218.071 652.093 216.143 646.072 216.757 639.472C219.964 605.268 283.167 595.885 321.253 593.329C315.522 592.839 308.879 592.104 301.815 590.984C265.342 585.19 221.717 570.118 221.068 531.169C220.332 487.459 276.839 472.09 310.579 466.839C314.838 466.173 318.834 465.648 322.462 465.228C304.409 464.493 288.355 462.34 274.561 458.804H273.79V458.594C234.932 448.476 213.812 427.12 214.32 398.447C215.057 356.015 263.238 309.732 319.518 297.391C361.162 288.288 414.006 296.253 451.006 317.189C463.538 324.278 473.23 332.348 479.82 341.171L480.398 341.941C480.591 342.203 480.767 342.466 480.942 342.728C490.073 355.822 491.774 369.494 486.025 383.392C484.728 386.526 483.15 389.572 481.363 392.443C481.222 392.688 481.1 392.898 480.942 393.108C480.854 393.265 480.732 393.458 480.574 393.685C477.682 398.149 474.106 402.42 469.97 406.359C468.848 407.427 467.674 408.477 466.482 409.457C454.984 419.208 439.56 426.892 420.614 432.336C419.86 432.564 419.089 432.774 418.318 432.984L418.055 433.054C412.534 434.559 406.557 435.907 400.3 437.063L397.864 437.483C393.289 438.27 388.539 438.918 383.825 439.443C387.4 439.863 391.466 440.424 395.831 441.141L396.882 441.299C397.198 441.369 397.496 441.404 397.776 441.439L397.969 441.474C401.947 442.157 405.891 442.927 409.694 443.767C410.658 443.977 411.622 444.205 412.604 444.432L413.095 444.537C413.761 444.677 414.409 444.852 415.075 445.01C424.382 447.286 432.918 450.016 440.577 453.167C443.399 454.34 445.888 455.478 448.131 456.616C448.78 456.931 449.428 457.246 450.077 457.578C460.908 463.18 469.269 469.849 474.965 477.394C475.508 478.077 476.017 478.794 476.507 479.512C481.906 487.477 484.552 496.474 484.395 506.26C484.044 526.67 472.091 542.652 448.867 553.786L448.675 553.873C447.816 554.276 446.957 554.678 446.098 555.064L445.905 555.134C435.722 559.667 423.628 563.256 409.975 565.812C409.151 565.969 408.327 566.127 407.504 566.267C398.915 567.807 390.835 568.752 384.035 569.33C390.31 569.75 397.425 570.398 404.927 571.326L407.416 571.658C418.388 573.094 428.308 574.949 437.054 577.172C437.65 577.312 438.228 577.47 438.824 577.627L439.052 577.68C448.604 580.201 456.86 583.176 463.66 586.572C464.256 586.853 464.834 587.168 465.43 587.483L465.588 587.57C471.302 590.616 476.017 593.995 479.575 597.601L479.855 597.898C480.048 598.091 480.223 598.283 480.416 598.493C480.644 598.738 480.889 599.001 481.117 599.264C485.604 604.427 488.11 610.064 488.671 616.156C489.881 629.32 481.38 639.91 463.38 647.612C462.994 647.787 462.573 647.962 462.153 648.137L461.995 648.207C461.557 648.382 461.119 648.557 460.681 648.733C454.791 651.026 448.131 653.021 440.875 654.684L440.297 654.824C439.648 654.964 439.017 655.122 438.369 655.262H438.193C429.64 657.152 419.737 658.675 408.941 659.778C408.152 659.866 407.363 659.953 406.557 660.023C400.773 660.583 395.27 660.968 390.257 661.231C394.06 661.564 397.899 661.949 401.72 662.386L402.789 662.526C403.49 662.614 404.208 662.702 404.91 662.807C405.628 662.877 406.364 662.964 407.1 663.087C409.624 663.402 412.253 663.769 415.075 664.224H415.198C417.406 664.575 419.615 664.942 421.806 665.327C424.277 665.765 428.238 666.535 433.093 667.673L433.601 667.795C434.127 667.918 434.67 668.04 435.214 668.163C440.682 669.476 446.028 670.964 451.093 672.557L452.11 672.872C452.478 672.994 452.793 673.099 453.126 673.204C469.304 678.491 488.864 687.278 490.214 699.059C491.002 705.904 485.622 712.888 474.229 719.803C461.189 727.732 446.712 733.211 429.956 736.555C429.535 736.625 429.132 736.712 428.746 736.8L428.536 736.835C428.203 736.887 427.852 736.957 427.519 737.027C421.648 738.113 415.566 738.936 408.923 739.548L406.592 739.741C405.26 739.846 403.91 739.951 402.543 740.038C403.56 740.091 404.559 740.161 405.576 740.248H405.593H405.891C406.575 740.283 407.276 740.336 407.977 740.406C413.358 740.774 418.914 741.246 424.943 741.841L430.517 742.367C452.285 744.38 479.382 746.865 496.997 760.957C502.15 765.088 505.024 769.237 505.76 773.63C506.374 777.411 505.532 780.807 503.271 783.713C498.259 790.155 486.095 794.304 467.095 796.054H467.06L466.99 796.142ZM318.606 752.449L318.694 754.2C317.134 754.34 315.609 754.497 314.049 754.673C291.334 756.983 271.774 760.152 254.23 764.37C252.95 764.668 251.618 764.983 250.216 765.298C239.945 767.626 227.168 770.532 219.999 777.359C217.125 780.09 216.003 782.61 216.669 784.869C218.089 789.665 227.361 793.008 234.862 794.426H466.868C485.341 792.711 497.084 788.772 501.781 782.733C503.762 780.195 504.463 777.341 503.92 774.016C503.254 770.077 500.59 766.278 495.787 762.427C478.576 748.668 451.777 746.2 430.236 744.205L424.68 743.679C418.633 743.084 413.095 742.612 407.696 742.244C407.013 742.174 406.347 742.121 405.663 742.086H405.541C404.138 741.981 402.806 741.894 401.457 741.824C392.062 741.229 382.527 740.861 373.098 740.721V738.971H373.133C386.05 739.146 396.584 738.866 406.312 738.078L408.643 737.885C415.233 737.273 421.262 736.45 427.046 735.4C427.379 735.329 427.747 735.259 428.115 735.207C428.659 735.102 429.097 734.997 429.5 734.927C446.028 731.618 460.33 726.209 473.195 718.402C483.957 711.855 489.057 705.449 488.356 699.339C487.094 688.469 468.147 680.084 452.46 674.955C452.127 674.85 451.794 674.745 451.426 674.622L450.427 674.307C445.397 672.714 440.086 671.261 434.653 669.949C434.11 669.808 433.584 669.703 433.058 669.581L432.55 669.458C427.73 668.321 423.804 667.568 421.35 667.13C419.159 666.745 416.968 666.378 414.76 666.045L414.584 666.01C411.71 665.572 409.169 665.205 406.68 664.89C405.944 664.767 405.243 664.68 404.524 664.61C403.788 664.505 403.087 664.417 402.403 664.329L401.334 664.189C392.045 663.104 382.703 662.369 373.624 662.036L371.38 661.949C370.031 661.914 368.646 661.879 367.296 661.861V660.111H367.314C367.314 660.111 368.015 660.111 369.189 660.111C369.803 660.111 370.557 660.111 371.45 660.111C372.134 660.111 372.888 660.111 373.694 660.111C381.231 660.023 392.991 659.638 406.207 658.36C406.995 658.29 407.784 658.203 408.555 658.115C419.282 657.012 429.114 655.507 437.79 653.634H437.983C438.456 653.494 439.07 653.354 439.701 653.214L440.297 653.074C447.483 651.446 454.055 649.468 459.839 647.21C460.277 647.017 460.733 646.842 461.189 646.667C461.697 646.457 462.1 646.282 462.503 646.107C479.732 638.72 487.883 628.724 486.743 616.401C486.217 610.677 483.851 605.355 479.715 600.611C479.399 600.244 479.172 599.999 478.926 599.736C478.733 599.526 478.576 599.351 478.4 599.176L478.12 598.878C474.685 595.395 470.128 592.139 464.572 589.181L464.414 589.093C463.835 588.796 463.275 588.498 462.679 588.218C455.983 584.874 447.851 581.934 438.491 579.465L438.264 579.413C437.633 579.238 437.037 579.08 436.406 578.923C427.607 576.682 417.599 574.827 406.68 573.391L405.576 573.251L404.506 573.111C389.959 571.291 376.936 570.625 368.558 570.38L366.297 570.328C365.772 570.328 365.316 570.328 364.965 570.328H364.405V568.577C364.79 568.577 365.421 568.577 366.333 568.577H367.069C367.542 568.56 368.05 568.542 368.611 568.525C375.85 568.332 390.467 567.562 407.013 564.621C407.819 564.481 408.643 564.324 409.449 564.166C423.05 561.61 435.074 558.039 445.169 553.541L445.362 553.471C446.203 553.103 447.062 552.683 447.886 552.298L448.079 552.21C470.566 541.392 482.116 525.953 482.449 506.312C482.607 496.895 480.065 488.23 474.877 480.58C474.422 479.897 473.931 479.215 473.405 478.549C467.867 471.197 459.699 464.703 449.095 459.206C448.464 458.874 447.833 458.559 447.185 458.261C444.959 457.141 442.523 456.021 439.736 454.865C432.164 451.749 423.716 449.036 414.62 446.813C413.831 446.62 413.182 446.463 412.534 446.305L412.043 446.183C411.079 445.955 410.115 445.745 409.151 445.518C405.365 444.695 401.457 443.925 397.513 443.259H397.355C397.057 443.189 396.742 443.137 396.426 443.084L395.41 442.944C386.769 441.526 379.338 440.756 374.623 440.336V438.586C379.846 438.2 388.013 437.413 397.408 435.82L399.844 435.4C406.031 434.262 411.955 432.932 417.441 431.426L417.704 431.356C418.458 431.146 419.212 430.953 419.965 430.708C438.684 425.334 453.915 417.755 465.22 408.179C466.377 407.217 467.516 406.201 468.603 405.169C472.669 401.3 476.139 397.134 478.961 392.775C479.101 392.565 479.207 392.39 479.329 392.197C479.487 391.97 479.592 391.795 479.697 391.62C481.468 388.767 482.993 385.808 484.254 382.762C489.775 369.459 488.128 356.33 479.364 343.779C479.172 343.499 479.014 343.254 478.839 343.009L478.278 342.256C471.845 333.643 462.328 325.731 450.007 318.764C413.358 298.021 361.004 290.144 319.746 299.141C264.202 311.325 216.652 356.82 215.915 398.517C215.425 426.472 236.299 447.268 274.701 457.106L275.367 457.281C293.543 461.867 315.609 464.055 341.041 463.775L341.076 465.526C340.953 465.526 327.878 465.911 310.684 468.589C277.505 473.771 221.927 488.772 222.646 531.169C223.277 568.892 266.095 583.597 301.921 589.286C319.009 591.999 333.487 592.454 338.92 592.524C339.376 592.542 339.726 592.542 340.024 592.542H340.673V594.292C340.515 594.292 340.305 594.292 340.077 594.292C339.709 594.292 339.341 594.292 338.92 594.31C335.292 594.38 329.473 594.555 322.164 595.027C292 596.97 221.559 605.215 218.334 639.647C217.773 645.757 219.561 651.341 223.662 656.225C237.474 672.662 274.403 678.946 302.955 681.309C303.866 681.397 304.76 681.467 305.654 681.537L307.845 681.694C313.716 682.114 319.57 682.395 324.811 682.535C325.495 682.57 326.143 682.587 326.756 682.605H327.054C333.645 682.762 337.781 682.692 337.816 682.692L337.851 684.443C337.728 684.443 333.522 684.513 326.897 684.915C326.318 684.95 325.775 684.985 325.197 685.02L324.548 685.055C324.005 685.09 323.461 685.125 322.883 685.16L319.605 685.388C319.185 685.423 318.747 685.458 318.308 685.493C314.488 685.791 310.579 686.158 306.741 686.561C306.355 686.596 305.969 686.631 305.601 686.683C305.146 686.718 304.795 686.753 304.392 686.806C272.247 690.359 218.352 700.39 218.352 727.575C218.369 727.732 221.629 750.979 304.48 752.414C309.089 752.484 313.804 752.502 318.484 752.449H318.606Z" fill="#070600"/>
<path d="M274.491 329.951C274.491 329.951 227.133 352.69 227.133 393.984L274.491 329.951Z" fill="#EA8BF3"/>
<path d="M227.133 394.859C226.642 394.859 226.256 394.474 226.256 393.984C226.256 352.619 273.649 329.39 274.123 329.163C274.561 328.953 275.087 329.128 275.297 329.565C275.507 330.003 275.332 330.528 274.894 330.738C274.421 330.966 228.027 353.722 228.027 393.984C228.027 394.474 227.641 394.859 227.15 394.859H227.133Z" fill="#070600"/>
<path d="M248.446 647.805C248.446 647.805 277.436 672.557 324.566 673.204L248.446 647.805Z" fill="#EA8BF3"/>
<path d="M324.566 674.08C277.663 673.433 248.183 648.716 247.885 648.47C247.517 648.155 247.482 647.595 247.797 647.228C248.113 646.86 248.673 646.825 249.042 647.14C249.322 647.385 278.364 671.7 324.601 672.33C325.091 672.33 325.477 672.732 325.459 673.222C325.459 673.695 325.056 674.08 324.583 674.08H324.566Z" fill="#070600"/>
<path d="M438.772 466.82C438.772 466.82 460.225 473.962 466.658 492.535L438.772 466.82Z" fill="#EA8BF3"/>
<path d="M466.657 493.411C466.289 493.411 465.956 493.183 465.834 492.816C459.611 474.873 438.719 467.731 438.509 467.644C438.053 467.486 437.808 466.996 437.948 466.541C438.106 466.086 438.597 465.841 439.052 465.981C439.946 466.278 460.979 473.473 467.481 492.238C467.639 492.693 467.393 493.201 466.938 493.358C466.85 493.393 466.745 493.411 466.657 493.411Z" fill="#070600"/>
<path d="M409.028 791.645H229.236L224.276 868.264H739.466L409.028 791.645Z" fill="#070600"/>
<path d="M734.348 868.262L409.029 791.643V102.631H734.348V868.262Z" fill="#EEF0F2"/>
<path d="M735.224 869.365L734.138 869.103L408.135 792.326V101.756H735.207V869.365H735.224ZM409.905 790.961L733.472 867.16V103.506H409.905V790.943V790.961Z" fill="#070600"/>
<path d="M117.011 419.961C121.252 417.773 125.564 416.215 129.806 415.217L202.175 445.133L203.367 447.443C201.404 443.645 195.181 442.945 189.468 445.885L92.1575 495.985C86.4437 498.925 83.429 504.387 85.392 508.186L84.2002 505.875L99.6766 434.017C103.883 428.626 109.79 423.689 117.011 419.978V419.961Z" fill="white"/>
<path d="M202.823 444.398L130.454 414.482C130.279 414.412 130.051 414.394 129.805 414.447C125.318 415.497 120.884 417.142 116.66 419.33C109.474 423.024 103.322 428.013 98.8351 433.755C98.7475 433.877 98.6774 434 98.6598 434.122L83.1835 505.98C83.1484 506.12 83.1835 506.243 83.2185 506.348L84.4104 508.658C84.5856 509.008 85.164 509.078 85.6898 508.798C86.2156 508.536 86.4961 508.028 86.3208 507.678C84.533 504.229 87.3023 499.258 92.4728 496.597L189.783 446.498C194.953 443.837 200.615 444.468 202.402 447.916C202.578 448.266 203.156 448.336 203.682 448.056C204.208 447.776 204.488 447.286 204.313 446.936L203.121 444.625C203.068 444.52 202.963 444.433 202.841 444.38L202.823 444.398ZM100.623 434.07C104.847 428.713 110.613 424.057 117.344 420.591C121.235 418.595 125.301 417.072 129.42 416.057L195.409 443.347C193.394 443.557 191.238 444.187 189.152 445.255L91.8418 495.354C89.7035 496.457 87.8982 497.893 86.5487 499.468L100.623 434.07Z" fill="black"/>
<path d="M109.089 406.779C109.317 406.797 109.562 406.849 109.772 406.937L129.788 415.217C125.547 416.215 121.235 417.773 116.993 419.961C109.772 423.689 103.866 428.608 99.6592 434L104.952 409.44C104.97 409.335 105.005 409.213 105.04 409.108C105.11 409.003 105.145 408.88 105.215 408.775C105.899 407.515 107.669 406.604 109.089 406.762V406.779Z" fill="black"/>
<path d="M130.472 414.482L110.438 406.202C110.175 406.097 109.86 406.027 109.527 405.992C108.598 405.887 107.529 406.114 106.547 406.622C105.548 407.13 104.759 407.882 104.374 408.6C104.286 408.74 104.216 408.863 104.146 409.02C104.111 409.073 104.093 409.143 104.076 409.195C104.041 409.335 103.988 409.475 103.971 409.58L98.695 434.14C98.6249 434.507 98.8703 434.788 99.2909 434.805C99.7116 434.84 100.22 434.595 100.483 434.245C104.724 428.818 110.543 424.092 117.344 420.591C121.34 418.525 125.529 416.968 129.788 415.97C130.209 415.865 130.594 415.585 130.752 415.252C130.84 415.059 130.84 414.867 130.752 414.727C130.699 414.622 130.594 414.534 130.472 414.482ZM105.951 409.3C105.951 409.3 105.986 409.195 106.004 409.125C106.056 409.02 106.126 408.898 106.126 408.88C106.337 408.478 106.722 408.127 107.213 407.865C107.704 407.62 108.212 407.497 108.668 407.55C108.843 407.567 109.001 407.602 109.124 407.655L127.194 415.129C123.618 416.162 120.096 417.563 116.695 419.313C110.736 422.377 105.495 426.333 101.324 430.866L105.969 409.283L105.951 409.3Z" fill="black"/>
<path d="M92.1573 495.986L189.467 445.887C195.181 442.946 201.403 443.647 203.366 447.445L340.936 714.028C343.197 718.404 339.709 724.671 333.154 728.032L238.894 776.556C232.356 779.917 225.205 779.129 222.962 774.753L85.3919 508.17C83.4288 504.371 86.4435 498.91 92.1573 495.969V495.986Z" fill="#EA8BF3"/>
<path d="M230.831 779.059C227.098 779.059 223.961 777.641 222.576 774.945L85.0062 508.362C83.9896 506.384 84.1649 503.968 85.5144 501.535C86.829 499.154 89.125 497.036 91.9644 495.583L189.275 445.484C195.181 442.438 201.684 443.226 203.752 447.235L341.322 713.818C343.688 718.386 340.112 724.933 333.364 728.417L239.104 776.94C236.335 778.376 233.443 779.059 230.849 779.059H230.831ZM196.531 444.504C194.392 444.504 191.991 445.082 189.66 446.272L92.35 496.371C89.6684 497.754 87.5125 499.732 86.2681 501.973C85.0587 504.143 84.8835 506.279 85.7598 507.977L223.33 774.56C225.468 778.708 232.356 779.426 238.666 776.17L332.926 727.647C339.253 724.391 342.654 718.369 340.515 714.22L202.946 447.637C201.876 445.572 199.44 444.486 196.513 444.486L196.531 444.504Z" fill="#070600"/>
<path d="M189.134 445.256L91.8242 495.355C85.6196 498.558 82.2895 504.528 84.4278 508.676L221.998 775.259C224.434 779.968 232.146 780.843 239.209 777.202L333.47 728.678C340.533 725.037 344.301 718.263 341.865 713.554L204.295 446.971C202.157 442.823 195.356 442.07 189.134 445.273V445.256ZM86.3382 507.679C84.5504 504.23 87.3197 499.259 92.4902 496.598L189.8 446.499C194.971 443.838 200.632 444.468 202.42 447.917L339.99 714.5C342.058 718.508 338.85 724.285 332.839 727.383L238.578 775.907C232.566 779.005 225.994 778.253 223.908 774.244L86.3382 507.661V507.679Z" fill="black"/>
<path d="M371.836 771.583L372.362 772.598C374.501 776.729 371.17 782.698 364.948 785.902L363.423 786.689C362.898 786.952 362.337 786.9 362.144 786.549C361.969 786.199 362.249 785.692 362.775 785.429C368.787 782.331 371.994 776.554 369.926 772.545C369.751 772.195 370.031 771.688 370.557 771.425C371.083 771.163 371.644 771.215 371.836 771.565V771.583Z" fill="black"/>
<path d="M269.794 834.11C269.969 834.461 269.689 834.968 269.163 835.231L267.621 836.019C261.416 839.222 254.616 838.452 252.477 834.321L251.952 833.305C251.776 832.955 252.057 832.447 252.583 832.185C253.108 831.922 253.669 831.975 253.862 832.325C255.93 836.334 262.503 837.069 268.515 833.97C269.04 833.708 269.601 833.76 269.794 834.11Z" fill="black"/>
<path d="M340.936 714.025L370.89 772.072C373.133 776.431 369.645 782.697 363.108 786.076L268.847 834.6C262.31 837.96 255.159 837.173 252.915 832.814L222.961 774.768C225.222 779.144 232.356 779.932 238.894 776.571L333.154 728.047C339.692 724.686 343.179 718.402 340.936 714.043V714.025Z" fill="#EEF0F2"/>
<path d="M340.603 713.395C340.077 713.658 339.797 714.166 339.972 714.516C342.04 718.524 338.833 724.301 332.821 727.399L238.56 775.923C232.549 779.021 225.976 778.269 223.89 774.26C223.715 773.91 223.137 773.84 222.611 774.12C222.085 774.4 221.805 774.89 221.98 775.24L251.934 833.287C254.352 837.996 262.082 838.853 269.145 835.212L363.406 786.689C370.469 783.048 374.237 776.273 371.819 771.564L341.865 713.518C341.69 713.168 341.111 713.098 340.585 713.378L340.603 713.395ZM226.221 778.741C229.744 780.019 234.617 779.564 239.227 777.201L333.487 728.677C338.097 726.314 341.304 722.585 342.285 718.997L369.943 772.58C372.011 776.588 368.804 782.365 362.792 785.463L268.532 833.987C262.52 837.085 255.947 836.35 253.879 832.342L226.221 778.759V778.741Z" fill="#070600"/>
<path d="M245.098 787.809L264.956 826.285C265.132 826.635 264.851 827.143 264.326 827.406C263.8 827.668 263.239 827.616 263.046 827.266L243.188 788.79C243.013 788.44 243.293 787.932 243.819 787.669C244.345 787.407 244.906 787.459 245.098 787.809Z" fill="black"/>
<path d="M337.08 744.729L353.801 777.131C353.976 777.481 353.696 777.989 353.17 778.251C352.644 778.514 352.083 778.461 351.891 778.111L335.17 745.71C334.995 745.359 335.275 744.852 335.801 744.589C336.327 744.327 336.888 744.379 337.08 744.729Z" fill="black"/>
<path d="M264.045 807.1L273.107 824.658C273.282 825.008 273.001 825.516 272.476 825.778C271.95 826.041 271.389 825.988 271.196 825.638L262.135 808.081C261.959 807.731 262.24 807.223 262.766 806.96C263.291 806.698 263.852 806.75 264.045 807.1Z" fill="black"/>
<path d="M247.727 780.475L254.352 793.307C254.528 793.657 254.247 794.164 253.721 794.427C253.196 794.689 252.635 794.637 252.442 794.287L245.817 781.456C245.642 781.106 245.922 780.598 246.448 780.335C246.974 780.073 247.534 780.125 247.727 780.475Z" fill="black"/>
<path d="M177.006 443.086C177.128 443.313 177.058 443.611 176.795 443.891C176.427 444.294 175.796 444.486 175.376 444.311L129.034 424.356C128.631 424.18 128.596 423.708 128.964 423.305C129.332 422.903 129.963 422.71 130.384 422.885L176.725 442.841C176.848 442.893 176.953 442.981 177.006 443.086Z" fill="black"/>
<path d="M111.502 486.258L110.721 486.654L253.807 767.728L254.588 767.332L111.502 486.258Z" fill="black"/>
<path d="M139.264 472.238L138.483 472.635L281.569 753.709L282.35 753.312L139.264 472.238Z" fill="black"/>
<path d="M172.87 455.566L172.088 455.963L315.174 737.037L315.955 736.64L172.87 455.566Z" fill="black"/>
<path d="M288.092 215.52L343.635 361.196L272.983 331.122L289.371 489.034L214.338 392.88L131.155 526.478L158.269 363.174L88.5112 272.323L197.915 315.28L170.363 224.622L237.228 271.43L240.891 216.552L276.682 265.706L288.092 215.52Z" fill="#EEF0F2"/>
<path d="M288.092 215.52L343.635 361.196L272.983 331.122L289.371 489.034L214.338 392.88L131.155 526.478L158.269 363.174L88.5112 272.323L197.915 315.28L170.363 224.622L237.228 271.43L240.891 216.552L276.682 265.706L288.092 215.52Z" fill="#EEF0F2"/>
<path d="M288.092 215.52L343.635 361.196L272.983 331.122L289.371 489.034L214.338 392.88L131.155 526.478L158.269 363.174L88.5112 272.323L197.915 315.28L170.363 224.622L237.228 271.43L240.891 216.552L276.682 265.706L288.092 215.52Z" fill="#EEF0F2"/>
<path d="M129.577 530.68L157.34 363.402L85.8823 270.346L196.548 313.793L168.785 222.435L236.457 269.803L240.173 214.068L276.261 263.607L287.881 212.475L345.212 362.79L274.018 332.489L290.563 491.959L214.426 394.386L129.577 530.662V530.68ZM91.1229 274.285L159.198 362.947L159.128 363.315L132.732 522.26L214.25 391.34L288.162 486.077L271.949 329.723L342.075 359.586L288.285 218.531L277.102 267.773L241.593 219.021L238 273.024L171.94 226.776L199.265 316.752L197.582 316.086L91.1054 274.285H91.1229Z" fill="#070600"/>
<path d="M438.772 111.838L374.903 254.084L346.246 182.909L246.027 306.143L261.048 185.167L107.651 220.894L242.434 124.565L257.419 11.0449L304.374 118.7L349.086 35.1317L363.23 115.444L404.664 79.2267L395.182 139.269L438.772 111.838Z" fill="#EEF0F2"/>
<path d="M244.783 309.049L260.031 186.287L103.55 222.732L241.61 124.057L256.964 7.78906L304.445 116.67L349.507 32.471L363.809 113.747L405.891 76.9686L396.321 137.483L440.735 109.528L374.851 256.289L345.966 184.589L244.765 309.032L244.783 309.049ZM262.082 184.029L247.289 303.22L346.527 181.211L374.974 251.843L436.809 114.114L394.043 141.037L403.455 81.4849L362.67 117.142L348.701 37.7925L304.322 120.713L257.91 14.3009L243.275 125.072L242.96 125.3L111.752 219.056L262.082 184.046V184.029Z" fill="#070600"/>
<path d="M468.953 516.815C488.149 516.815 503.71 501.274 503.71 482.103C503.71 462.932 488.149 447.391 468.953 447.391C449.758 447.391 434.197 462.932 434.197 482.103C434.197 501.274 449.758 516.815 468.953 516.815Z" fill="#070600"/>
<path d="M474.001 457.77C480.977 460.71 486.726 465.139 489.337 472.439C491.686 479.003 492.264 491.379 484.657 494.81" fill="#070600"/>
<path d="M485.008 495.616L484.289 494.023C491.475 490.784 490.582 478.566 488.513 472.737C486.27 466.47 481.415 461.831 473.668 458.575L474.352 456.965C482.589 460.431 487.76 465.402 490.161 472.159C492.79 479.511 492.948 492.045 485.008 495.616Z" fill="#EEF0F2"/>
<path d="M196.531 867.826C264 867.826 318.694 813.2 318.694 745.816C318.694 678.432 264 623.807 196.531 623.807C129.062 623.807 74.3672 678.432 74.3672 745.816C74.3672 813.2 129.062 867.826 196.531 867.826Z" fill="#EEF0F2"/>
<path d="M196.706 868.666C156.534 868.666 117.133 849.095 93.5594 813.088C56.4196 756.389 72.3868 680.085 129.157 642.992C185.927 605.899 262.327 621.846 299.467 678.545C336.607 735.243 320.64 811.547 263.87 848.64C243.153 862.189 219.789 868.649 196.706 868.649V868.666ZM196.338 624.735C173.57 624.735 150.557 631.106 130.121 644.463C74.157 681.03 58.4177 756.249 95.0317 812.143C131.646 868.036 206.959 883.755 262.923 847.187C318.887 810.62 334.626 735.401 298.012 679.507C274.772 644.025 235.914 624.735 196.32 624.735H196.338Z" fill="#070600"/>
<path d="M163.475 653.078C164.201 652.961 164.691 652.255 164.569 651.501C164.447 650.747 163.759 650.231 163.033 650.348C162.307 650.465 161.817 651.172 161.939 651.926C162.061 652.68 162.749 653.196 163.475 653.078Z" fill="black"/>
<path d="M171.034 651.856C171.76 651.738 172.25 651.032 172.128 650.278C172.006 649.524 171.318 649.008 170.592 649.125C169.866 649.243 169.376 649.949 169.498 650.703C169.62 651.457 170.308 651.973 171.034 651.856Z" fill="black"/>
<path d="M167.208 666.326C161.512 666.326 155.781 662.79 154.571 655.281C154.501 654.808 154.817 654.353 155.29 654.283C155.746 654.196 156.219 654.528 156.289 655.001C157.533 662.703 163.826 665.276 169.119 664.418C174.429 663.561 179.565 659.132 178.32 651.43C178.25 650.957 178.566 650.502 179.039 650.432C179.512 650.344 179.968 650.677 180.038 651.15C181.423 659.64 175.726 665.119 169.382 666.151C168.663 666.274 167.927 666.326 167.191 666.326H167.208Z" fill="black"/>
<path d="M125.388 278.959C158.833 278.959 185.944 251.882 185.944 218.48C185.944 185.078 158.833 158 125.388 158C91.9443 158 64.8325 185.078 64.8325 218.48C64.8325 251.882 91.9443 278.959 125.388 278.959Z" fill="#EA8BF3"/>
<path d="M125.318 279.816C117.536 279.816 109.649 278.328 102.025 275.195C86.8465 268.963 75.0157 257.2 68.706 242.058C62.3963 226.934 62.3612 210.251 68.6008 195.092C74.8405 179.933 86.6186 168.117 101.78 161.815C116.923 155.513 133.626 155.478 148.805 161.71C163.983 167.942 175.814 179.705 182.123 194.847C188.433 209.971 188.468 226.654 182.229 241.813C172.466 265.48 149.506 279.816 125.336 279.816H125.318ZM125.388 158.839C117.606 158.839 109.824 160.38 102.428 163.461C87.7228 169.587 76.2777 181.071 70.1958 195.792C64.1314 210.514 64.1665 226.724 70.301 241.41C76.4354 256.097 87.9332 267.528 102.673 273.602C133.1 286.118 168.049 271.554 180.581 241.165C186.645 226.444 186.61 210.234 180.476 195.547C174.341 180.861 162.844 169.43 148.104 163.356C140.777 160.345 133.083 158.839 125.388 158.839Z" fill="#070600"/>
<path d="M132.795 175.61C132.947 175.213 132.762 174.773 132.383 174.628C132.003 174.483 131.572 174.688 131.42 175.085C131.268 175.483 131.452 175.922 131.832 176.067C132.212 176.212 132.643 176.007 132.795 175.61Z" fill="black"/>
<path d="M136.802 177.133C136.954 176.736 136.77 176.296 136.39 176.152C136.01 176.007 135.579 176.211 135.427 176.609C135.275 177.006 135.46 177.446 135.84 177.591C136.219 177.735 136.65 177.531 136.802 177.133Z" fill="black"/>
<path d="M133.749 184.886C132.768 184.886 131.786 184.694 130.892 184.361C127.369 183.013 124.74 179.18 126.545 174.471C126.721 174.016 127.229 173.788 127.685 173.963C128.14 174.138 128.368 174.646 128.193 175.101C126.738 178.917 128.894 181.736 131.523 182.733C134.152 183.731 137.64 183.083 139.095 179.267C139.27 178.812 139.778 178.585 140.234 178.76C140.69 178.935 140.918 179.442 140.742 179.897C139.41 183.398 136.571 184.904 133.767 184.904L133.749 184.886Z" fill="black"/>
<path d="M209.255 76.1113V868.263H227.887V103.629H727.372V868.263H746.021V76.1113H209.255Z" fill="#EEF0F2"/>
<path d="M746.915 869.138H726.513V104.505H228.763V869.138H208.379V75.2363H746.897V869.138H746.915ZM728.266 867.388H745.162V76.9868H210.132V867.388H227.01V102.754H728.248V867.388H728.266Z" fill="#070600"/>
</svg>
