<svg width="307" height="311" viewBox="0 0 307 311" fill="none" xmlns="http://www.w3.org/2000/svg">
<path d="M156.06 310.994H150.934C109.227 310.994 71.4792 294.098 44.1462 266.793C17.9055 240.562 1.27231 204.716 0 165L307 165.019C304.387 246.082 237.811 311 156.066 311L156.06 310.994Z" fill="#0E8C80"/>
<path d="M230.089 134.91L300.073 100.781L285.063 70.0148L215.413 103.971L263.127 42.9277L236.137 21.8503L188.429 82.8999L204.54 7.11648L171.045 0L154.934 75.7773L136.182 0.612104L102.959 8.89097L121.704 84.0623L71.8937 24.7191L45.6588 46.7239L95.4693 106.067L24.6807 74.5592L10.7531 105.832L76.0745 134.91H1V156H307V134.91H230.089Z" fill="#0E8C80"/>
</svg>
