<svg width="316" height="314" viewBox="0 0 316 314" fill="none" xmlns="http://www.w3.org/2000/svg">
<g clip-path="url(#clip0_3818_1465)">
<path d="M159.207 0H154.011C69.5218 0 1.02856 67.7591 1.02856 151.339V156.476H154.011H312.189V151.339C312.189 67.7591 243.696 0 159.207 0Z" fill="#DBFF8F"/>
<path d="M78.8978 314.007C122.472 314.007 157.796 278.677 157.796 235.096C157.796 191.515 122.472 156.186 78.8978 156.186C35.3237 156.186 0 191.515 0 235.096C0 278.677 35.3237 314.007 78.8978 314.007Z" fill="#DBFF8F"/>
<path d="M237.102 314.007C280.676 314.007 316 278.677 316 235.096C316 191.515 280.676 156.186 237.102 156.186C193.528 156.186 158.204 191.515 158.204 235.096C158.204 278.677 193.528 314.007 237.102 314.007Z" fill="#DBFF8F"/>
</g>
<defs>
<clipPath id="clip0_3818_1465">
<rect width="316" height="314" fill="white"/>
</clipPath>
</defs>
</svg>
