<svg width="1104" height="1461" viewBox="0 0 1104 1461" fill="none" xmlns="http://www.w3.org/2000/svg">
<g clip-path="url(#clip0_18_214)">
<path d="M487.257 926.079C481.11 924.946 475.035 923.728 469.031 922.423C448.579 918.052 428.86 912.889 409.305 907.13C379.313 898.256 349.975 887.914 320.856 875.881C291.76 863.827 262.927 850.061 234.19 833.456C219.823 825.131 205.491 816.091 191.17 805.932C176.871 795.774 162.581 784.519 148.47 771.459C134.384 758.356 120.387 743.442 107.239 725.413C105.625 723.183 103.999 720.751 102.391 718.388C100.807 716.003 99.1967 713.706 97.6642 711.189L93.072 703.526L90.8228 699.653L88.5912 695.422C87.0975 692.571 85.6709 689.723 84.2666 686.877C82.8443 683.94 81.461 680.669 80.138 677.535C77.3581 671.261 75.1711 664.77 73.0299 658.259C64.7364 632.161 61.9214 604.408 64.6105 577.196C64.8528 575.014 65.1621 572.834 65.4714 570.655C65.6427 569.454 65.8152 568.23 66.0088 567.031C66.5565 563.654 66.9925 560.271 67.8071 556.93C69.3246 550.241 70.774 543.572 72.9762 537.074C74.0109 533.811 75.0903 530.549 76.1908 527.312C77.3785 524.123 78.6992 520.963 79.9997 517.758L82.0019 513.042C82.6834 511.485 83.3716 509.795 84.0634 508.485L88.2604 500.138C99.684 478.33 112.842 460.84 126.272 445.558C138.863 431.377 151.745 419.025 164.642 408.174C165.552 407.435 166.464 406.651 167.374 405.912C172.911 401.259 178.425 397.075 183.83 393.289L183.682 393.102L252.844 344.811L256.851 366.128C257.328 366.442 257.779 366.823 258.139 367.244C258.352 367.456 258.519 367.711 258.664 367.942L264.741 377.738L343.627 504.568L349.376 507.406L355.586 528.541L282.66 581.416C282.258 581.844 281.88 582.251 281.523 582.681C276.686 588.108 273.352 593.05 271.986 595.759C271.814 596.064 271.665 596.37 271.472 596.652C271.305 596.845 271.465 596.786 271.463 596.831C271.463 596.831 271.463 596.831 271.461 596.875C271.461 596.875 271.371 596.871 271.347 596.915C271.389 596.961 271.409 597.007 271.386 597.029C271.207 597.02 271.446 597.166 271.29 597.158C271.178 597.153 271.331 597.227 271.286 597.248C271.286 597.248 271.216 597.289 271.215 597.311C271.339 597.519 271.193 597.758 271.317 597.966C271.429 597.971 271.266 598.098 271.422 598.105C271.465 598.152 271.333 598.101 271.415 598.262C271.561 598.47 271.684 598.701 271.807 598.931C271.845 599.067 271.906 599.182 271.944 599.318L272.364 599.899C272.612 600.314 272.839 600.706 273.063 601.143L275.066 604.108C278.235 608.408 283.07 613.888 289.237 619.59C301.589 631.085 318.814 643.202 337.886 654.201C357 665.246 378.103 675.472 400.091 684.554C413.477 690.076 427.195 695.233 441.069 699.951C449.988 702.99 458.96 705.852 467.942 708.513L487.256 926.101L487.257 926.079Z" fill="#EA8BF3"/>
<path d="M62.8915 587.056C63.055 583.749 63.309 580.425 63.6288 577.126C63.8722 574.921 64.1826 572.719 64.4919 570.54C64.6632 569.339 64.8357 568.115 65.0294 566.916L65.3621 564.715C65.7605 562.092 66.1857 559.381 66.8332 556.703L67.1752 555.219C68.5512 549.129 69.983 542.817 72.0291 536.759C73.0626 533.518 74.143 530.234 75.2436 526.997C76.2518 524.269 77.3727 521.525 78.4658 518.892L81.609 511.478C82.1155 510.293 82.6475 509.043 83.1909 508.017L87.3869 499.692C97.427 480.503 109.551 463.096 125.543 444.896C137.447 431.487 150.386 418.891 164.031 407.405L166.785 405.145C171.784 400.958 177.046 396.895 182.43 393.063L182.284 392.854L253.626 343.036L257.866 365.529C258.297 365.864 258.682 366.219 258.999 366.615C259.212 366.827 259.399 367.128 259.588 367.383L344.404 503.801L350.284 506.712L356.819 528.983L283.312 582.278C283.074 582.557 282.695 582.964 282.338 583.394C277.407 588.928 274.211 593.787 272.969 596.256C272.822 596.518 272.697 596.78 272.551 597.02L272.569 598.006C272.652 598.144 272.734 598.305 272.836 598.489L272.975 598.855L273.288 599.318C273.578 599.803 273.826 600.218 274.072 600.678L276.011 603.573C279.474 608.269 284.444 613.71 290.011 618.868C302.064 630.079 318.807 641.993 338.466 653.334C357.122 664.133 378.025 674.326 400.541 683.614C413.927 689.136 427.689 694.295 441.453 698.985C450.393 702.047 459.409 704.912 468.281 707.545L468.964 707.758L488.467 927.416L487.113 927.17C481.056 926.041 474.914 924.82 468.865 923.513C449.742 919.432 430.174 914.41 409.052 908.193C378.53 899.159 349.567 888.925 320.514 876.918C289.003 863.871 260.603 849.969 233.739 834.442C218.282 825.504 204.174 816.475 190.631 806.869C174.839 795.652 160.843 784.345 147.823 772.324C131.746 757.375 118.207 742.26 106.465 726.115C105.313 724.512 104.143 722.82 102.996 721.106L100.325 717.166C99.1564 715.429 97.9884 713.691 96.8482 711.843L90.0078 700.285L87.7561 696.008C86.2625 693.157 84.8135 690.308 83.4114 687.417C81.9701 684.412 80.5253 681.026 79.2627 678.03C76.4235 671.596 74.1773 664.946 72.1144 658.662C64.8457 635.84 61.7152 611.297 62.9116 587.101L62.8915 587.056ZM185.318 393.542L184.459 394.149C178.821 398.125 173.305 402.354 168.073 406.731L165.319 408.991C151.767 420.393 138.899 432.925 127.066 446.247C111.192 464.32 99.1654 481.574 89.2 500.61L85.0041 508.936C84.4864 509.896 83.9788 511.102 83.4735 512.264L80.3538 519.657C79.283 522.292 78.1642 524.991 77.1806 527.675C76.0811 530.89 75.0253 534.13 73.9906 537.393C71.9712 543.363 70.5652 549.609 69.1914 555.655L68.8482 557.161C68.2275 559.75 67.8046 562.417 67.4084 564.995L67.0756 567.196C66.9054 568.375 66.7106 569.597 66.5392 570.798C66.23 572.977 65.8983 575.155 65.6795 577.317C62.997 604.395 65.8959 632.264 74.0529 657.952C76.0968 664.167 78.3005 670.771 81.1207 677.136C82.3843 680.11 83.808 683.473 85.2291 686.432C86.6334 689.279 88.06 692.126 89.5548 694.955L91.7864 699.186L98.5854 710.675C99.7043 712.5 100.852 714.191 101.999 715.905L104.671 719.845C105.818 721.536 106.967 723.206 108.097 724.807C119.777 740.837 133.21 755.835 149.179 770.711C162.112 782.683 176.043 793.942 191.771 805.089C205.272 814.648 219.314 823.651 234.705 832.564C261.504 848.043 289.818 861.895 321.24 874.915C350.227 886.897 379.124 897.105 409.579 906.136C430.634 912.35 450.159 917.347 469.238 921.404C474.821 922.62 480.497 923.752 486.089 924.79L466.964 709.272C458.291 706.693 449.473 703.883 440.731 700.898C426.923 696.206 413.117 691.022 399.71 685.477C377.107 676.14 356.138 665.921 337.395 655.073C317.606 643.635 300.711 631.625 288.551 620.318C282.899 615.067 277.821 609.531 274.254 604.696L272.231 601.684C271.965 601.178 271.738 600.787 271.51 600.417L270.991 599.585C270.912 599.38 270.894 599.289 270.853 599.198C270.853 599.198 270.749 599.036 270.623 598.873L269.995 597.991L270.275 597.758C270.275 597.758 270.278 597.691 270.28 597.669L270.086 597.502L270.191 597.194L269.893 596.888L270.479 596.357C270.479 596.357 270.554 596.204 270.602 596.139L270.603 596.117C270.603 596.117 270.673 596.053 270.674 596.031C270.819 595.814 270.966 595.553 271.091 595.29C272.382 592.734 275.699 587.702 280.751 581.994C281.13 581.565 281.509 581.136 281.911 580.708L354.375 528.145L348.511 508.147L342.917 505.362L342.75 505.108L257.787 368.481C257.662 368.296 257.536 368.111 257.409 367.97C257.072 367.55 256.728 367.242 256.294 366.974L255.925 366.732L252.13 346.567L185.148 393.354L185.273 393.54L185.318 393.542Z" fill="#070600"/>
<path d="M398.662 684.933C398.662 684.933 431.506 725.346 440.388 762.178C452.855 813.924 467.281 922.046 467.281 922.046L469.446 921.728L442.889 711.598L440.914 699.474L398.662 684.933Z" fill="#070600"/>
<path d="M102.992 582.61C103.575 570.814 105.359 559.189 108.338 547.848C116.006 518.217 135.136 488.189 165.216 458.614C190.901 433.233 220.497 412.995 249.12 393.404C255.794 388.851 262.075 384.549 268.338 380.155L268.945 381.014C262.682 385.407 256.379 389.709 249.727 394.262C221.151 413.812 191.601 434.029 165.964 459.345C136.002 488.792 116.97 518.645 109.356 548.1C103.949 568.682 102.507 590.156 105.035 611.937C116.514 711.27 211.303 775.999 266.775 805.751C331.764 840.498 405.043 866.539 478.712 881.066L478.505 882.086C404.746 867.555 331.358 841.463 266.282 806.668C210.635 776.817 115.523 711.848 104 612.043C102.854 602.155 102.512 592.306 102.992 582.61Z" fill="#070600"/>
<path d="M146.407 579.963C146.714 573.752 147.423 567.562 148.511 561.412C152.732 537.635 169.529 511.77 198.44 484.555C221.316 463 247.755 445.002 271.09 429.113C277.347 424.854 283.256 420.823 288.869 416.891L289.476 417.749C283.863 421.682 277.931 425.711 271.674 429.993C248.385 445.862 221.969 463.838 199.163 485.33C170.416 512.396 153.719 538.064 149.531 561.619C146.519 578.603 146.513 595.937 149.536 613.151C163.328 692.89 241.5 745.399 286.858 769.589C344.638 800.217 409.623 823.721 474.839 837.561L474.632 838.581C409.35 824.715 344.255 801.183 286.387 770.507C251.065 751.672 221.569 730.035 198.744 706.197C171.105 677.351 154.199 646.102 148.542 613.326C146.605 602.234 145.903 591.069 146.451 579.988L146.407 579.963Z" fill="#070600"/>
<path d="M188.617 576.34C188.638 575.916 188.66 575.469 188.681 575.044C190.083 552.113 212.829 527.304 231.661 510.543C251.525 492.847 274.527 477.344 292.99 464.887C298.919 460.903 304.503 457.125 309.397 453.694L310.004 454.553C305.11 457.984 299.526 461.761 293.596 465.768C275.134 478.203 252.177 493.708 232.361 511.339C205.565 535.186 190.814 557.256 189.728 575.141C188.903 587.754 190.399 600.974 194.036 614.367C209.326 671.515 263.886 710.673 306.939 733.451C357.512 759.96 414.247 780.928 470.965 794.101L470.735 795.12C413.929 781.92 357.106 760.925 306.467 734.39C263.217 711.513 208.42 672.165 193.037 614.654C189.494 601.623 188.003 588.762 188.613 576.407L188.617 576.34Z" fill="#070600"/>
<path d="M228.615 584.387C229.223 572.077 241.416 555.995 264.93 536.487C281.741 522.559 301.189 509.658 315.402 500.261C321.166 496.447 326.145 493.132 329.973 490.433L330.58 491.291C326.751 494.013 321.75 497.327 315.986 501.14C301.794 510.539 282.393 523.42 265.606 537.304C239.525 558.925 227.521 576.159 229.933 588.528C231.754 597.89 234.665 606.947 238.543 615.47C256.305 654.309 296.483 681.357 327.048 697.224C370.625 719.826 417.77 737.766 467.118 750.531L466.866 751.549C417.429 738.757 370.218 720.813 326.576 698.163C295.858 682.222 255.486 655.03 237.602 615.917C233.661 607.323 230.732 598.175 228.915 588.724C228.648 587.345 228.541 585.884 228.615 584.387Z" fill="#070600"/>
<path d="M128.298 286.853L93.7636 285.145C86.4592 284.784 80.81 278.57 81.1724 271.242L90.0298 92.1122C90.3911 84.8067 96.6045 79.1567 103.931 79.519L138.465 81.2266L128.298 286.853Z" fill="#070600"/>
<path d="M80.6575 271.239L89.5161 92.0869C89.8917 84.491 96.3618 78.6297 103.957 79.0053L139.005 80.7383L128.786 287.392L93.7382 285.659C86.1434 285.284 80.283 278.813 80.6586 271.217L80.6575 271.239ZM137.925 81.7375L103.905 80.0553C96.8907 79.7085 90.9128 85.1238 90.566 92.1388L81.7085 271.269C81.3616 278.284 86.7761 284.263 93.7901 284.609L127.81 286.292L137.925 81.7375Z" fill="#070600"/>
<path d="M356.368 528.581L245.966 349.421L329.628 296.808L130.33 286.953C121.708 286.527 115.062 279.188 115.489 270.564L124.112 96.1707C124.538 87.5471 131.876 80.9001 140.498 81.3265L172.575 82.9126C559.143 103.55 566.361 221.596 561.581 302.88C555.205 410.982 356.392 528.559 356.392 528.559L356.368 528.581Z" fill="#EEF0F2"/>
<path d="M114.46 270.536L123.084 96.1201C123.538 86.9379 131.368 79.8449 140.549 80.2989L172.626 81.885C360.338 91.9059 477.097 125.315 529.548 184.01C564.24 222.835 564.825 265.796 562.607 302.953C559.29 359.159 503.478 417.785 457.244 457.065C407.247 499.541 357.392 529.169 356.885 529.457L356.008 529.974L355.47 529.096L244.506 349.058L326.25 297.648L130.258 287.957C121.078 287.503 113.986 279.673 114.44 270.49L114.46 270.536ZM560.833 297.625C562.589 262.102 560.572 221.847 528.001 185.412C475.932 127.139 359.654 93.9549 172.522 83.9851L140.445 82.399C132.403 82.0013 125.557 88.2247 125.161 96.2451L116.537 270.639C116.14 278.682 122.362 285.529 130.381 285.925L332.984 295.943L247.404 349.761L356.729 527.165C371.087 518.469 554.49 405.527 560.552 302.851C560.637 301.131 560.745 299.39 560.833 297.625Z" fill="#070600"/>
<path d="M468.695 419.313C467.895 418.736 471.224 414.803 475.594 410.204C496.328 389.393 513.37 366.72 524.301 343.118C529.721 331.315 533.942 319.318 536.345 306.94C538.858 294.613 539.622 281.885 538.402 268.97C537.181 256.076 533.677 243.16 528.367 231.453C523.057 219.724 516.057 209.143 507.887 199.557C491.498 180.494 469.94 164.983 444.447 152.973C419.023 140.921 390.18 132.35 360.791 126.217C353.658 124.655 345.313 123.145 340.14 122.239L332.68 120.952L325.659 119.844C316.326 118.397 307.073 117.133 297.881 116.006C261.13 111.569 225.238 109.257 189.538 108.029C185.67 107.905 182.532 107.055 182.555 106.138C182.601 105.222 185.79 104.574 189.658 104.698C225.425 105.929 261.407 108.246 298.29 112.712C307.505 113.84 316.78 115.105 326.18 116.555L333.222 117.687L340.706 118.953C345.922 119.882 354.446 121.401 361.711 123.015C391.63 129.287 420.958 138.016 446.751 150.31C472.61 162.607 494.399 178.443 510.902 197.915C519.152 207.684 526.167 218.422 531.489 230.354C536.835 242.241 540.373 255.361 541.654 268.414C542.911 281.488 542.204 294.42 539.749 306.93C537.405 319.467 533.196 331.689 527.765 343.693C516.771 367.695 499.528 390.805 478.462 411.98C474.042 416.689 469.387 419.796 468.652 419.266L468.695 419.313Z" fill="black"/>
<path d="M181.795 106.123C181.911 103.778 188.4 103.874 189.697 103.916C229.577 105.283 265.14 107.915 298.396 111.934C307.767 113.069 317.152 114.362 326.308 115.777L340.856 118.176C345.252 118.954 354.375 120.569 361.883 122.24C394.861 129.156 423.538 138.367 447.099 149.61C473.658 162.256 495.322 178.332 511.509 197.407C520.14 207.621 527.121 218.604 532.221 230.032C537.648 242.102 541.18 255.356 542.441 268.341C543.682 281.28 543.037 294.327 540.526 307.08C538.306 318.907 534.372 330.985 528.488 344.02C517.918 367.125 501.283 390.176 479.039 412.546C476.391 415.372 469.969 421.168 468.239 419.918C467.98 419.726 467.837 419.45 467.785 419.134C467.714 418.324 468.19 416.847 474.995 409.637C496.813 387.738 513.152 365.254 523.579 342.769C529.401 330.09 533.32 318.302 535.57 306.768C538.114 294.262 538.81 281.554 537.616 269.02C536.426 256.398 532.988 243.507 527.658 231.754C522.609 220.643 515.769 209.98 507.303 200.044C491.38 181.519 470.117 165.933 444.122 153.651C420.974 142.675 392.89 133.694 360.643 126.949C353.266 125.33 344.544 123.756 340.015 122.972L325.556 120.578C316.422 119.163 307.081 117.873 297.8 116.742C264.656 112.729 229.248 110.127 189.524 108.767C188.228 108.703 181.728 108.382 181.797 106.079L181.795 106.123ZM541.374 287.66C541.689 281.293 541.534 274.903 540.932 268.513C539.686 255.685 536.19 242.613 530.823 230.679C525.783 219.389 518.885 208.544 510.339 198.424C494.301 179.513 472.786 163.579 446.446 151.034C422.995 139.841 394.427 130.679 361.583 123.792C354.096 122.123 344.973 120.508 340.6 119.731L326.074 117.334C316.941 115.919 307.578 114.627 298.229 113.493C264.996 109.476 229.5 106.847 189.664 105.482C186.423 105.367 184.318 105.823 183.584 106.167C184.304 106.561 186.358 107.133 189.599 107.248C229.368 108.61 264.82 111.214 298.009 115.229C307.313 116.361 316.676 117.653 325.809 119.067L340.291 121.463C344.842 122.248 353.565 123.821 360.964 125.441C393.344 132.216 421.538 141.225 444.796 152.251C470.989 164.61 492.424 180.339 508.496 199.028C517.069 209.059 523.991 219.86 529.1 231.109C534.489 243.044 537.986 256.094 539.19 268.874C540.377 281.564 539.697 294.408 537.123 307.069C534.866 318.737 530.898 330.612 525.024 343.423C514.522 366.083 498.086 388.719 476.151 410.724C471.946 415.152 470.319 417.266 469.71 418.244C471.227 417.468 474.454 415.142 477.929 411.439C500.056 389.174 516.595 366.275 527.088 343.346C532.921 330.443 536.827 318.476 539.019 306.759C540.273 300.416 541.059 294.027 541.377 287.593L541.374 287.66Z" fill="#EEF0F2"/>
<path d="M376.041 142.513C369.869 140.977 363.647 139.549 357.374 138.254C354.25 137.584 351.104 136.913 347.975 136.333L339.454 134.769L332.549 133.577L326.24 132.548C322.04 131.893 317.862 131.261 313.681 130.673C297.004 128.303 280.524 126.481 264.139 124.999C231.39 122.058 199.086 120.528 166.85 119.897C163.001 119.841 159.906 119.038 159.907 118.12C159.952 117.204 163.077 116.508 166.903 116.562C199.229 117.198 231.599 118.731 264.46 121.677C280.867 123.161 297.414 124.987 314.158 127.36C318.338 127.97 322.54 128.581 326.761 129.26L333.091 130.312L340.085 131.509L348.741 133.079C351.935 133.685 355.148 134.381 358.34 135.031C364.722 136.377 371.055 137.833 377.359 139.398C383.399 140.884 387.842 142.963 387.443 143.772C386.998 144.623 381.993 143.95 376.085 142.516L376.041 142.513Z" fill="black"/>
<path d="M159.1 118.125C159.216 115.779 165.62 115.782 166.896 115.801C201.749 116.494 233.687 118.163 264.497 120.918C282.153 122.507 298.43 124.365 314.241 126.602C318.42 127.212 322.622 127.823 326.843 128.502L340.167 130.751L348.823 132.321C351.262 132.8 353.678 133.3 356.117 133.802L358.444 134.275C364.672 135.591 371.093 137.051 377.508 138.644C382.11 139.768 387.39 141.686 388.1 143.177C388.24 143.497 388.246 143.834 388.098 144.117C387.85 144.598 387.108 146.017 375.845 143.288C369.275 141.664 363.186 140.265 357.202 139.029C354.055 138.358 350.931 137.688 347.802 137.108L332.376 134.352L326.067 133.324C321.868 132.668 317.711 132.037 313.531 131.45C297.743 129.213 281.555 127.36 264.033 125.777C233.357 123.028 201.553 121.366 166.789 120.677C165.514 120.659 159.076 120.43 159.079 118.101L159.1 118.125ZM386.075 143.368C384.792 142.588 381.655 141.268 377.12 140.148C370.728 138.555 364.328 137.097 358.124 135.782L355.796 135.309C353.38 134.808 350.964 134.308 348.547 133.83L332.919 131.065L326.588 130.035C322.39 129.357 318.188 128.746 314.008 128.136C298.22 125.9 281.965 124.043 264.354 122.456C233.566 119.702 201.695 118.036 166.864 117.344C163.508 117.29 161.4 117.813 160.777 118.185C161.302 118.435 163.421 119.055 166.844 119.113C201.652 119.803 233.501 121.468 264.2 124.218C281.767 125.803 297.976 127.657 313.787 129.895C317.967 130.482 322.147 131.092 326.368 131.771L339.582 133.992L348.125 135.556C351.275 136.16 354.423 136.808 357.569 137.479C363.554 138.716 369.688 140.116 376.258 141.74C381.502 143.007 384.708 143.39 386.098 143.347L386.075 143.368Z" fill="#EEF0F2"/>
<path d="M342.497 318.205C341.484 317.864 341.236 317.001 341.879 316.226C344.465 313.286 346.819 310.065 348.319 306.444C349.863 302.848 350.274 298.613 348.525 295.033C346.821 291.455 343.635 288.856 340.307 286.877C336.912 284.895 333.244 283.438 329.519 282.246C325.795 281.031 321.967 280.103 318.132 279.309L315.249 278.741L308.811 277.616C302.615 276.571 296.325 275.632 289.965 274.736C264.476 271.236 237.963 268.984 211.164 267.525C207.702 267.353 204.925 266.455 204.969 265.561C205.013 264.667 207.888 264.048 211.35 264.219C238.215 265.704 264.796 267.937 290.418 271.466C296.823 272.342 303.136 273.282 309.376 274.352L316.014 275.509L319.231 276.116C323.507 277.021 327.733 278.059 331.899 279.407C336.065 280.733 340.148 282.39 343.913 284.592C347.634 286.792 351.208 289.678 353.093 293.668C354.025 295.663 354.499 297.836 354.368 300.047C354.304 302.239 353.705 304.381 352.889 306.401C351.189 310.438 348.55 314.003 345.699 317.311C344.94 318.169 343.488 318.545 342.497 318.205Z" fill="black"/>
<path d="M204.188 265.522C204.305 263.154 210.674 263.402 211.389 263.437C240.912 265.054 266.814 267.432 290.523 270.687C297.64 271.666 303.864 272.601 309.504 273.574L319.38 275.361C324.322 276.39 328.368 277.441 332.158 278.681C336.92 280.193 340.911 281.913 344.326 283.941C349.025 286.726 352.142 289.814 353.825 293.368C354.836 295.546 355.278 297.942 355.17 300.131C355.137 302.145 354.606 304.291 353.634 306.729C352.136 310.306 349.884 313.733 346.321 317.857C345.372 318.952 343.601 319.446 342.279 319C341.531 318.739 341.017 318.266 340.847 317.631C340.675 317.017 340.842 316.354 341.318 315.795C344.332 312.361 346.34 309.325 347.635 306.231C349.278 302.438 349.36 298.523 347.854 295.47C346.454 292.534 343.872 289.965 339.933 287.643C336.952 285.905 333.574 284.461 329.299 283.063C325.927 281.978 322.234 281.034 318.001 280.153L315.118 279.585L308.68 278.46C302.572 277.442 296.238 276.479 289.855 275.603C265.944 272.338 240.199 269.968 211.121 268.396C209.938 268.337 204.071 267.89 204.183 265.611L204.188 265.522ZM353.59 299.919C353.689 297.93 353.274 295.894 352.383 293.991C350.842 290.735 347.939 287.859 343.523 285.245C340.193 283.288 336.313 281.618 331.661 280.134C327.937 278.92 323.935 277.893 319.059 276.868L315.842 276.261L309.226 275.106C303.608 274.156 297.408 273.2 290.312 272.244C266.647 268.991 240.812 266.616 211.312 265.001C208.385 264.856 206.506 265.278 205.885 265.606C206.471 265.993 208.277 266.598 211.202 266.765C240.324 268.339 266.115 270.712 290.047 273.978C296.43 274.854 302.787 275.817 308.916 276.859L318.282 278.554C322.582 279.439 326.341 280.409 329.757 281.518C334.142 282.944 337.629 284.438 340.698 286.225C344.918 288.718 347.714 291.499 349.234 294.732C350.921 298.197 350.838 302.605 349.041 306.793C347.671 310.04 345.587 313.229 342.457 316.77C342.338 316.898 342.286 317.052 342.303 317.165C342.342 317.279 342.493 317.398 342.735 317.478C343.44 317.714 344.553 317.388 345.098 316.788C348.542 312.793 350.721 309.497 352.143 306.096C353.037 303.855 353.515 301.886 353.562 300.029C353.565 299.985 353.566 299.962 353.568 299.918L353.59 299.919Z" fill="#EEF0F2"/>
<path d="M402.946 461.525C402.423 460.782 404.653 458.25 407.906 455.858L411.809 453.005L416.274 449.665L420.695 446.3L426.264 441.895C430.038 438.946 433.789 435.996 437.411 432.928C441.055 429.883 444.745 426.818 448.26 423.655C462.515 411.147 475.801 397.873 487.306 383.93C490.209 380.468 492.871 376.904 495.576 373.365C498.061 369.748 500.765 366.231 503.052 362.559C507.822 355.293 511.928 347.881 515.524 340.377C522.716 325.347 527.445 309.859 529.274 293.713C529.892 288.458 530.76 284.044 531.66 283.954C532.606 283.844 533.266 288.155 532.688 293.501C530.893 309.873 526.218 325.632 519.012 340.93C515.432 348.569 511.297 356.114 506.452 363.534C504.163 367.25 501.431 370.877 498.922 374.538C496.168 378.142 493.46 381.748 490.53 385.299C478.855 399.503 465.354 413.056 450.841 425.798C447.278 429.026 443.52 432.11 439.806 435.219C436.134 438.374 432.292 441.364 428.448 444.377L422.786 448.845L418.296 452.251L413.784 455.633L409.88 458.508C406.605 460.9 403.492 462.269 402.947 461.503L402.946 461.525Z" fill="black"/>
<path d="M402.11 461.214C402.208 459.248 406.119 456.217 407.467 455.231L415.812 449.037L420.233 445.672L425.801 441.289C429.412 438.467 433.279 435.433 436.948 432.322L437.696 431.687C441.036 428.896 444.516 426 447.774 423.071C462.848 409.841 475.935 396.513 486.748 383.431C489.056 380.679 491.236 377.808 493.365 375.047L495.017 372.889C495.837 371.698 496.705 370.464 497.593 369.254C499.252 366.939 500.961 364.538 502.445 362.148C506.998 355.206 511.073 347.973 514.892 340.032C522.209 324.739 526.809 309.133 528.562 293.61C529.763 283.367 530.933 283.246 531.631 283.168C531.97 283.118 532.299 283.246 532.578 283.506C533.796 284.686 533.961 289.487 533.535 293.587C531.78 309.603 527.158 325.633 519.779 341.281C515.95 349.423 511.844 356.835 507.169 363.972C505.612 366.492 503.83 369.002 502.12 371.448C501.277 372.639 500.458 373.807 499.638 374.999L497.818 377.372C495.71 380.157 493.508 383.027 491.199 385.802C480.143 399.274 466.749 412.923 451.416 426.386C448.416 429.104 445.216 431.768 442.111 434.347L440.359 435.805C436.665 438.96 432.774 442.015 428.978 444.985L423.315 449.453L410.386 459.138C407.947 460.921 404.789 462.735 403.235 462.479C402.768 462.411 402.49 462.151 402.364 461.966C402.197 461.734 402.142 461.485 402.156 461.194L402.11 461.214ZM531.689 285.165C531.281 286.175 530.664 288.697 530.076 293.797C528.293 309.475 523.639 325.258 516.247 340.704C512.402 348.71 508.302 356.01 503.724 362.995C502.216 365.429 500.485 367.829 498.824 370.166C497.958 371.377 497.092 372.588 496.247 373.823L494.572 376.002C492.442 378.786 490.24 381.656 487.93 384.431C477.092 397.578 463.912 410.969 448.791 424.241C445.51 427.191 442.03 430.087 438.689 432.901L437.942 433.513C434.273 436.624 430.404 439.68 426.772 442.502L416.781 450.272L408.414 456.465C405.694 458.48 404.222 460.177 403.803 460.94C404.64 460.779 406.698 459.918 409.462 457.905L422.344 448.262L427.984 443.793C431.757 440.845 435.648 437.79 439.319 434.656L441.07 433.198C444.153 430.618 447.352 427.977 450.33 425.257C465.616 411.837 478.94 398.23 489.948 384.844C492.233 382.09 494.413 379.219 496.52 376.457L498.316 374.105C499.112 372.957 499.954 371.767 500.797 370.577C502.506 368.153 504.264 365.664 505.798 363.165C510.449 356.071 514.53 348.703 518.311 340.626C525.615 325.132 530.207 309.256 531.93 293.44C532.352 289.43 532.053 286.414 531.688 285.187L531.689 285.165Z" fill="#EEF0F2"/>
<path d="M364.48 523.023C361.523 524.87 358.566 526.695 355.609 528.542L244.606 349.755L245.184 349.381C247.886 347.723 250.565 346.064 253.224 344.381C254.772 343.405 256.808 343.887 257.783 345.458L272.283 369.22L354.083 499.173L355.309 501.092L355.972 502.177L356.116 502.431L365.512 518.461L365.575 518.553C366.484 520.099 366.005 522.068 364.48 523.023Z" fill="black"/>
<path d="M355.333 501.07L354.105 499.173L354.217 499.179L355.333 501.07Z" fill="black"/>
<path d="M657.847 723.077C659.711 722.52 661.573 722.007 663.455 721.518C665.143 720.907 666.805 720.34 668.512 719.797C669.242 719.52 669.973 719.22 670.68 718.964L652.773 724.26C654.855 723.825 655.874 723.584 657.824 723.099L657.847 723.077ZM644.971 582.714C647.116 582.35 651.616 583.267 655.31 584.189C655.002 584.084 654.694 583.979 654.385 583.874C653.787 583.755 653.187 583.658 652.612 583.518C652.014 583.376 651.44 583.213 650.843 583.05L649.197 582.834C648.664 582.74 648.133 582.624 647.579 582.507C647.065 582.482 646.596 582.459 646.104 582.434C645.613 582.41 645.192 582.322 644.748 582.233C644.634 582.272 644.675 582.364 644.608 582.36C644.173 582.093 643.732 582.407 643.407 582.637C643.398 582.816 643.221 582.785 643.169 582.916C643.118 583.048 643.07 583.113 643.019 583.245C643.019 583.245 643.017 583.29 643.016 583.312C643.013 583.357 643.011 583.401 643.009 583.446C643.007 583.491 643.004 583.535 643.002 583.58L643.007 583.491C643.007 583.491 643.002 583.58 643 583.625L642.976 584.116C643.367 583.441 643.998 582.913 645.014 582.739L644.971 582.714Z" fill="#EA8BF3"/>
<path d="M642.144 586.449L642.42 583.574C642.42 583.574 642.428 583.417 642.479 583.285L642.487 583.129L642.666 582.69C642.717 582.558 642.811 582.473 642.881 582.409L642.885 582.32L643.095 582.151L643.661 581.127L643.627 581.819C643.879 581.697 644.196 581.623 644.528 581.707C644.528 581.707 644.528 581.707 644.55 581.708L644.687 581.67L644.821 581.677C645.264 581.766 645.664 581.83 646.132 581.876C646.445 581.891 646.757 581.907 647.07 581.922L647.584 581.948C648.204 582.09 648.737 582.184 649.269 582.277L650.893 582.492L651.578 582.683C651.953 582.791 652.329 582.899 652.706 582.962C653.282 583.103 653.859 583.199 654.458 583.318L654.986 583.501C655.14 583.553 655.294 583.605 655.449 583.658L655.149 584.74C650.083 583.482 646.681 583 645.055 583.278C644.309 583.421 643.776 583.775 643.387 584.405L642.12 586.47L642.144 586.449ZM652.622 723.692L670.529 718.397L670.879 719.466C670.423 719.645 669.921 719.822 669.441 720.022L668.711 720.3C667.187 720.784 665.638 721.312 663.631 722.042C661.566 722.589 659.75 723.104 658.001 723.6C656.006 724.084 654.987 724.324 652.904 724.781L652.622 723.692Z" fill="#070600"/>
<path d="M361.746 1350.43C382.676 1350.57 402.796 1348.99 422.204 1346.39L425.856 1345.89C427.118 1345.73 428.221 1345.61 429.645 1345.34L437.73 1343.95L445.797 1342.49L449.843 1341.73L453.966 1340.77C459.494 1339.45 464.979 1338.13 470.469 1336.68C476.083 1335.01 481.657 1333.22 487.232 1331.44C509.648 1323.7 532.466 1312.82 553.725 1298.18C574.999 1283.64 594.399 1265.36 610.101 1245.33C625.892 1225.33 638.062 1203.83 647.235 1182.69C656.434 1161.49 662.819 1140.6 667.49 1120.4C672.071 1100.23 674.917 1080.71 676.816 1061.76C678.695 1042.8 679.628 1024.37 679.796 1006.48C679.966 988.551 679.625 970.999 678.771 953.846C678.397 946.012 677.931 938.24 677.373 930.508C688.413 928.68 698.832 926.284 710.215 923.398L724.589 919.361C729.439 917.742 734.29 916.1 739.164 914.438C748.904 910.821 758.687 906.803 768.511 901.936C788.087 892.333 807.602 879.883 825.409 864.37C843.215 848.902 859.13 830.451 871.755 810.606C884.382 790.738 893.73 769.701 900.324 749.087C906.923 728.406 910.882 708.11 913.08 688.578C913.357 686.128 913.658 683.679 913.89 681.249L914.425 674.042C914.588 671.654 914.797 669.245 914.914 666.877L915.175 659.791L915.282 656.258L915.368 654.515L915.368 653.619L915.375 652.567L915.257 644.096C915.133 638.446 915.076 632.799 914.438 627.146L913.603 618.662C913.296 615.825 913.054 613.014 912.543 610.211C911.612 604.589 910.636 598.964 909.569 593.379C908.254 587.827 906.869 582.317 905.417 576.803C903.942 571.31 902.012 565.974 900.24 560.601C892.674 539.265 882.451 519.118 870.215 500.754C857.98 482.367 843.755 465.74 828.048 450.988C812.293 436.302 795.015 423.443 776.408 412.557C757.778 401.692 737.754 392.729 716.31 386.227L708.255 383.835L699.958 381.813L691.632 379.923C688.793 379.379 685.906 378.901 683.062 378.446L674.441 377.08C671.525 376.734 668.561 376.453 665.596 376.172L656.633 375.393C653.305 375.228 649.836 375.191 646.413 375.134C637.081 375.008 627.768 375.421 618.494 376.396C600.553 378.308 582.889 382.317 566.082 388.451C562.91 389.66 559.679 390.687 556.609 392.103C553.518 393.473 550.426 394.866 547.355 396.304C541.172 399.067 535.36 402.497 529.548 405.905C517.901 412.764 507.386 421.18 497.041 429.784L492.997 433.66C492.725 433.736 492.818 434.121 492.608 434.29L492.136 434.782L491.123 435.784L489.144 437.769L485.205 441.807L483.268 443.839C482.651 444.547 482.099 445.304 481.504 446.014C479.142 448.943 476.845 451.92 474.594 454.876C472.449 457.951 470.39 461.096 468.331 464.242C460.402 476.973 453.793 490.622 449.094 505.058C446.502 512.186 444.679 519.621 442.835 527.01C441.103 534.427 439.788 541.999 438.563 549.553C438.248 551.396 437.988 553.488 437.778 555.471L437.115 561.194L436.66 565.404C436.502 566.785 436.438 568.081 436.327 569.419C435.932 574.685 435.46 580.171 435.348 585.137C435.285 586.411 435.224 587.662 435.208 588.893C434.563 607.808 435.09 625.235 436.033 641.944C437.056 659.732 438.587 676.783 440.368 693.287C440.618 695.495 440.845 697.678 441.097 699.841C444.528 730.535 448.609 759.852 452.586 788.558C456.868 819.25 461.01 849.151 464.466 878.437C466.219 893.26 467.755 907.915 469.058 922.335C470.334 936.373 471.31 950.15 471.984 963.688C473.228 991.072 473.216 1017.57 470.793 1041.21C469.604 1053.04 467.911 1064.18 465.669 1074.19C463.364 1084.13 460.513 1092.88 457.381 1100.07C454.225 1107.28 450.861 1112.83 447.492 1117.1C444.1 1121.38 440.698 1124.53 436.477 1127.48C432.235 1130.38 426.975 1133.06 420.162 1135.45C418.367 1135.97 416.592 1136.55 414.793 1137.16C412.799 1137.62 410.762 1138.06 408.766 1138.58L407.268 1138.98C406.747 1139.11 406.163 1139.15 405.598 1139.26L402.255 1139.83L398.933 1140.45C398.457 1140.56 397.625 1140.63 396.948 1140.73L394.853 1140.99C372.349 1144.15 351.809 1143.83 335.077 1140.76C326.664 1139.27 319.276 1136.98 312.744 1134.13C306.191 1131.25 300.351 1127.98 295.051 1123.78C294.404 1123.28 293.736 1122.75 293.066 1122.25L291.134 1120.56C289.797 1119.53 288.655 1118.18 287.322 1117.06C284.919 1114.48 282.401 1111.96 280.131 1108.95C278.901 1107.57 277.887 1105.89 276.683 1104.42C275.647 1102.73 274.446 1101.22 273.436 1099.44L272.212 1097.48L272.108 1097.32C271.704 1096.44 271.51 1095.38 271.869 1094.46C272.017 1094.18 272.322 1094.35 272.519 1094.45L273.2 1094.7L343.765 1118.13L353.636 1121.37L421.694 968.614L427.585 955.893L428.66 940.046L418.558 934.664L386.131 917.966C382.328 916.076 378.324 914.176 374.182 912.358C371.967 911.42 369.753 910.46 367.493 909.519L296.605 880.416L254.005 862.946L232.717 854.189L222.072 849.833C220.294 849.118 218.52 848.314 216.76 847.689L211.561 845.954L206.362 844.219C205.502 843.953 204.601 843.595 203.783 843.397L201.405 843.033L191.872 841.554L182.315 840.096L179.937 839.732C179.22 839.742 178.568 839.799 177.894 839.833L173.829 840.08L157.635 841.071L155.615 841.172C155.278 841.2 154.918 841.227 154.603 841.257L153.808 841.486L150.606 842.38L144.18 844.19L131.307 847.764L120.973 852.516C119.28 853.239 117.088 854.541 114.738 855.881C112.316 857.306 109.795 858.928 107.356 860.711C102.457 864.232 97.8634 867.924 93.7711 871.887C85.6112 879.77 78.7193 888.275 72.9011 897.707C67.0405 907.092 62.1666 917.355 58.1753 928.333C54.2042 939.357 51.0956 951.05 48.8731 963.392C46.6718 975.758 45.2738 988.634 44.6623 1001.91C43.4605 1028.48 45.3834 1056.61 50.6213 1085.18L52.7336 1095.9C53.4748 1099.47 54.4172 1103.06 55.2468 1106.66L56.5486 1112.03L58.0515 1117.41C59.0843 1120.98 60.0255 1124.59 61.1253 1128.16C63.527 1135.29 65.7033 1142.45 68.5562 1149.51L70.5549 1154.83C71.207 1156.58 71.9027 1158.37 72.6899 1160.11L77.2322 1170.59C78.7151 1174.11 80.5642 1177.47 82.2068 1180.93C83.9185 1184.36 85.5387 1187.82 87.4113 1191.16C89.2146 1194.54 91.1095 1197.88 93.0044 1201.22L93.7266 1202.47L94.3458 1203.53L95.6113 1205.56L97.8704 1209.23C100.787 1214.1 104.179 1218.86 107.369 1223.63C110.832 1228.33 114.136 1233.06 117.874 1237.61C125.075 1246.86 133.127 1255.66 141.53 1264.13C145.894 1268.27 150.118 1272.51 154.739 1276.41L161.591 1282.3L168.703 1287.92C187.807 1302.79 209.06 1314.97 230.874 1324.41C252.71 1333.84 275.181 1340.39 297.218 1344.42C319.251 1348.51 340.886 1350.25 361.772 1350.36L361.746 1350.43ZM646.257 671.286C644.699 657.055 643.499 643.267 642.735 630.195C641.992 617.146 641.731 604.771 642.206 594.246C642.254 591.471 642.543 589.246 642.686 586.812C642.716 586.209 642.748 585.561 642.819 585.027L642.931 584.114C643.345 583.44 643.976 582.912 644.97 582.737C647.115 582.373 651.615 583.289 655.309 584.211C655.464 584.264 655.574 584.291 655.728 584.344C655.904 584.42 656.08 584.473 656.257 584.527C661.242 586.05 666.657 588.4 671.88 591.458C677.125 594.517 682.181 598.238 686.634 602.378C691.063 606.538 694.868 611.094 697.93 615.746C701.014 620.4 703.356 625.107 705.028 629.803C705.328 630.983 705.921 632.11 706.197 633.333C706.428 634.531 706.752 635.689 707.12 636.85C707.239 638.065 707.448 639.262 707.704 640.439C707.899 641.009 707.845 641.656 707.905 642.263C707.964 642.871 708.001 643.477 708.083 644.086C708.36 645.287 708.184 646.577 708.255 647.857C708.269 648.485 708.305 649.114 708.341 649.743L708.329 649.988L708.308 650.413L708.267 651.239L708.185 652.893L708.09 656.18C708.037 657.253 707.919 658.277 707.867 659.327L707.644 662.474L707.295 665.457C706.41 673.387 704.927 680.301 703.124 685.967C701.32 691.656 699.245 696.033 697.058 699.508C694.806 702.935 692.456 705.618 689.413 708.289C686.393 710.94 682.48 713.546 677.247 716.131C675.294 717.132 673.052 718.096 670.655 719.03L652.748 724.326L677.301 930.146C674.429 908.527 648.092 688.957 646.23 671.374L646.257 671.286Z" fill="#EA8BF3" stroke="#070600" stroke-miterlimit="10"/>
<path d="M247.891 1117.46L248.811 1116.97C279.712 1175.4 348.186 1191.29 402.318 1181.13L402.514 1182.15C372.52 1187.79 341.079 1185.11 313.965 1174.63C284.5 1163.26 261.653 1143.47 247.891 1117.46Z" fill="#070600"/>
<path d="M201.385 1083.9C202.818 1054.92 215.426 1026.36 243.115 1009.37C280.478 993.253 322.559 1013.97 359.7 1032.24C374.259 1039.41 387.988 1046.16 400.825 1050.56L400.485 1051.55C387.581 1047.15 373.808 1040.37 359.228 1033.18C322.284 1015.01 280.443 994.416 243.584 1010.29C199.129 1037.58 194.039 1095.25 211.859 1135.63C237.646 1185.64 290.836 1218.98 354.076 1224.79C419.188 1230.76 481.63 1206.06 517.078 1160.31L517.897 1160.96C482.234 1206.98 419.427 1231.83 353.979 1225.84C290.36 1220 236.889 1186.45 210.918 1136.1C203.97 1120.37 200.487 1102.06 201.385 1083.9Z" fill="#070600"/>
<path d="M153.862 1060.47C155.347 1030.45 163.532 1003.48 177.246 983.827C196.888 955.662 226.454 944.179 262.723 950.653C307.794 965.692 359.266 987.139 415.803 1014.39L415.353 1015.33C358.861 988.082 307.433 966.66 262.472 951.649C226.69 945.288 197.491 956.61 178.113 984.408C148.421 1026.97 146.915 1106.33 174.888 1154.23C227.745 1258.16 354.661 1284.95 447.272 1257.42L447.558 1258.42C397.15 1273.41 341.801 1271.95 291.685 1254.34C238.995 1235.79 197.19 1200.44 173.967 1154.75C160.836 1132.28 153.422 1101.08 153.634 1069.17C153.644 1066.24 153.742 1063.36 153.885 1060.47L153.862 1060.47Z" fill="#070600"/>
<path d="M517.295 1222.05C535.523 1207.99 550.804 1191.05 562.73 1171.75L563.621 1172.31C551.644 1191.72 536.271 1208.72 517.947 1222.88L517.316 1222.07L517.295 1222.05Z" fill="#070600"/>
<path d="M105.182 1031.93C106.973 995.715 116.097 963.805 131.636 940.274C154.822 905.207 191.368 890.24 237.339 897.037C294.417 916.051 355.841 941.82 430.736 978.198L430.287 979.139C355.435 942.785 294.056 917.019 237.11 898.033C191.65 891.329 155.471 906.112 132.527 940.833C90.727 1004.09 101.824 1113.89 137.937 1172.87C179.842 1256.02 271.189 1308.37 376.309 1309.52C477.423 1310.62 566.363 1262.21 608.406 1183.17L609.322 1183.66C587.571 1224.58 553.457 1257.85 510.671 1279.92C470.78 1300.5 424.33 1311.08 376.302 1310.57C326.775 1310.02 278.677 1297.77 237.251 1275.14C193.1 1251.01 158.429 1215.83 137.039 1173.37C118.64 1143.32 107.027 1101.04 105.155 1057.39C104.778 1048.71 104.818 1040.2 105.228 1031.91L105.182 1031.93Z" fill="#070600"/>
<path d="M250.324 1051.96C250.324 1051.96 250.356 1051.76 250.428 1051.68C257.596 1042.56 282.323 1052.4 283.377 1052.84L379.981 1088.54C380.244 1088.64 380.386 1088.94 380.284 1089.21C380.181 1089.47 379.883 1089.61 379.619 1089.51L282.993 1053.8C282.729 1053.7 257.938 1043.81 251.247 1052.32C251.079 1052.54 250.741 1052.59 250.525 1052.42C250.397 1052.3 250.315 1052.14 250.323 1051.99L250.324 1051.96Z" fill="#070600"/>
<path d="M476.331 588.664C476.495 585.358 476.731 581.943 476.961 578.64L477.011 577.635C477.072 576.854 477.133 576.073 477.218 575.249C477.218 575.249 477.218 575.249 477.396 573.466C477.482 572.641 477.567 571.817 477.573 571.705C477.574 571.683 477.575 571.66 477.828 569.254C477.952 568.118 478.074 567.004 478.081 566.87C478.295 564.798 478.511 563.152 478.711 561.818L478.875 560.773C479.816 554.863 480.768 548.751 482.113 542.838C483.767 535.641 485.358 529.74 487.126 524.318C490.662 513.497 495.038 503.344 500.129 494.122C500.868 492.77 501.728 491.223 502.607 489.743C504.169 487.133 505.821 484.527 507.659 481.774L507.971 481.341C509.678 478.985 511.432 476.563 513.25 474.212C513.418 473.996 513.585 473.781 513.754 473.543C514.065 473.132 514.376 472.722 514.686 472.335C514.806 472.184 515.019 471.948 515.468 471.477C515.799 471.113 516.154 470.727 516.226 470.641C516.345 470.491 516.582 470.233 517.125 469.656C517.504 469.249 517.859 468.863 517.953 468.778C518.048 468.649 518.262 468.413 518.71 467.942C519.017 467.622 519.325 467.279 519.397 467.192C519.516 467.042 519.752 466.807 520.249 466.272C520.579 465.93 520.91 465.565 520.982 465.479C520.982 465.479 521.172 465.265 521.407 465.03C521.572 464.859 521.761 464.667 521.808 464.624C521.808 464.624 521.927 464.473 522.045 464.367L522.258 464.131C522.264 463.997 522.323 463.709 522.599 463.566C522.646 463.524 522.694 463.459 522.764 463.395L525.83 460.277C529.64 457.039 533.114 454.254 536.438 451.776C542.391 447.322 547.829 443.762 553.078 440.863C558.259 437.984 562.93 435.438 567.986 433.269C569.519 432.606 571.051 431.965 572.607 431.303L575.718 429.979C577.663 429.134 579.712 428.452 581.67 427.787C582.33 427.574 582.991 427.337 583.629 427.123C584.404 426.847 585.178 426.595 585.952 426.342L586.179 426.263C586.817 426.049 587.476 425.857 588.113 425.642C589.046 425.353 590.001 425.064 590.932 424.796C602.566 421.363 614.794 419.078 627.253 417.992C634.855 417.316 642.658 417.097 650.417 417.324C653.838 417.426 656.542 417.537 658.886 417.675L659.02 417.682C659.398 417.745 661.181 417.923 662.607 418.061C665.258 418.326 666.039 418.387 666.327 418.446L667.887 418.613C669.802 418.82 671.739 419.05 673.652 419.301L673.829 419.355C673.829 419.355 675.628 419.645 677.161 419.9C679.803 420.344 680.558 420.471 680.824 420.529C683.22 420.984 685.639 421.417 688.033 421.916L688.209 421.992C688.209 421.992 690.068 422.42 691.485 422.758C695.07 423.608 695.091 423.631 695.2 423.704C695.289 423.708 697.08 424.177 698.517 424.54C702.034 425.43 702.055 425.454 702.163 425.526C702.253 425.531 703.994 426.087 705.384 426.514C707.876 427.287 708.56 427.5 708.78 427.578C722.028 431.816 735.099 437.367 747.624 444.011C751.486 446.061 755.363 448.268 759.147 450.538C774.649 459.904 789.192 471.015 802.322 483.534C815.369 495.914 826.959 509.701 836.773 524.519C847.421 540.588 855.717 557.123 861.414 573.687L861.825 574.872C863.176 578.813 864.587 582.869 865.683 586.977C866.536 590.11 867.361 593.353 868.237 596.912C868.536 598.114 868.834 599.338 869.109 600.561C869.807 604.112 870.434 607.726 871.067 611.229L871.629 614.347C871.995 616.47 872.246 618.633 872.478 620.727L872.54 621.29C872.54 621.29 872.54 621.29 872.965 625.387C873.117 626.828 873.233 628.11 873.25 628.223C873.735 632.457 873.883 636.697 874.037 640.826L874.086 642.553C874.086 642.553 874.109 643.002 874.153 645.288C874.176 647.081 874.235 649.503 874.248 649.705C874.247 649.727 874.24 649.861 874.231 650.04C874.22 650.263 874.227 650.577 874.225 650.622C874.225 650.622 874.214 650.845 874.205 651.024L874.187 651.382C874.187 651.382 874.187 651.382 874.191 652.21C874.174 652.546 874.158 652.881 874.176 652.971C874.176 652.971 874.163 653.672 874.139 655.074C874.116 655.544 874.097 655.923 874.116 655.992C874.115 656.014 874.114 656.036 874.032 658.585C873.958 660.082 873.921 661.738 873.916 661.849C873.851 663.167 873.787 664.463 873.721 665.781C873.685 666.519 873.648 667.256 873.612 667.993C873.599 668.261 873.557 669.11 873.324 672.458C873.281 673.329 873.247 674.022 873.221 674.088C873.106 675.515 872.947 676.918 872.81 678.323L872.596 680.395C872.376 682.579 872.111 684.76 871.845 686.964L871.413 690.28C871.337 690.903 871.238 691.548 871.144 692.103L870.974 693.259C870.743 694.771 870.506 696.394 870.256 697.815L870.072 698.836C869.482 702.166 868.826 705.919 868.105 709.175C867.402 712.522 866.577 716.065 865.576 720.024L865.272 721.173C864.364 724.6 863.344 728.469 862.259 731.842L861.728 733.54C860.879 736.208 859.925 739.206 858.969 741.779C853.603 757.012 846.825 771.368 838.833 784.455C834.518 791.565 829.577 798.644 824.179 805.477C816.941 814.637 808.995 823.18 800.532 830.846C796.264 834.733 791.873 838.413 787.474 841.779C776.719 850.071 765.071 857.401 752.875 863.583C745.226 867.46 737.401 870.836 728.917 873.955C725.793 875.099 722.582 876.172 719.485 877.229L717.048 878.049C716.729 878.167 715.639 878.472 711.074 879.769C708.484 880.514 705.554 881.355 705.35 881.412C694.574 884.238 686.558 886.037 678.494 887.452L672.316 888.759L672.098 887.741L678.298 886.435C686.362 885.019 694.354 883.242 705.04 880.434C705.382 880.316 706.494 880.013 710.788 878.769C713.331 878.044 716.216 877.224 716.648 877.088L719.154 876.227C722.25 875.193 725.439 874.097 728.564 872.952C737.001 869.876 744.804 866.499 752.406 862.642C764.556 856.479 776.135 849.191 786.821 840.94C791.174 837.595 795.543 833.936 799.809 830.071C808.226 822.425 816.148 813.926 823.338 804.83C828.713 798.019 833.63 790.961 837.92 783.895C845.886 770.874 852.639 756.583 857.979 741.417C858.934 738.866 859.866 735.866 860.713 733.221L861.268 731.501C862.33 728.15 863.372 724.282 864.257 720.877L864.56 719.727C865.56 715.813 866.384 712.27 867.065 708.922C867.785 705.688 868.44 701.935 869.007 698.627L869.192 697.605C869.441 696.184 869.678 694.561 869.909 693.072L870.078 691.916C870.174 691.338 870.249 690.715 870.347 690.093L870.779 686.8C871.043 684.618 871.308 682.436 871.527 680.275L871.741 678.203C871.9 676.799 872.036 675.418 872.15 674.012C872.15 674.012 872.185 673.298 872.253 672.383C872.375 670.821 872.571 668.21 872.538 667.985C872.576 667.203 872.613 666.466 872.649 665.728C872.713 664.433 872.823 663.117 872.841 661.841C872.841 661.841 872.841 661.841 872.959 658.555C873.022 657.281 873.058 656.096 873.04 656.006C873.04 656.006 873.062 655.559 873.066 655.044C873.105 654.24 873.111 653.21 873.097 653.052C873.097 653.052 873.1 652.985 873.094 652.201C873.111 651.866 873.127 651.531 873.109 651.44C873.109 651.44 873.12 651.217 873.13 651.016L873.148 650.658C873.148 650.658 873.141 650.344 873.133 650.053L873.146 649.785C873.146 649.785 873.114 649.537 873.031 645.322C873.01 643.933 872.98 642.744 872.985 642.633L872.914 640.905C872.781 636.8 872.631 632.582 872.144 628.392C872.144 628.392 872.049 627.44 871.86 625.534C871.683 623.689 871.471 621.618 871.435 621.459L871.374 620.874C871.14 618.802 870.911 616.641 870.544 614.562L869.982 611.444C869.371 607.942 868.721 604.327 868.044 600.822C867.767 599.621 867.468 598.42 867.169 597.218C866.293 593.658 865.446 590.414 864.614 587.305C863.518 583.219 862.127 579.186 860.776 575.268L860.364 574.083C854.686 557.588 846.454 541.123 835.846 525.145C826.073 510.396 814.526 496.656 801.543 484.346C788.456 471.874 773.977 460.812 758.541 451.471C754.779 449.202 750.901 447.017 747.061 444.968C734.58 438.349 721.575 432.824 708.37 428.61L708.24 428.536C708.24 428.536 706.409 427.976 704.997 427.547C701.622 426.507 701.601 426.484 701.493 426.411C701.403 426.407 699.613 425.937 698.175 425.575C694.681 424.686 694.66 424.662 694.551 424.59C694.462 424.585 692.626 424.136 691.165 423.795C688.686 423.202 687.978 423.033 687.735 422.954C685.364 422.456 682.967 422.024 680.571 421.569L680.395 421.516C680.395 421.516 678.44 421.195 676.908 420.94C674.442 420.527 673.687 420.4 673.422 420.342C671.531 420.092 669.594 419.862 667.678 419.655L666.008 419.461C665.63 419.42 663.847 419.242 662.421 419.104C659.858 418.866 659.033 418.78 658.723 418.72C656.377 418.604 653.675 418.47 650.276 418.369C642.539 418.144 634.781 418.365 627.224 419.021C614.832 420.11 602.673 422.376 591.107 425.79C590.153 426.057 589.221 426.347 588.288 426.636C587.652 426.829 587.014 427.044 586.378 427.236L586.15 427.314C585.376 427.567 584.602 427.82 583.851 428.074C583.189 428.31 582.53 428.524 581.891 428.761C579.932 429.426 577.928 430.111 576.006 430.934L572.895 432.258C571.363 432.899 569.83 433.562 568.297 434.225C563.287 436.374 558.616 438.92 553.481 441.779C548.3 444.658 542.885 448.198 536.957 452.608C533.656 455.065 530.227 457.829 526.464 461.025L526.417 461.067L523.588 463.951C523.588 463.951 523.493 464.058 523.399 464.143L523.328 464.229L523.319 464.408L523.115 464.465C523.062 464.619 523.01 464.773 522.868 464.923C522.821 464.965 522.773 465.03 522.703 465.094L522.514 465.286C522.514 465.286 522.301 465.522 522.064 465.779C521.9 465.928 521.757 466.1 521.71 466.142C521.592 466.271 521.379 466.507 520.906 467.021C520.552 467.384 520.22 467.748 520.149 467.834C520.053 467.964 519.84 468.2 519.391 468.67C519.084 468.991 518.776 469.334 518.704 469.42C518.585 469.571 518.348 469.828 517.805 470.406C517.426 470.813 517.071 471.198 516.978 471.283C516.858 471.434 516.644 471.692 516.147 472.228C515.887 472.506 515.627 472.784 515.508 472.935L515.412 473.065C515.103 473.43 514.791 473.84 514.503 474.229C514.335 474.467 514.167 474.683 514 474.898C512.205 477.228 510.451 479.65 508.745 482.007L508.432 482.439C506.617 485.171 504.989 487.756 503.428 490.344C502.55 491.801 501.713 493.327 500.952 494.678C495.887 503.834 491.558 513.944 488.025 524.698C486.258 530.098 484.67 535.954 483.039 543.13C481.696 548.998 480.746 555.088 479.805 560.976L479.642 562.021C479.442 563.332 479.228 564.956 479.015 566.984C479.015 566.984 479.016 566.961 478.762 569.39C478.639 570.526 478.516 571.64 478.51 571.774C478.51 571.774 478.506 571.841 478.331 573.579C478.245 574.403 478.16 575.228 478.154 575.34C478.069 576.164 478.008 576.945 477.97 577.704L477.919 578.732C477.592 583.083 477.275 587.681 477.134 591.907L477.068 593.225C477.06 593.851 477.051 594.478 477.021 595.081C476.589 608.811 476.828 622.551 477.775 639.619C478.547 652.982 479.761 667.375 481.51 683.632L481.616 684.667C481.786 686.198 481.957 687.73 482.128 689.261C485.362 717.147 488.878 743.389 491.867 765.373C495.179 789.41 498.915 816.649 501.938 842.464C503.499 855.732 504.82 868.406 505.898 880.127C506.075 881.972 506.471 885.732 507.117 891.251L506.08 891.379C505.436 885.838 505.04 882.078 504.862 880.233C503.807 868.512 502.462 855.86 500.902 842.591C497.856 816.775 494.12 789.537 490.829 765.523C487.82 743.516 484.325 717.275 481.069 689.388C480.898 687.856 480.728 686.325 480.557 684.794L480.452 683.758C478.703 667.502 477.49 653.087 476.719 639.701C475.773 622.589 475.536 608.826 475.969 595.074C476 594.448 476.031 593.823 476.04 593.196L476.105 591.878C476.112 590.826 476.165 589.754 476.219 588.659L476.331 588.664Z" fill="#070600"/>
<path d="M513.183 951.079L514.219 950.951C517.058 975.503 518.486 988.742 518.695 992.671C518.692 992.716 518.689 992.783 518.686 992.85L518.679 992.984C518.709 993.277 518.72 993.524 518.731 993.748L518.766 994.399L517.734 994.438L517.698 993.809C517.688 993.562 517.677 993.315 517.668 993.046C517.671 993.001 517.674 992.934 517.677 992.867L517.684 992.733C517.401 987.591 514.996 966.487 513.206 951.058L513.183 951.079Z" fill="#070600"/>
<path d="M517.713 594.54C517.823 592.306 517.957 590.051 518.11 587.863L518.151 587.037C518.183 586.389 518.214 585.763 518.292 585.095C518.292 585.095 518.302 584.894 518.431 583.646C518.485 583 518.561 582.376 518.567 582.242C518.567 582.242 518.588 581.818 518.759 580.169C518.847 579.3 518.957 578.432 518.94 578.319C519.116 576.581 519.247 575.289 519.413 574.199L519.482 573.71C520.195 568.796 520.917 563.703 521.965 558.805C523.195 552.954 524.394 548.176 525.732 543.763C528.355 535.091 531.655 526.788 535.548 519.142L535.722 518.793C536.269 517.7 536.838 516.608 537.428 515.54C538.609 513.404 539.857 511.248 541.245 508.988C542.551 507.037 544.003 504.847 545.495 502.748L545.857 502.228C546.074 501.903 546.314 501.579 546.554 501.255C546.628 501.124 546.817 500.91 547.198 500.458C547.411 500.222 547.602 499.986 547.697 499.878C547.771 499.748 547.938 499.532 548.435 498.997C548.671 498.74 548.909 498.46 549.005 498.33C549.056 498.199 549.222 498.028 549.626 497.555C549.815 497.34 550.006 497.103 550.101 496.996C550.175 496.865 550.341 496.672 550.792 496.157C551.006 495.899 551.242 495.664 551.314 495.556C551.365 495.446 551.482 495.34 551.696 495.082C551.791 494.975 551.886 494.867 551.933 494.825C551.981 494.76 552.052 494.674 552.125 494.566L552.314 494.351C552.314 494.351 552.33 494.038 552.583 493.894C552.608 493.85 552.655 493.808 552.702 493.765L552.843 493.616L555.048 491.149C557.927 488.626 560.701 486.412 563.532 484.402C568.15 481.137 572.535 478.487 576.946 476.241C580.804 474.282 584.777 472.284 588.91 470.674C590.234 470.157 591.581 469.642 592.905 469.125L595.096 468.293C596.671 467.676 598.307 467.197 599.9 466.694L601.445 466.233C602.059 466.039 602.696 465.847 603.309 465.675L603.922 465.504C604.286 465.388 604.671 465.295 605.035 465.178L607.282 464.573C616.56 462.165 626.285 460.653 636.189 460.067C642.231 459.694 648.412 459.686 654.554 460.013C657.324 460.149 659.399 460.297 661.272 460.457L661.471 460.511C661.471 460.511 663.008 460.677 664.165 460.824C666.437 461.07 667.015 461.144 667.236 461.2L668.327 461.343C669.884 461.554 671.463 461.767 673.018 462.023L673.194 462.076C673.194 462.076 674.703 462.353 675.835 462.565C678.054 462.966 678.563 463.081 678.762 463.136C680.69 463.544 682.618 463.953 684.522 464.406L684.675 464.481C684.806 464.532 686.177 464.891 687.283 465.169C689.892 465.836 690.157 465.916 690.309 466.013C690.441 466.065 691.81 466.446 692.893 466.746C695.5 467.457 695.786 467.561 695.915 467.657C696.047 467.708 697.346 468.153 698.404 468.496C700.475 469.181 701.048 469.366 701.267 469.467C711.944 473.175 722.458 477.905 732.527 483.509C735.642 485.253 738.753 487.109 741.794 489.006C753.954 496.685 765.588 505.949 776.418 516.518C786.692 526.567 795.675 537.358 803.089 548.631C811.357 561.2 817.818 574.106 822.284 587.025L822.597 587.937C823.655 591.012 824.774 594.181 825.646 597.382C826.347 599.969 827.026 602.534 827.682 605.119C827.903 606.071 828.149 607.001 828.37 607.953C828.928 610.713 829.419 613.469 829.932 616.227L830.392 618.691C830.711 620.386 830.917 622.121 831.103 623.787L831.132 624.102C831.132 624.102 831.132 624.102 831.505 627.435C831.61 628.471 831.7 629.371 831.717 629.484C832.114 632.773 832.308 636.097 832.486 639.286L832.597 641.128C832.597 641.128 832.625 641.913 832.677 643.573C832.723 644.919 832.765 646.78 832.777 646.982C832.777 646.982 832.766 647.206 832.801 647.409C832.794 647.543 832.787 647.699 832.784 647.744C832.784 647.744 832.776 647.923 832.767 648.102L832.754 648.37C832.754 648.37 832.781 648.729 832.785 649.088C832.771 649.378 832.8 649.693 832.796 649.783C832.793 649.827 832.837 649.852 832.811 651.732C832.797 652.022 832.786 652.246 832.783 652.313C832.779 652.38 832.768 652.603 832.717 654.549C832.661 655.666 832.65 656.808 832.643 656.942C832.603 658.664 832.476 660.315 832.438 661.993C832.448 662.24 832.413 662.955 832.254 665.724C832.221 666.394 832.172 666.929 832.191 666.997C832.113 668.113 831.993 669.182 831.894 670.275C831.839 670.944 831.762 671.59 831.707 672.259C831.551 674.043 831.35 675.847 831.171 677.652L830.944 679.522C830.907 679.834 830.843 680.211 830.802 680.59C830.734 681.057 830.689 681.525 830.625 681.903C830.555 682.414 830.458 683.014 830.382 683.66C830.241 684.683 830.076 685.772 829.944 686.617C829.789 687.483 829.628 688.482 829.463 689.549C829.111 691.704 828.721 694.148 828.318 695.965C827.717 699.048 827.031 702.06 826.377 704.872C826.128 705.823 825.851 706.906 825.572 708.012C825.04 710.181 824.424 712.659 823.817 714.532C823.55 715.392 823.255 716.386 822.934 717.445C822.371 719.321 821.806 721.241 821.261 722.737C817.199 735.145 811.908 747.067 805.584 758.108C802.177 764.076 798.302 769.976 794.101 775.681C788.39 783.416 782.1 790.608 775.421 797.063C771.964 800.409 768.474 803.528 765.021 806.336C756.153 813.579 746.775 819.834 737.143 824.89C731.603 827.796 725.557 830.498 718.644 833.09C716.18 834.021 713.651 834.903 711.213 835.746L709.459 836.353C709.208 836.453 708.345 836.701 704.845 837.738C702.981 838.295 700.664 838.964 700.435 839.065C692.059 841.361 685.851 842.823 679.635 843.994L667.069 845.881L666.919 844.843L679.485 842.956C685.655 841.805 691.818 840.341 700.081 838.084C700.332 837.985 701.173 837.735 704.558 836.738C706.467 836.183 708.853 835.472 709.081 835.394L710.859 834.765C713.296 833.923 715.803 833.039 718.267 832.108C725.136 829.514 731.156 826.856 736.652 823.947C746.239 818.912 755.548 812.698 764.346 805.496C767.753 802.709 771.242 799.611 774.676 796.287C781.308 789.874 787.55 782.725 793.238 775.034C797.414 769.373 801.265 763.494 804.648 757.569C810.946 746.593 816.188 734.759 820.249 722.373C820.792 720.9 821.358 718.979 821.92 717.126C822.241 716.067 822.537 715.051 822.804 714.191C823.388 712.339 824.001 709.905 824.533 707.737C824.813 706.609 825.091 705.525 825.339 704.574C825.992 701.785 826.678 698.773 827.278 695.712C827.681 693.895 828.069 691.473 828.399 689.34C828.564 688.273 828.726 687.251 828.881 686.385C829.033 685.564 829.176 684.496 829.316 683.473C829.415 682.828 829.49 682.227 829.56 681.715C829.622 681.36 829.668 680.892 829.735 680.425C829.777 680.047 829.841 679.647 829.879 679.335L830.103 677.51C830.281 675.727 830.482 673.923 830.638 672.139C830.693 671.47 830.771 670.802 830.825 670.155C830.923 669.085 831.043 668.016 831.119 666.944C831.12 666.922 831.147 666.363 831.183 665.649C831.24 664.487 831.393 662.3 831.36 662.052C831.431 660.174 831.531 658.611 831.569 656.933C831.569 656.933 831.582 656.665 831.645 654.496C831.695 653.468 831.723 652.462 831.707 652.327C831.708 652.304 831.721 652.036 831.716 651.7C831.741 651.186 831.749 650.112 831.712 649.953C831.694 649.863 831.68 649.705 831.687 649.101C831.701 648.833 831.692 648.563 831.674 648.473C831.674 648.473 831.684 648.272 831.671 648.07L831.684 647.802C831.684 647.802 831.671 647.622 831.659 647.42C831.665 647.286 831.673 647.129 831.675 647.084C831.658 646.972 831.634 646.097 831.557 643.585C831.525 642.419 831.511 641.343 831.495 641.208L831.386 639.344C831.208 636.155 831.034 632.876 830.635 629.632C830.635 629.632 830.64 629.52 830.402 627.537C830.265 626.232 830.063 624.43 830.05 624.25L830.001 623.889C829.814 622.223 829.608 620.511 829.286 618.86L828.826 616.396C828.313 613.638 827.822 610.882 827.264 608.144C827.041 607.215 826.818 606.286 826.574 605.333C825.918 602.748 825.261 600.184 824.56 597.619C823.687 594.441 822.588 591.296 821.53 588.242L821.217 587.331C816.768 574.502 810.349 561.666 802.145 549.166C794.772 537.962 785.832 527.196 775.622 517.218C764.857 506.697 753.265 497.479 741.17 489.849C738.151 487.953 735.041 486.097 731.946 484.376C721.923 478.774 711.451 474.091 700.841 470.386L700.71 470.312C700.578 470.261 699.103 469.763 698.045 469.419C695.687 468.653 695.423 468.551 695.294 468.455C695.139 468.402 693.659 467.993 692.577 467.693C690.103 467.011 689.838 466.931 689.708 466.835C689.577 466.783 688.073 466.395 686.99 466.118C684.978 465.593 684.425 465.454 684.206 465.353C682.303 464.901 680.375 464.492 678.469 464.084L678.315 464.032C678.315 464.032 676.761 463.753 675.607 463.539C673.521 463.168 672.967 463.051 672.768 462.996C671.234 462.763 669.7 462.553 668.165 462.343L666.855 462.121C666.855 462.121 665.185 461.927 664.049 461.803C661.934 461.564 661.355 461.491 661.134 461.435C659.283 461.277 657.229 461.153 654.483 460.994C648.364 460.669 642.227 460.68 636.231 461.033C626.395 461.599 616.714 463.113 607.527 465.503L605.28 466.109C604.917 466.203 604.553 466.319 604.168 466.412L603.555 466.583C602.942 466.755 602.328 466.948 601.714 467.142L600.167 467.625C598.598 468.108 596.985 468.588 595.433 469.183L593.242 470.015C591.917 470.532 590.571 471.048 589.246 471.564C585.16 473.154 581.209 475.153 577.374 477.091C573.009 479.317 568.647 481.945 564.077 485.168C561.269 487.157 558.519 489.328 555.664 491.829L553.554 494.188C553.554 494.188 553.459 494.296 553.388 494.382L553.34 494.446L553.332 494.603L553.196 494.641C553.168 494.751 553.117 494.883 553.022 494.991C552.974 495.055 552.927 495.098 552.855 495.184L552.737 495.312C552.737 495.312 552.57 495.528 552.381 495.72C552.286 495.828 552.215 495.914 552.144 495.977C552.071 496.108 551.904 496.301 551.478 496.773C551.265 497.009 551.051 497.267 550.956 497.374C550.882 497.505 550.716 497.698 550.312 498.171C550.122 498.386 549.932 498.6 549.86 498.709C549.785 498.862 549.596 499.054 549.121 499.613C548.883 499.892 548.646 500.149 548.552 500.257C548.478 500.387 548.312 500.581 547.906 501.076C547.717 501.29 547.527 501.505 547.431 501.634L547.335 501.764C547.095 502.088 546.877 502.413 546.637 502.737L546.252 503.278C544.784 505.356 543.332 507.546 542.05 509.476C540.685 511.715 539.438 513.848 538.258 515.962C537.669 517.008 537.122 518.101 536.576 519.193L536.402 519.543C532.555 527.146 529.281 535.383 526.662 543.988C525.325 548.378 524.149 553.135 522.921 558.942C521.897 563.819 521.153 568.888 520.464 573.781L520.395 574.27C520.229 575.359 520.099 576.63 519.927 578.301C519.925 578.323 519.908 578.681 519.743 580.195C519.654 581.087 519.564 582 519.556 582.179L519.553 582.224C519.553 582.224 519.535 582.604 519.415 583.673C519.36 584.32 519.285 584.943 519.278 585.077C519.221 585.768 519.168 586.393 519.137 587.018L519.096 587.845C518.855 591.372 518.627 595.078 518.546 598.523L518.462 601.117C518.16 612.21 518.372 623.329 519.165 637.186C519.779 647.854 520.797 659.864 522.299 673.868L522.407 674.859C522.547 676.098 522.688 677.336 522.828 678.575C523.922 688.147 525.116 697.971 526.45 708.585L525.413 708.713C524.081 698.076 522.887 688.253 521.793 678.681C521.652 677.442 521.512 676.203 521.372 674.964L521.264 673.974C519.763 659.947 518.745 647.937 518.131 637.247C517.363 623.346 517.153 612.205 517.434 601.088L517.517 598.494C517.56 597.175 517.604 595.834 517.671 594.471L517.713 594.54Z" fill="#070600"/>
<path d="M540.408 827.525L541.443 827.419C541.807 830.931 542.149 834.419 542.472 837.861C542.826 841.574 545.27 864.136 548.381 892.709C553.881 943.148 561.391 1012.25 561.724 1018.2L560.691 1018.26C560.357 1012.33 552.844 943.275 547.344 892.837C544.234 864.263 541.767 841.701 541.436 837.967C541.114 834.525 540.772 831.036 540.408 827.525Z" fill="#070600"/>
<path d="M559.154 599.209C559.189 598.494 559.225 597.779 559.26 597.064L559.291 596.439C559.316 595.925 559.34 595.456 559.365 594.942C559.368 594.875 559.394 594.361 559.443 593.826C559.467 593.334 559.536 592.845 559.518 592.755C559.524 592.621 559.548 592.151 559.642 591.148C559.696 590.501 559.772 589.878 559.757 589.721C559.835 588.605 559.934 587.512 560.073 586.511C560.523 582.838 561.019 578.697 561.753 574.725C562.552 570.33 563.388 566.564 564.273 563.159C566.007 556.615 568.227 550.208 570.88 544.113L571.083 543.631C571.435 542.842 571.766 542.052 572.14 541.264C572.94 539.579 573.785 537.897 574.746 536.13C575.701 534.475 576.655 532.843 577.63 531.234L577.898 530.799C578.044 530.56 578.19 530.321 578.336 530.082C578.388 529.95 578.53 529.778 578.794 529.432C578.914 529.259 579.056 529.109 579.106 529C579.159 528.846 579.302 528.674 579.614 528.241C579.758 528.047 579.923 527.876 579.973 527.766C580.026 527.612 580.146 527.439 580.41 527.093C580.529 526.943 580.649 526.792 580.698 526.705C580.75 526.55 580.871 526.377 581.204 525.968C581.324 525.817 581.444 525.644 581.516 525.558C581.567 525.426 581.662 525.319 581.829 525.103C581.877 525.038 581.924 524.996 581.949 524.952C581.998 524.865 582.046 524.8 582.118 524.692L582.126 524.536L582.238 524.541C582.238 524.541 582.249 524.318 582.413 524.169C582.437 524.126 582.461 524.104 582.508 524.062L584.134 521.97C586.152 520.099 588.296 518.413 590.516 516.978C593.777 514.877 597.204 513.053 600.726 511.57L601.114 511.41C603.882 510.226 606.742 509.001 609.722 508.051C611.042 507.623 612.339 507.217 613.658 506.812L614.363 506.578C615.546 506.211 616.793 505.892 617.971 505.615L619.105 505.335C619.468 505.241 619.853 505.148 620.215 505.076L621.052 504.893C621.301 504.839 621.55 504.784 621.799 504.729C622.161 504.657 622.523 504.585 622.885 504.514L623.473 504.386C630.282 502.998 637.507 502.258 644.967 502.179C649.515 502.135 654.074 502.316 658.532 502.738C660.181 502.887 661.875 503.06 663.499 503.275L663.675 503.328C663.808 503.357 664.875 503.522 665.653 503.628C667.188 503.838 667.698 503.93 667.918 504.008L668.363 504.075C669.629 504.294 670.894 504.514 672.157 504.778L672.312 504.83C672.443 504.882 673.463 505.089 674.195 505.237C675.724 505.559 676.189 505.671 676.409 505.749C677.868 506.135 679.327 506.498 680.785 506.906L680.917 506.958C681.07 507.033 682.13 507.331 682.88 507.57C684.513 508.054 684.999 508.19 685.193 508.334C685.346 508.409 686.383 508.729 687.155 508.968C688.764 509.473 689.271 509.633 689.467 509.754C689.62 509.829 690.632 510.193 691.357 510.475C692.941 511.046 693.425 511.227 693.619 511.371C701.616 514.476 709.595 518.409 717.206 522.996C719.575 524.434 721.919 525.939 724.217 527.463C733.1 533.501 741.87 540.9 750.269 549.467C757.815 557.164 764 564.771 769.16 572.73C775.026 581.799 779.65 591.076 782.91 600.329L783.027 600.671C783.832 602.973 784.676 605.366 785.363 607.774C785.877 609.613 786.367 611.474 786.858 613.312L787.362 615.353C787.76 617.276 788.135 619.198 788.51 621.121L788.886 623.02C789.138 624.265 789.3 625.527 789.462 626.767L789.456 626.901C789.456 626.901 789.532 627.173 789.767 629.2C789.843 629.943 789.921 630.619 789.938 630.732C790.23 632.986 790.432 635.235 790.615 637.417L790.816 639.689C790.83 639.868 790.859 640.631 790.904 641.529C790.944 642.539 791.003 644.065 791.038 644.268C791.036 644.313 791.028 644.469 791.065 644.628L791.053 644.874C791.053 644.874 791.091 645.01 791.083 645.166L791.073 645.367C791.073 645.367 791.122 645.728 791.13 646.02C791.139 646.289 791.148 646.558 791.166 646.649C791.207 646.74 791.218 646.965 791.225 648.174C791.214 648.398 791.205 648.577 791.226 648.622C791.22 648.734 791.201 649.114 791.186 650.323C791.148 651.104 791.13 651.91 791.146 652.045C791.131 652.806 791.117 653.544 791.103 654.26C791.074 654.863 791.067 655.445 791.06 656.05C791.099 656.163 791.089 656.812 790.983 658.957C790.959 659.449 790.94 659.828 790.935 659.94C790.895 660.744 790.813 661.502 790.752 662.283C790.721 662.908 790.645 663.532 790.614 664.157C790.57 665.051 790.48 665.964 790.412 666.879L790.293 668.396C790.283 668.597 790.27 668.843 790.264 668.977C790.258 669.089 790.251 669.245 790.219 669.423C790.211 669.602 790.202 669.78 790.174 669.891C790.164 670.092 790.103 670.425 790.087 670.738C790.068 671.118 790.005 671.495 789.97 671.74C789.907 672.117 789.834 672.696 789.76 673.275C789.655 674.053 789.568 674.9 789.475 675.411C789.351 676.121 789.211 677.144 789.067 678.235C788.827 679.925 788.607 681.661 788.351 682.746C788.002 684.833 787.561 686.962 787.124 689L786.977 689.71C786.76 690.483 786.55 691.548 786.293 692.677C785.919 694.361 785.564 696.09 785.194 697.236C784.983 697.875 784.734 698.848 784.46 699.865C784.075 701.302 783.688 702.783 783.352 703.707C780.519 713.443 776.738 722.887 772.157 731.753C769.681 736.535 766.894 741.279 763.846 745.854C759.638 752.163 755.026 758.027 750.156 763.228C747.485 766.074 744.966 768.57 742.435 770.841C735.453 777.103 728.532 782.113 721.256 786.165C717.571 788.223 713.538 790.084 708.193 792.216C706.434 792.913 704.655 793.564 702.875 794.237L701.735 794.651C701.506 794.752 700.891 794.968 698.458 795.721C697.185 796.106 695.615 796.61 695.409 796.69C689.41 798.476 685.032 799.603 680.665 800.529L662.85 803.053L662.7 802.015L680.47 799.49C684.769 798.582 689.102 797.453 694.964 795.727C695.193 795.626 695.808 795.433 698.15 794.698C699.447 794.292 701.084 793.79 701.29 793.688L702.522 793.234C704.278 792.582 706.057 791.931 707.816 791.234C713.115 789.122 717.103 787.281 720.741 785.244C727.948 781.233 734.8 776.264 741.736 770.045C744.243 767.795 746.738 765.343 749.409 762.497C754.254 757.339 758.818 751.54 763.003 745.252C766.026 740.721 768.79 735.998 771.263 731.26C775.82 722.438 779.575 713.061 782.405 703.369C782.741 702.467 783.127 701.008 783.488 699.593C783.763 698.554 784.014 697.558 784.226 696.897C784.57 695.817 784.946 694.111 785.297 692.449C785.555 691.297 785.787 690.233 785.982 689.459L786.128 688.772C786.569 686.644 786.983 684.604 787.355 682.517C787.588 681.431 787.833 679.652 788.045 678.072C788.19 676.959 788.331 675.914 788.456 675.203C788.548 674.693 788.655 673.892 788.738 673.112C788.813 672.511 788.886 671.932 788.951 671.533C788.984 671.31 789.025 670.932 789.065 670.575C789.082 670.24 789.143 669.907 789.176 669.685C789.182 669.573 789.19 669.417 789.221 669.239C789.23 669.06 789.238 668.882 789.266 668.771L789.278 668.525C789.284 668.414 789.29 668.302 789.293 668.235L789.412 666.74C789.478 665.848 789.546 664.933 789.612 664.04C789.643 663.415 789.696 662.79 789.75 662.166C789.81 661.407 789.869 660.649 789.929 659.89C789.933 659.823 789.954 659.399 789.979 658.885C790.02 658.058 790.104 656.361 790.071 656.113C790.061 655.418 790.091 654.815 790.098 654.21C790.134 653.495 790.125 652.756 790.138 652.04C790.142 651.973 790.163 651.548 790.182 650.25C790.219 649.513 790.233 648.775 790.217 648.64C790.219 648.595 790.23 648.372 790.22 648.125C790.239 647.745 790.21 646.96 790.195 646.825C790.157 646.688 790.151 646.352 790.123 646.015C790.113 645.768 790.101 645.543 790.083 645.453C790.085 645.431 790.092 645.274 790.078 645.117L790.088 644.916C790.088 644.916 790.073 644.758 790.058 644.601L790.071 644.355C790.015 644.128 789.976 643.096 789.921 641.503C789.895 640.651 789.865 639.91 789.851 639.731L789.651 637.436C789.467 635.277 789.264 633.05 788.97 630.841C788.972 630.796 788.938 630.57 788.779 629.264C788.686 628.43 788.546 627.192 788.509 627.033L788.474 626.83C788.31 625.612 788.148 624.373 787.917 623.152L787.541 621.252C787.165 619.33 786.79 617.408 786.392 615.507L785.909 613.489C785.44 611.652 784.927 609.813 784.413 607.973C783.746 605.611 782.9 603.24 782.096 600.939L781.979 600.597C778.76 591.412 774.155 582.204 768.33 573.204C763.212 565.314 757.069 557.754 749.566 550.104C741.209 541.584 732.504 534.233 723.665 528.22C721.412 526.697 719.068 525.193 716.719 523.778C709.152 519.216 701.238 515.331 693.176 512.177C692.892 512.029 691.837 511.641 691.067 511.357C689.571 510.812 689.131 510.656 688.958 510.536C688.805 510.461 687.702 510.115 686.931 509.875C685.387 509.396 684.902 509.238 684.729 509.117C684.576 509.042 683.472 508.719 682.678 508.478C681.31 508.075 680.78 507.914 680.539 507.813C679.103 507.406 677.645 507.02 676.185 506.657L676.053 506.605C675.921 506.554 674.857 506.345 674.059 506.171C672.64 505.877 672.176 505.764 671.978 505.687C670.736 505.447 669.493 505.228 668.25 505.01L667.607 504.866C667.474 504.837 666.385 504.672 665.585 504.565C664.117 504.358 663.628 504.289 663.408 504.211C661.805 504.02 660.156 503.848 658.53 503.678C654.117 503.259 649.581 503.057 645.077 503.125C637.684 503.208 630.526 503.951 623.786 505.32L623.197 505.447C622.835 505.519 622.473 505.591 622.089 505.661C621.84 505.716 621.613 505.772 621.364 505.827L620.549 506.011C620.186 506.105 619.824 506.176 619.439 506.269L618.306 506.549C617.127 506.849 615.903 507.147 614.744 507.493L614.038 507.727C612.719 508.132 611.421 508.56 610.103 508.966C607.167 509.918 604.331 511.121 601.585 512.307L601.197 512.467C597.742 513.953 594.362 515.735 591.148 517.793C589.021 519.143 586.994 520.745 585.069 522.531L584.905 522.68L583.517 524.492C583.517 524.492 583.444 524.601 583.374 524.665L583.367 524.799L583.252 524.86C583.252 524.86 583.2 525.014 583.152 525.079C583.126 525.145 583.079 525.187 583.009 525.251C582.935 525.382 582.863 525.49 582.696 525.684C582.648 525.748 582.578 525.812 582.552 525.878C582.5 526.032 582.358 526.182 582.095 526.527C581.952 526.699 581.831 526.873 581.76 526.959C581.708 527.113 581.587 527.286 581.301 527.63C581.182 527.781 581.086 527.911 581.013 528.019C580.961 528.173 580.818 528.345 580.483 528.777C580.34 528.949 580.196 529.143 580.125 529.229C580.073 529.384 579.952 529.557 579.642 529.945C579.522 530.095 579.403 530.246 579.332 530.332L579.33 530.355L579.258 530.463C579.089 530.701 578.943 530.94 578.796 531.202L578.527 531.659C577.553 533.245 576.599 534.878 575.667 536.511C574.73 538.257 573.886 539.917 573.088 541.58C572.736 542.346 572.384 543.135 572.054 543.925L571.851 544.408C569.2 550.458 567.006 556.799 565.296 563.299C564.413 566.659 563.6 570.426 562.803 574.777C562.07 578.727 561.574 582.868 561.126 586.496C561.01 587.476 560.912 588.568 560.815 589.616C560.812 589.683 560.776 590.398 560.697 591.088C560.642 591.758 560.587 592.427 560.579 592.583C560.574 592.672 560.548 593.209 560.499 593.744C560.476 594.213 560.407 594.702 560.424 594.815C560.397 595.351 560.373 595.843 560.348 596.334L560.316 596.982C560.176 599.819 560.04 602.567 559.979 605.162L559.948 607.154C559.798 615.612 559.983 624.109 560.575 634.776C561.032 642.749 561.855 652.353 563.087 664.127L563.145 664.757C563.251 665.792 563.379 666.829 563.483 667.886C565.494 685.634 567.764 703.595 569.742 718.832C571.984 735.986 574.287 753.725 576.241 770.35C577.307 779.585 578.2 787.803 578.939 795.499C579.195 798.02 581.405 819.428 584.487 849.03C591.738 918.86 603.875 1035.69 604.187 1040.7L604.244 1041.8L603.211 1041.86L603.166 1040.97L603.67 1040.74L603.153 1040.79C602.839 1035.8 590.704 918.943 583.452 849.136C580.371 819.511 578.159 798.126 577.903 795.605C577.164 787.909 576.294 779.692 575.205 770.478C573.271 753.877 570.969 736.138 568.727 718.984C566.748 703.746 564.479 685.785 562.469 668.015C562.341 666.979 562.237 665.921 562.131 664.886L562.073 664.256C560.82 652.459 559.997 642.832 559.541 634.859C558.949 624.192 558.744 615.649 558.917 607.17L558.948 605.178C558.977 603.231 559.078 601.198 559.181 599.121L559.154 599.209Z" fill="#070600"/>
<path d="M600.554 602.892C600.565 602.668 600.58 602.378 600.593 602.11C600.614 601.685 600.635 601.261 600.642 601.127C600.68 600.345 600.718 599.585 600.776 598.871C600.995 596.24 601.247 593.408 601.606 590.671C602.001 587.667 602.423 585.023 602.879 582.604C603.724 578.189 604.836 573.81 606.298 569.157L606.51 568.495C606.646 568.009 606.803 567.547 606.96 567.084C607.377 565.896 607.819 564.663 608.331 563.367C608.838 562.161 609.345 560.976 609.85 559.814L609.999 559.508C610.075 559.333 610.151 559.157 610.226 559.004C610.255 558.871 610.352 558.719 610.476 558.479C610.548 558.371 610.599 558.261 610.624 558.195C610.631 558.061 610.728 557.909 610.9 557.604C610.972 557.496 611.046 557.365 611.072 557.299C611.077 557.188 611.152 557.034 611.321 556.774C611.371 556.687 611.443 556.579 611.469 556.513C611.474 556.401 611.572 556.227 611.743 555.944C611.816 555.836 611.866 555.726 611.892 555.66C611.896 555.571 611.97 555.44 612.066 555.31C612.117 555.179 612.166 555.091 612.237 555.005C612.241 554.938 612.29 554.851 612.317 554.763L612.319 554.718C612.319 554.718 612.366 554.676 612.367 554.653L613.348 552.933C614.623 551.585 616.019 550.534 617.674 549.675C619.673 548.632 622.024 547.74 624.68 546.998L625.043 546.904C626.883 546.391 628.766 545.879 630.755 545.507C631.795 545.312 632.835 545.117 633.873 544.945C634.686 544.806 635.521 544.69 636.331 544.596L638.381 544.361C638.537 544.369 638.696 544.332 638.853 544.317C639.122 544.308 639.392 544.277 639.662 544.268L639.954 544.237C644.383 543.874 649.107 543.906 654.012 544.328C657.022 544.589 659.959 544.98 662.777 545.5C663.842 545.687 664.929 545.898 665.992 546.13L666.124 546.181C666.256 546.232 666.921 546.377 667.364 546.466C668.295 546.669 668.716 546.757 668.935 546.857C669.819 547.08 670.704 547.303 671.588 547.548C671.828 547.672 672.469 547.838 672.911 547.95C673.795 548.195 674.215 548.305 674.41 548.427C675.335 548.742 676.326 549.082 677.337 549.468C677.599 549.615 678.259 549.849 678.742 550.03C679.578 550.34 680.106 550.523 680.367 550.692C680.519 550.79 681.2 551.047 681.684 551.228C682.519 551.538 683.047 551.743 683.285 551.912C683.436 552.009 684.072 552.287 684.555 552.49C685.366 552.843 685.87 553.07 686.108 553.238C691.577 555.838 697.021 558.951 702.153 562.497C703.734 563.583 705.333 564.76 706.886 565.956C712.688 570.431 718.422 575.843 724.364 582.475C729.034 587.655 732.546 592.241 735.453 596.864C738.94 602.411 741.728 608.081 743.757 613.69L743.816 613.85C744.328 615.264 744.838 616.722 745.282 618.178C745.607 619.291 745.933 620.405 746.236 621.517L746.556 622.742L747.604 627.363C747.79 628.133 747.908 628.923 748.049 629.692C748.068 629.76 748.139 630.121 748.268 631.136C748.315 631.541 748.365 631.902 748.383 631.992C748.517 632.895 748.631 633.774 748.767 634.632C748.932 635.827 749.118 637.045 749.305 638.242C749.338 638.49 749.358 638.983 749.399 639.523C749.449 640.309 749.514 641.275 749.544 641.568C749.542 641.613 749.536 641.724 749.575 641.838L749.568 641.995C749.568 641.995 749.607 642.109 749.601 642.22C749.634 642.468 749.667 642.694 749.679 642.918C749.712 643.144 749.722 643.391 749.761 643.527C749.821 643.664 749.826 644.023 749.859 644.697L749.846 644.965C749.884 645.101 749.882 645.594 749.858 646.085C749.835 646.554 749.833 647.047 749.85 647.16L749.879 648.37C749.896 648.931 749.89 649.513 749.907 650.074C749.983 650.346 749.961 651.241 749.931 652.315C749.917 652.583 749.907 652.784 749.901 652.918C749.875 653.432 749.851 653.923 749.827 654.415C749.8 654.951 749.773 655.509 749.746 656.046L749.688 657.23C749.657 657.855 749.627 658.458 749.641 659.086L749.618 659.533C749.618 659.533 749.609 659.734 749.603 659.846C749.595 660.002 749.589 660.136 749.585 660.203C749.58 660.315 749.567 660.583 749.531 660.85C749.517 661.14 749.502 661.431 749.473 661.564C749.463 661.765 749.395 662.232 749.349 662.722C749.297 663.324 749.22 663.97 749.185 664.215C749.122 664.592 749.033 665.484 748.941 666.442C748.811 667.712 748.702 669.006 748.564 669.536C748.418 670.671 748.227 671.826 748.035 672.982C747.942 673.514 747.848 674.047 747.777 674.581C747.666 675.024 747.508 675.956 747.351 676.867C747.155 678.111 746.934 679.399 746.75 679.95C746.644 680.281 746.466 681.168 746.29 682.01C746.054 683.163 745.822 684.227 745.665 684.689C744.038 691.775 741.767 698.763 738.953 705.409C737.43 709.029 735.687 712.593 733.816 716.017C731.132 720.923 728.201 725.414 725.092 729.404C723.323 731.668 721.66 733.601 720.028 735.357C715.138 740.513 710.537 744.361 705.569 747.452C703.005 749.05 700.301 750.305 697.965 751.354C696.888 751.838 695.813 752.3 694.739 752.74L694.213 752.96C694.213 752.96 693.709 753.181 692.319 753.673C691.658 753.909 690.747 754.222 690.586 754.304C688.011 755.206 685.073 756.203 681.919 757.055L657.399 761.576L657.203 760.559L681.677 756.058C684.741 755.224 687.633 754.247 690.071 753.405C690.278 753.281 690.757 753.103 691.965 752.692C692.648 752.457 693.56 752.121 693.721 752.04L694.339 751.779C695.414 751.317 696.488 750.878 697.542 750.392C699.856 749.342 702.514 748.108 705.032 746.552C709.93 743.502 714.461 739.718 719.281 734.626C720.888 732.914 722.528 731.002 724.273 728.759C727.356 724.835 730.242 720.364 732.899 715.524C734.747 712.122 736.467 708.579 737.988 705.003C740.777 698.4 743.024 691.457 744.672 684.394C744.828 683.954 745.064 682.801 745.27 681.803C745.474 680.85 745.649 680.03 745.758 679.632C745.917 679.148 746.116 677.836 746.306 676.703C746.467 675.726 746.625 674.793 746.735 674.373C746.804 673.884 746.898 673.351 746.991 672.818C747.183 671.663 747.373 670.53 747.52 669.373C747.634 668.863 747.768 667.526 747.87 666.367C747.965 665.341 748.053 664.472 748.119 664.05C748.153 663.805 748.228 663.204 748.279 662.624C748.327 662.112 748.373 661.621 748.407 661.399C748.412 661.287 748.425 661.019 748.46 660.775C748.474 660.484 748.49 660.171 748.518 660.061C748.52 660.016 748.526 659.882 748.532 659.77C748.54 659.614 748.546 659.48 748.55 659.413L748.555 659.301C748.561 659.189 748.566 659.078 748.568 659.033C748.596 658.475 748.627 657.849 748.635 657.222L748.694 656.038C748.722 655.48 748.749 654.921 748.776 654.385C748.8 653.894 748.824 653.402 748.848 652.933C748.852 652.843 748.864 652.598 748.877 652.33C748.906 651.749 748.922 650.518 748.868 650.246C748.835 649.573 748.841 648.991 748.825 648.408L748.815 647.243C748.815 647.243 748.802 646.615 748.828 646.079C748.85 645.632 748.85 645.184 748.834 645.049L748.849 644.759C748.815 644.533 748.799 643.95 748.761 643.814C748.705 643.587 748.674 643.317 748.642 643.046C748.63 642.844 748.594 642.663 748.578 642.528C748.579 642.506 748.585 642.394 748.546 642.28C748.554 642.124 748.514 642.01 748.52 641.898L748.528 641.742C748.454 641.424 748.402 640.66 748.342 639.605C748.301 639.088 748.279 638.616 748.268 638.392C748.08 637.218 747.916 636.001 747.729 634.804C747.614 633.948 747.478 633.09 747.364 632.211C747.366 632.166 747.297 631.76 747.23 631.308C747.167 630.768 747.065 630.113 747.027 629.977C746.889 629.141 746.747 628.395 746.583 627.626L745.237 621.804C744.932 620.714 744.607 619.6 744.28 618.509C743.858 617.077 743.325 615.64 742.835 614.227L742.775 614.067C740.765 608.526 738.019 602.926 734.573 597.447C731.709 592.871 728.215 588.354 723.589 583.198C717.667 576.612 711.998 571.248 706.238 566.82C704.684 565.646 703.107 564.493 701.548 563.408C696.437 559.908 691.059 556.798 685.569 554.175C685.331 554.006 684.628 553.725 684.124 553.499C683.379 553.171 682.896 552.968 682.68 552.822C682.529 552.703 681.803 552.443 681.298 552.239C680.507 551.931 680.023 551.75 679.784 551.604C679.61 551.506 678.906 551.247 678.379 551.042C677.587 550.757 677.103 550.576 676.864 550.43C675.963 550.094 674.949 549.753 673.959 549.413C673.74 549.312 673.055 549.122 672.614 548.988C671.774 548.767 671.377 548.635 671.18 548.536C670.429 548.342 669.544 548.119 668.659 547.896L668.439 547.818C668.309 547.745 667.598 547.62 667.156 547.509C666.358 547.335 665.96 547.248 665.717 547.169C664.697 546.961 663.633 546.752 662.59 546.566C659.816 546.048 656.902 545.658 653.914 545.398C649.054 544.979 644.399 544.928 640.035 545.316L639.765 545.348C639.472 545.378 639.203 545.387 638.911 545.418C638.777 545.411 638.64 545.449 638.483 545.464L636.478 545.7C635.667 545.795 634.856 545.911 634.065 546.051C633.025 546.246 631.987 546.419 630.969 546.615C629.047 546.99 627.163 547.502 625.348 547.994L624.985 548.088C622.42 548.79 620.115 549.662 618.183 550.686C616.69 551.463 615.387 552.451 614.207 553.669L613.348 555.195L613.269 555.437L613.147 555.633C613.147 555.633 613.072 555.786 612.975 555.938C612.974 555.96 612.927 556.002 612.926 556.025C612.896 556.18 612.799 556.332 612.653 556.571C612.58 556.68 612.53 556.789 612.504 556.855C612.543 556.969 612.424 557.12 612.253 557.402C612.204 557.49 612.132 557.598 612.107 557.642C612.102 557.753 612.003 557.928 611.808 558.254C611.736 558.362 611.662 558.493 611.636 558.559C611.631 558.671 611.556 558.824 611.385 559.106C611.313 559.215 611.263 559.324 611.237 559.39C611.111 559.675 611.035 559.851 610.959 560.026L610.809 560.354C610.281 561.515 609.798 562.678 609.292 563.863C608.781 565.136 608.34 566.346 607.945 567.536C607.788 567.999 607.653 568.462 607.496 568.925L607.284 569.586C605.847 574.196 604.736 578.553 603.893 582.923C603.439 585.319 603.018 587.941 602.624 590.923C602.266 593.637 602.015 596.447 601.818 599.08C601.783 599.772 601.724 600.531 601.687 601.268C601.68 601.402 601.658 601.849 601.635 602.318C601.613 602.765 601.592 603.189 601.583 603.368C601.577 603.502 601.559 603.86 601.542 604.195C601.527 604.508 601.511 604.82 601.506 604.932C601.486 605.334 601.468 605.692 601.451 606.049L601.431 606.451C601.378 608.419 601.329 610.321 601.33 612.112L601.327 613.523C601.309 619.323 601.479 625.4 601.903 632.677C602.202 637.955 602.83 645.175 603.814 654.72L604.121 657.557C605.521 670.459 607.194 684.18 608.628 695.919L608.9 698.127C610.422 710.364 611.969 723.004 613.32 734.627C614.132 741.766 614.812 747.937 615.387 753.519C616.113 760.565 616.668 766.549 617.039 771.271L616.005 771.354C615.634 766.633 615.1 760.671 614.351 753.625C613.777 748.042 613.119 741.873 612.284 734.755C610.934 723.11 609.387 710.469 607.864 698.255L607.592 696.047C606.157 684.308 604.486 670.564 603.086 657.662L602.778 654.825C601.796 645.258 601.168 638.038 600.848 632.737C600.447 625.439 600.256 619.338 600.275 613.516L600.278 612.105C600.278 610.291 600.35 608.391 600.397 606.534L600.422 606.021C600.44 605.663 600.436 605.282 600.454 604.925C600.458 604.835 600.476 604.478 600.493 604.143C600.508 603.83 600.523 603.517 600.529 603.406C600.532 603.339 600.539 603.205 600.547 603.048L600.554 602.892Z" fill="#070600"/>
<path d="M627.659 918.779L628.694 918.695L636.674 1019.51C638.825 1046.65 640.245 1064.57 640.24 1064.68L639.206 1064.76C639.213 1064.61 637.77 1046.71 635.638 1019.62L627.658 918.801L627.659 918.779Z" fill="#070600"/>
<path d="M260.939 1099.5C274.38 1107.53 295.045 1123.89 295.045 1123.89C292.396 1123.58 267.032 1094.02 272.513 1094.56C274.631 1094.75 215.104 1076.81 215.104 1076.81L260.915 1099.52L260.939 1099.5Z" fill="#070600"/>
<path d="M668.166 849.965L652.797 724.238L670.704 718.942L673.408 718.135C672.637 718.791 659.077 730.371 660.875 753.774C663.127 782.955 667.754 844.256 668.189 849.944L668.166 849.965Z" fill="#070600"/>
<path d="M642.909 584.112C642.545 584.677 642.38 585.296 642.286 585.851C642.598 579.528 643.889 555.696 644.166 550.088C644.166 550.088 646.327 575.659 650.357 579.755C653.597 583.073 658.476 584.927 660.26 585.53C659.354 585.284 657.676 584.798 655.708 584.297C655.554 584.245 655.443 584.217 655.289 584.165C651.595 583.243 647.095 582.326 644.95 582.69C643.933 582.864 643.303 583.393 642.911 584.068L642.909 584.112Z" fill="#070600"/>
<path d="M642.209 587.393C642.209 587.393 642.153 586.719 642.283 585.896L642.209 587.393Z" fill="#070600"/>
<path d="M214.845 1077.06L215.167 1075.98L272.047 1094.02L271.725 1095.1L214.845 1077.06Z" fill="#070600"/>
<path d="M428.457 940.057L876.02 1199.85L854.619 1251.8L353.869 1121.65L428.457 940.057Z" fill="#EEF0F2"/>
<path d="M454.517 1148.01L353.527 1121.77L428.222 939.845L511.525 988.218C503.58 997.635 493.125 1004.84 481.281 1008.89C488.752 1020.37 492.795 1034.17 492.069 1048.84C490.632 1077.91 470.932 1101.79 444.481 1110.07C451.278 1121.14 455.045 1134.18 454.495 1148.01L454.517 1148.01Z" fill="#070600"/>
<path d="M352.445 1122.36L352.902 1121.27L427.949 938.555L428.973 939.143L877.319 1199.4L855.209 1253.02L854.324 1252.8L352.423 1122.36L352.445 1122.36ZM428.965 941.562L355.269 1120.96L853.986 1250.56L874.699 1200.3L428.965 941.562Z" fill="#070600"/>
<path d="M849.114 1184.26L1018.38 1284.69C1021.45 1286.61 1017.98 1293.83 1014.48 1292.92L830.676 1245.58C861.615 1238.49 871.423 1208.58 849.092 1184.25L849.114 1184.26Z" fill="#EA8BF3"/>
<path d="M829.649 1245.53C829.672 1245.06 830.004 1244.67 830.458 1244.56C844.908 1241.25 855.272 1232.71 858.868 1221.13C862.516 1209.4 858.689 1196.22 848.341 1184.96C848.001 1184.58 847.985 1184 848.297 1183.59C848.63 1183.18 849.194 1183.09 849.63 1183.34L1018.9 1283.78C1020.68 1284.9 1021.12 1287.34 1019.96 1289.99C1018.95 1292.34 1016.73 1294.58 1014.21 1293.92L830.403 1246.57C829.938 1246.46 829.624 1246.02 829.625 1245.55L829.627 1245.51L829.649 1245.53ZM862.252 1213.82C862.12 1216.5 861.652 1219.16 860.852 1221.77C857.362 1233.01 847.962 1241.53 834.796 1245.58L1014.76 1291.93C1016.02 1292.26 1017.39 1290.76 1018.07 1289.2C1018.65 1287.84 1018.8 1286.21 1017.84 1285.61L853.733 1188.22C859.756 1196.38 862.697 1205.28 862.274 1213.84L862.252 1213.82Z" fill="#070600"/>
<path d="M540.948 1028.08L541.441 1027.17L842.311 1189.61L841.818 1190.52L540.948 1028.08Z" fill="#070600"/>
</g>
<defs>
<clipPath id="clip0_18_214">
<rect width="1411.44" height="1035.5" fill="white" transform="translate(1103.94 51.1406) rotate(92.8308)"/>
</clipPath>
</defs>
</svg>
