<svg width="948" height="1080" viewBox="0 0 948 1080" fill="none" xmlns="http://www.w3.org/2000/svg">
<g clip-path="url(#clip0_98_524)">
<path d="M330.553 687.364C324.406 686.231 318.331 685.013 312.327 683.708C291.875 679.337 272.157 674.174 252.602 668.415C222.609 659.541 193.272 649.199 164.152 637.166C135.056 625.112 106.224 611.347 77.4868 594.741C63.1195 586.416 48.7876 577.377 34.4662 567.218C20.1671 557.059 5.8775 545.805 -8.23328 532.745C-22.3195 519.641 -36.3162 504.727 -49.4647 486.698C-51.0787 484.469 -52.705 482.037 -54.3124 479.673C-55.8962 477.288 -57.5069 474.991 -59.0394 472.474L-63.6316 464.812L-65.8809 460.938L-68.1124 456.707C-69.6061 453.856 -71.0327 451.008 -72.4371 448.162C-73.8593 445.225 -75.2427 441.954 -76.5656 438.82C-79.3455 432.546 -81.5325 426.055 -83.6737 419.544C-91.9672 393.447 -94.7822 365.694 -92.0931 338.482C-91.8508 336.299 -91.5416 334.119 -91.2322 331.94C-91.0609 330.739 -90.8884 329.516 -90.6948 328.316C-90.1471 324.939 -89.7111 321.556 -88.8965 318.215C-87.379 311.526 -85.9296 304.857 -83.7274 298.359C-82.6927 295.096 -81.6133 291.835 -80.5128 288.597C-79.3251 285.408 -78.0044 282.249 -76.7039 279.043L-74.7017 274.327C-74.0202 272.771 -73.332 271.08 -72.6402 269.771L-68.4432 261.423C-57.0196 239.615 -43.8614 222.125 -30.4317 206.843C-17.8401 192.662 -4.95832 180.31 7.93879 169.459C8.84864 168.72 9.76064 167.936 10.6705 167.197C16.2075 162.544 21.7214 158.36 27.1261 154.574L26.9785 154.387L96.1404 106.096L100.147 127.413C100.624 127.728 101.076 128.108 101.435 128.529C101.649 128.741 101.815 128.996 101.961 129.227L108.037 139.023L186.924 265.853L192.673 268.691L198.883 289.826L125.956 342.702C125.554 343.13 125.176 343.536 124.819 343.967C119.983 349.394 116.648 354.335 115.282 357.044C115.111 357.349 114.961 357.656 114.768 357.937C114.602 358.131 114.761 358.071 114.759 358.116C114.759 358.116 114.759 358.116 114.757 358.161C114.757 358.161 114.668 358.156 114.643 358.2C114.686 358.247 114.706 358.292 114.682 358.314C114.504 358.305 114.743 358.451 114.586 358.443C114.475 358.438 114.628 358.513 114.582 358.533C114.582 358.533 114.513 358.574 114.512 358.596C114.636 358.804 114.489 359.043 114.614 359.251C114.725 359.256 114.562 359.383 114.719 359.39C114.761 359.437 114.629 359.386 114.711 359.547C114.857 359.756 114.98 359.986 115.103 360.216C115.141 360.352 115.203 360.467 115.241 360.603L115.66 361.184C115.908 361.599 116.135 361.991 116.36 362.428L118.363 365.393C121.531 369.693 126.366 375.173 132.533 380.875C144.885 392.37 162.11 404.487 181.182 415.486C200.296 426.531 221.399 436.757 243.387 445.839C256.774 451.361 270.491 456.519 284.365 461.236C293.284 464.275 302.256 467.137 311.238 469.798L330.552 687.386L330.553 687.364Z" fill="#EA8BF3"/>
<path d="M-93.8121 348.341C-93.6486 345.034 -93.3947 341.71 -93.0748 338.411C-92.8314 336.206 -92.521 334.004 -92.2117 331.825C-92.0404 330.624 -91.8679 329.401 -91.6742 328.201L-91.3415 326C-90.9431 323.377 -90.5179 320.666 -89.8704 317.988L-89.5284 316.504C-88.1524 310.414 -86.7207 304.102 -84.6745 298.044C-83.641 294.803 -82.5606 291.52 -81.46 288.282C-80.4518 285.555 -79.3309 282.811 -78.2378 280.177L-75.0946 272.763C-74.5881 271.579 -74.0561 270.328 -73.5127 269.303L-69.3167 260.977C-59.2766 241.788 -47.1525 224.381 -31.1601 206.181C-19.2562 192.772 -6.31757 180.176 7.32753 168.69L10.0816 166.43C15.0806 162.243 20.3421 158.18 25.7266 154.348L25.5802 154.14L96.9224 104.321L101.162 126.814C101.593 127.149 101.979 127.504 102.295 127.9C102.508 128.112 102.695 128.413 102.884 128.669L187.701 265.086L193.58 267.997L200.115 290.268L126.608 343.563C126.37 343.842 125.992 344.249 125.635 344.679C120.703 350.214 117.507 355.072 116.266 357.542C116.118 357.803 115.993 358.066 115.847 358.305L115.866 359.291C115.948 359.429 116.03 359.59 116.133 359.775L116.272 360.14L116.585 360.603C116.874 361.088 117.122 361.503 117.368 361.963L119.308 364.859C122.77 369.554 127.741 374.995 133.308 380.153C145.36 391.364 162.103 403.278 181.762 414.619C200.419 425.418 221.322 435.612 243.837 444.899C257.223 450.421 270.986 455.581 284.749 460.27C293.689 463.332 302.706 466.197 311.577 468.83L312.261 469.043L331.763 688.701L330.41 688.455C324.352 687.327 318.21 686.105 312.162 684.798C293.039 680.717 273.47 675.696 252.348 669.478C221.826 660.444 192.864 650.21 163.81 638.203C132.3 625.156 103.899 611.255 77.0351 595.727C61.5785 586.789 47.4699 577.76 33.9273 568.154C18.1356 556.937 4.13966 545.63 -8.88046 533.609C-24.9579 518.66 -38.4969 503.545 -50.2382 487.4C-51.3906 485.797 -52.5608 484.105 -53.7077 482.391L-56.3791 478.451C-57.5472 476.714 -58.7153 474.977 -59.8555 473.128L-66.6958 461.57L-68.9475 457.293C-70.4411 454.442 -71.8901 451.594 -73.2923 448.702C-74.7335 445.697 -76.1783 442.311 -77.4409 439.315C-80.2801 432.881 -82.5263 426.231 -84.5892 419.948C-91.8579 397.125 -94.9884 372.582 -93.792 348.387L-93.8121 348.341ZM28.614 154.827L27.7554 155.434C22.1175 159.41 16.6014 163.639 11.3691 168.016L8.61504 170.277C-4.93628 181.678 -17.8046 194.21 -29.6371 207.533C-45.5112 225.605 -57.5382 242.859 -67.5036 261.896L-71.6995 270.221C-72.2172 271.181 -72.7248 272.387 -73.2301 273.549L-76.3499 280.942C-77.4206 283.577 -78.5394 286.276 -79.523 288.96C-80.6225 292.175 -81.6784 295.415 -82.713 298.679C-84.7324 304.648 -86.1384 310.894 -87.5122 316.94L-87.8554 318.446C-88.4761 321.036 -88.899 323.702 -89.2952 326.28L-89.628 328.481C-89.7982 329.66 -89.993 330.882 -90.1644 332.083C-90.4737 334.262 -90.8053 336.441 -91.0241 338.602C-93.7066 365.68 -90.8077 393.549 -82.6507 419.237C-80.6069 425.452 -78.4031 432.056 -75.5829 438.421C-74.3193 441.395 -72.8956 444.758 -71.4745 447.717C-70.0702 450.564 -68.6436 453.411 -67.1488 456.24L-64.9172 460.471L-58.1182 471.96C-56.9993 473.785 -55.8513 475.476 -54.7045 477.19L-52.0331 481.13C-50.8851 482.821 -49.7361 484.491 -48.6061 486.092C-36.9263 502.122 -23.4934 517.12 -7.52436 531.996C5.40864 543.968 19.3397 555.228 35.0678 566.374C48.568 575.933 62.6106 584.936 78.0013 593.849C104.801 609.328 133.114 623.18 164.536 636.201C193.524 648.182 222.42 658.39 252.875 667.421C273.93 673.636 293.455 678.632 312.535 682.689C318.117 683.905 323.794 685.037 329.385 686.075L310.26 470.557C301.588 467.978 292.77 465.168 284.028 462.183C270.22 457.491 256.413 452.307 243.006 446.762C220.404 437.425 199.435 427.206 180.691 416.358C160.902 404.921 144.008 392.91 131.848 381.603C126.196 376.352 121.118 370.816 117.55 365.981L115.527 362.97C115.261 362.464 115.034 362.072 114.806 361.702L114.287 360.87C114.208 360.665 114.19 360.574 114.15 360.483C114.15 360.483 114.046 360.321 113.92 360.158L113.291 359.276L113.572 359.043C113.572 359.043 113.575 358.976 113.576 358.954L113.383 358.787L113.487 358.479L113.189 358.173L113.775 357.642C113.775 357.642 113.85 357.489 113.898 357.424L113.899 357.402C113.899 357.402 113.969 357.338 113.97 357.316C114.116 357.099 114.263 356.838 114.388 356.575C115.679 354.019 118.995 348.987 124.047 343.28C124.426 342.85 124.806 342.421 125.208 341.993L197.671 289.43L191.808 269.432L186.213 266.647L186.046 266.393L101.083 129.766C100.958 129.581 100.833 129.396 100.705 129.255C100.368 128.835 100.025 128.527 99.5902 128.259L99.2216 128.017L95.4266 107.853L28.4441 154.639L28.5693 154.825L28.614 154.827Z" fill="#070600"/>
<path d="M241.958 446.218C241.958 446.218 274.802 486.631 283.684 523.463C296.151 575.209 310.577 683.332 310.577 683.332L312.742 683.013L286.185 472.883L284.21 460.759L241.958 446.218Z" fill="#070600"/>
<path d="M-53.7116 343.895C-53.1283 332.099 -51.3443 320.474 -48.3651 309.133C-40.6973 279.502 -21.5673 249.475 8.51248 219.899C34.1975 194.519 63.7932 174.281 92.4165 154.689C99.0906 150.137 105.372 145.834 111.635 141.44L112.242 142.299C105.979 146.692 99.6752 150.994 93.0235 155.548C64.447 175.097 34.8971 195.315 9.26006 220.63C-20.7015 250.077 -39.7332 279.93 -47.3475 309.385C-52.7542 329.968 -54.1966 351.441 -51.6685 373.222C-40.189 472.555 54.5991 537.284 110.072 567.036C175.06 601.783 248.339 627.824 322.008 642.351L321.801 643.371C248.043 628.84 174.654 602.748 109.579 567.953C53.9317 538.102 -41.1805 473.133 -52.7038 373.328C-53.8495 363.44 -54.191 353.591 -53.7116 343.895Z" fill="#070600"/>
<path d="M-10.2963 341.248C-9.98922 335.038 -9.28005 328.847 -8.19223 322.697C-3.97115 298.92 12.8257 273.055 41.7363 245.841C64.6123 224.285 91.0519 206.287 114.387 190.398C120.643 186.139 126.553 182.109 132.166 178.176L132.773 179.034C127.159 182.967 121.228 186.996 114.97 191.278C91.6812 207.147 65.265 225.123 42.4593 246.615C13.7128 273.681 -2.98475 299.349 -7.17244 322.904C-10.1843 339.888 -10.1905 357.222 -7.16781 374.437C6.62407 454.175 84.7968 506.684 130.154 530.874C187.935 561.502 252.92 585.006 318.136 598.846L317.929 599.866C252.647 586 187.551 562.468 129.684 531.792C94.3616 512.957 64.866 491.32 42.0401 467.483C14.4012 438.636 -2.50489 407.387 -8.16172 374.611C-10.0988 363.519 -10.8007 352.354 -10.2528 341.273L-10.2963 341.248Z" fill="#070600"/>
<path d="M31.9132 337.625C31.9342 337.201 31.9563 336.754 31.9773 336.329C33.3799 313.399 56.1257 288.589 74.9579 271.828C94.8217 254.132 117.824 238.629 136.286 226.172C142.216 222.188 147.799 218.41 152.694 214.979L153.301 215.838C148.406 219.269 142.823 223.047 136.892 227.053C118.431 239.488 95.4732 254.993 75.6575 272.624C48.8615 296.471 34.1109 318.541 33.025 336.426C32.1998 349.039 33.6958 362.259 37.3328 375.652C52.6224 432.8 107.182 471.958 150.236 494.736C200.808 521.245 257.544 542.213 314.261 555.387L314.032 556.405C257.226 543.205 200.402 522.21 149.764 495.676C106.514 472.799 51.717 433.45 36.3334 375.939C32.7903 362.908 31.299 350.047 31.9099 337.692L31.9132 337.625Z" fill="#070600"/>
<path d="M71.9111 345.672C72.5198 333.362 84.7127 317.281 108.226 297.772C125.038 283.845 144.485 270.943 158.699 261.546C164.463 257.732 169.441 254.418 173.269 251.718L173.876 252.577C170.047 255.299 165.046 258.612 159.282 262.426C145.091 271.824 125.689 284.705 108.903 298.589C82.8213 320.21 70.8177 337.444 73.229 349.813C75.0501 359.175 77.9611 368.233 81.839 376.756C99.6014 415.594 139.779 442.642 170.344 458.509C213.922 481.111 261.066 499.052 310.415 511.816L310.163 512.834C260.726 500.043 213.515 482.098 169.872 459.448C139.154 443.507 98.782 416.315 80.8989 377.202C76.9573 368.608 74.0284 359.461 72.2117 350.009C71.9441 348.63 71.8371 347.169 71.9111 345.672Z" fill="#070600"/>
<path d="M199.665 289.866L89.2621 110.706L172.924 58.0927L-26.3732 48.2381C-34.9956 47.8117 -41.6415 40.4733 -41.2151 31.8496L-32.5918 -142.544C-32.1654 -151.168 -24.8279 -157.815 -16.2055 -157.388L15.8714 -155.802C402.44 -135.165 409.658 -17.1189 404.877 64.1648C398.502 172.267 199.688 289.845 199.688 289.845L199.665 289.866Z" fill="#EEF0F2"/>
<path d="M-42.2437 31.8213L-33.6194 -142.595C-33.1653 -151.777 -25.3355 -158.87 -16.1547 -158.416L15.9222 -156.83C203.634 -146.809 320.393 -113.399 372.845 -54.7048C407.536 -15.8799 408.121 27.0815 405.903 64.2381C402.587 120.444 346.775 179.07 300.54 218.351C250.543 260.826 200.688 290.454 200.181 290.743L199.305 291.259L198.766 290.381L87.8021 110.343L169.546 58.9336L-26.4453 49.2424C-35.6261 48.7885 -42.7178 40.9577 -42.2638 31.7755L-42.2437 31.8213ZM404.129 58.9098C405.886 23.3876 403.868 -16.8675 371.297 -53.3032C319.228 -111.576 202.951 -144.76 15.8184 -154.73L-16.2586 -156.316C-24.3001 -156.714 -31.1464 -150.49 -31.543 -142.47L-40.1663 31.924C-40.564 39.9668 -34.3416 46.814 -26.3224 47.2105L176.281 57.2287L90.7007 111.046L200.026 288.451C214.384 279.754 397.786 166.812 403.848 64.1365C403.933 62.4162 404.042 60.6747 404.129 58.9098Z" fill="#070600"/>
<path d="M311.991 180.599C311.191 180.021 314.52 176.088 318.89 171.489C339.625 150.678 356.667 128.006 367.597 104.404C373.017 92.6003 377.238 80.6034 379.641 68.2255C382.154 55.8978 382.918 43.1701 381.698 30.2547C380.477 17.3616 376.973 4.44526 371.663 -7.26148C366.354 -18.9906 359.353 -29.5715 351.184 -39.1577C334.795 -58.2205 313.236 -73.7317 287.743 -85.7421C262.319 -97.7939 233.476 -106.364 204.087 -112.498C196.954 -114.06 188.609 -115.57 183.437 -116.476L175.977 -117.763L168.955 -118.871C159.622 -120.318 150.369 -121.582 141.177 -122.708C104.427 -127.146 68.5342 -129.458 32.8344 -130.686C28.9666 -130.81 25.8289 -131.659 25.8519 -132.576C25.8971 -133.492 29.0865 -134.141 32.9543 -134.017C68.7211 -132.786 104.703 -130.469 141.586 -126.003C150.801 -124.875 160.076 -123.61 169.476 -122.16L176.519 -121.028L184.002 -119.762C189.218 -118.832 197.742 -117.314 205.007 -115.7C234.926 -109.428 264.254 -100.699 290.047 -88.4053C315.907 -76.1079 337.695 -60.2719 354.198 -40.8003C362.448 -31.031 369.463 -20.2925 374.785 -8.36125C380.131 3.52642 383.67 16.6461 384.95 29.6988C386.207 42.7728 385.5 55.7049 383.046 68.2147C380.702 80.7523 376.492 92.9737 371.062 104.978C360.067 128.98 342.824 152.091 321.758 173.265C317.338 177.974 312.684 181.081 311.949 180.552L311.991 180.599Z" fill="black"/>
<path d="M25.0913 -132.592C25.2073 -134.937 31.6963 -134.84 32.993 -134.799C72.8733 -133.431 108.437 -130.799 141.692 -126.781C151.063 -125.646 160.449 -124.353 169.604 -122.937L184.153 -120.538C188.548 -119.761 197.671 -118.145 205.18 -116.475C238.157 -109.559 266.834 -100.348 290.395 -89.1045C316.954 -76.4591 338.619 -60.3828 354.806 -41.3076C363.437 -31.0939 370.417 -20.1108 375.518 -8.68322C380.944 3.3876 384.476 16.6413 385.738 29.6259C386.979 42.5648 386.334 55.6119 383.822 68.3652C381.603 80.1923 377.669 92.2706 371.784 105.305C361.215 128.41 344.58 151.461 322.335 173.832C319.687 176.657 313.265 182.453 311.536 181.203C311.276 181.011 311.133 180.735 311.082 180.419C311.01 179.61 311.486 178.133 318.292 170.922C340.11 149.023 356.448 126.539 366.875 104.054C372.697 91.3753 376.617 79.5874 378.866 68.053C381.41 55.5476 382.106 42.8389 380.912 30.3055C379.722 17.6828 376.284 4.79207 370.954 -6.96046C365.905 -18.072 359.065 -28.7346 350.6 -38.6713C334.677 -57.196 313.413 -72.7821 287.419 -85.0637C264.27 -96.04 236.187 -105.021 203.939 -111.766C196.563 -113.385 187.84 -114.959 183.311 -115.743L168.852 -118.137C159.719 -119.552 150.378 -120.842 141.096 -121.973C107.952 -125.986 72.5442 -128.588 32.8203 -129.947C31.5247 -130.011 25.0244 -130.333 25.0935 -132.636L25.0913 -132.592ZM384.67 48.9453C384.985 42.5782 384.831 36.1878 384.229 29.7977C382.982 16.9705 379.486 3.89777 374.12 -8.03569C369.08 -19.3259 362.182 -30.1705 353.636 -40.2904C337.597 -59.2015 316.082 -75.1361 289.742 -87.6811C266.291 -98.8739 237.724 -108.035 204.879 -114.922C197.393 -116.592 188.27 -118.207 183.897 -118.983L169.371 -121.381C160.237 -122.796 150.874 -124.088 141.525 -125.222C108.292 -129.239 72.7959 -131.868 32.9603 -133.233C29.7191 -133.348 27.6141 -132.892 26.8806 -132.548C27.6 -132.154 29.6542 -131.582 32.8954 -131.467C72.664 -130.105 108.117 -127.501 141.305 -123.486C150.609 -122.354 159.972 -121.062 169.106 -119.648L183.587 -117.252C188.139 -116.467 196.861 -114.893 204.26 -113.273C236.64 -106.499 264.835 -97.4902 288.092 -86.4637C314.285 -74.1052 335.72 -58.3761 351.792 -39.6873C360.365 -29.6557 367.287 -18.8547 372.397 -7.60578C377.785 4.32879 381.282 17.3792 382.487 30.1594C383.673 42.8492 382.993 55.6931 380.419 68.3537C378.163 80.0222 374.194 91.8972 368.321 104.708C357.818 127.368 341.382 150.004 319.447 172.009C315.242 176.437 313.615 178.551 313.007 179.529C314.523 178.753 317.751 176.427 321.225 172.724C343.353 150.46 359.891 127.56 370.385 104.631C376.218 91.7285 380.124 79.7608 382.315 68.0443C383.569 61.7012 384.355 55.3125 384.674 48.8783L384.67 48.9453Z" fill="#EEF0F2"/>
<path d="M185.794 79.4904C184.781 79.1491 184.532 78.2858 185.175 77.5114C187.761 74.571 190.115 71.3505 191.615 67.7294C193.159 64.1328 193.57 59.898 191.821 56.3178C190.117 52.7398 186.932 50.1412 183.603 48.1626C180.208 46.1806 176.541 44.7227 172.815 43.5307C169.091 42.3164 165.263 41.3881 161.429 40.5938L158.546 40.0257L152.107 38.9011C145.912 37.8557 139.621 36.9175 133.261 36.0208C107.773 32.5209 81.2595 30.2693 54.4608 28.8098C50.9985 28.6386 48.2215 27.7398 48.2657 26.8462C48.3099 25.9525 51.1843 25.3332 54.6467 25.5044C81.5112 26.9896 108.092 29.2221 133.714 32.751C140.12 33.6276 146.433 34.5669 152.672 35.6368L159.31 36.7937L162.527 37.4007C166.804 38.3064 171.03 39.344 175.195 40.6922C179.362 42.018 183.445 43.6756 187.21 45.8774C190.93 48.0769 194.504 50.9635 196.39 54.9536C197.321 56.9481 197.796 59.1215 197.664 61.3322C197.6 63.5238 197.002 65.6666 196.185 67.6866C194.485 71.7233 191.846 75.2881 188.995 78.5961C188.236 79.4544 186.785 79.8305 185.794 79.4904Z" fill="black"/>
<path d="M47.484 26.8073C47.6011 24.4391 53.9706 24.6869 54.6854 24.7223C84.2082 26.3388 110.11 28.717 133.82 31.9722C140.937 32.9512 147.161 33.886 152.8 34.8591L162.676 36.6464C167.619 37.6747 171.665 38.7257 175.455 39.9657C180.217 41.4778 184.207 43.198 187.623 45.2257C192.322 48.0111 195.438 51.0991 197.121 54.6536C198.133 56.8312 198.574 59.227 198.466 61.4164C198.434 63.4304 197.902 65.5765 196.931 68.0144C195.433 71.5908 193.181 75.018 189.618 79.1417C188.668 80.237 186.897 80.7316 185.575 80.2856C184.827 80.0246 184.313 79.5513 184.143 78.9158C183.972 78.3026 184.139 77.639 184.614 77.0803C187.628 73.646 189.637 70.6099 190.932 67.5162C192.575 63.723 192.656 59.8078 191.15 56.7547C189.75 53.8188 187.168 51.25 183.23 48.9277C180.248 47.1902 176.871 45.7467 172.596 44.3483C169.223 43.2633 165.531 42.3193 161.297 41.4381L158.414 40.87L151.976 39.7454C145.869 38.7267 139.534 37.7641 133.151 36.8885C109.241 33.6235 83.4949 31.253 54.4178 29.6809C53.2339 29.6223 47.3669 29.1754 47.4796 26.8967L47.484 26.8073ZM196.887 61.2039C196.985 59.2156 196.571 57.1795 195.679 55.2766C194.139 52.0202 191.235 49.1444 186.819 46.5297C183.49 44.5734 179.609 42.9034 174.958 41.4193C171.233 40.2049 167.231 39.1784 162.355 38.1535L159.139 37.5465L152.523 36.3907C146.904 35.441 140.704 34.485 133.608 33.5294C109.944 30.2765 84.1085 27.9016 54.6081 26.2861C51.6819 26.1414 49.8024 26.5636 49.1816 26.8912C49.7671 27.2785 51.5733 27.8829 54.4985 28.05C83.6202 29.6243 109.411 31.997 133.344 35.2632C139.727 36.1387 146.083 37.1025 152.212 38.1446L161.578 39.8395C165.878 40.724 169.637 41.6937 173.053 42.8032C177.439 44.2294 180.925 45.7232 183.994 47.5098C188.215 50.0029 191.011 52.7838 192.53 56.0167C194.218 59.4819 194.134 63.8897 192.337 68.0784C190.967 71.3252 188.884 74.5143 185.753 78.0548C185.635 78.1833 185.582 78.3375 185.599 78.4503C185.638 78.5642 185.789 78.6836 186.031 78.7628C186.736 78.9992 187.85 78.6736 188.394 78.0734C191.839 74.0781 194.017 70.7817 195.439 67.3807C196.334 65.1406 196.812 63.171 196.859 61.3145C196.861 61.2698 196.862 61.2475 196.864 61.2028L196.887 61.2039Z" fill="#EEF0F2"/>
<path d="M246.242 222.81C245.719 222.068 247.949 219.535 251.203 217.143L255.106 214.29L259.57 210.95L263.991 207.585L269.561 203.18C273.334 200.231 277.085 197.281 280.708 194.213C284.351 191.168 288.041 188.103 291.556 184.94C305.812 172.432 319.097 159.159 330.602 145.215C333.505 141.753 336.167 138.189 338.872 134.65C341.358 131.033 344.062 127.516 346.348 123.844C351.119 116.578 355.225 109.166 358.82 101.662C366.013 86.6322 370.742 71.1444 372.57 54.998C373.188 49.7432 374.056 45.3293 374.956 45.2395C375.902 45.1295 376.562 49.4397 375.984 54.7861C374.19 71.1581 369.514 86.9173 362.309 102.216C358.729 109.855 354.594 117.399 349.748 124.819C347.46 128.535 344.728 132.163 342.218 135.823C339.465 139.427 336.756 143.033 333.826 146.584C322.152 160.788 308.651 174.341 294.137 187.083C290.574 190.311 286.816 193.395 283.102 196.504C279.431 199.659 275.588 202.649 271.744 205.662L266.082 210.13L261.592 213.536L257.081 216.918L253.177 219.794C249.901 222.185 246.788 223.554 246.244 222.788L246.242 222.81Z" fill="black"/>
<path d="M245.407 222.499C245.504 220.533 249.416 217.502 250.763 216.516L259.109 210.322L263.529 206.957L269.098 202.574C272.708 199.752 276.575 196.718 280.245 193.607L280.993 192.972C284.333 190.181 287.813 187.285 291.07 184.356C306.145 171.126 319.232 157.798 330.044 144.717C332.353 141.964 334.532 139.093 336.662 136.332L338.314 134.174C339.134 132.983 340.001 131.749 340.889 130.539C342.549 128.225 344.257 125.823 345.741 123.433C350.294 116.492 354.369 109.258 358.188 101.317C365.505 86.0243 370.106 70.4181 371.859 54.895C373.059 44.6524 374.23 44.5311 374.928 44.4536C375.266 44.4032 375.596 44.5314 375.874 44.7916C377.092 45.9716 377.258 50.7724 376.831 54.8721C375.076 70.8878 370.454 86.9185 363.075 102.566C359.246 110.708 355.14 118.12 350.466 125.257C348.908 127.778 347.127 130.287 345.416 132.734C344.573 133.924 343.754 135.093 342.934 136.284L341.115 138.657C339.007 141.442 336.805 144.312 334.495 147.087C323.439 160.56 310.045 174.208 294.713 187.671C291.712 190.389 288.513 193.053 285.407 195.632L283.655 197.09C279.961 200.245 276.071 203.3 272.274 206.27L266.612 210.738L253.683 220.423C251.243 222.206 248.086 224.02 246.531 223.764C246.064 223.697 245.786 223.436 245.661 223.251C245.493 223.019 245.438 222.77 245.453 222.479L245.407 222.499ZM374.986 46.4497C374.578 47.4597 373.96 49.9823 373.372 55.0818C371.589 70.7601 366.935 86.5429 359.543 101.989C355.699 109.995 351.598 117.295 347.021 124.28C345.512 126.714 343.781 129.114 342.121 131.451C341.255 132.662 340.388 133.873 339.544 135.108L337.869 137.287C335.738 140.071 333.536 142.941 331.227 145.716C320.388 158.863 307.209 172.254 292.087 185.526C288.806 188.476 285.326 191.373 281.985 194.186L281.238 194.799C277.569 197.909 273.701 200.965 270.068 203.787L260.077 211.557L251.71 217.75C248.99 219.765 247.518 221.462 247.1 222.225C247.936 222.065 249.994 221.203 252.758 219.19L265.641 209.547L271.28 205.078C275.054 202.13 278.944 199.075 282.615 195.942L284.366 194.483C287.45 191.903 290.648 189.262 293.626 186.542C308.912 173.122 322.237 159.515 333.244 146.129C335.53 143.375 337.709 140.504 339.817 137.742L341.612 135.39C342.408 134.242 343.251 133.052 344.093 131.862C345.803 129.438 347.561 126.95 349.095 124.45C353.745 117.357 357.826 109.989 361.607 101.912C368.912 86.4167 373.503 70.5413 375.226 54.7256C375.648 50.7152 375.349 47.6994 374.985 46.472L374.986 46.4497Z" fill="#EEF0F2"/>
<path d="M207.777 284.308C204.819 286.155 201.863 287.98 198.905 289.827L87.9019 111.041L88.4802 110.666C91.1821 109.008 93.8617 107.349 96.52 105.666C98.0685 104.69 100.105 105.172 101.08 106.743L115.579 130.505L197.379 260.458L198.605 262.377L199.268 263.463L199.413 263.716L208.808 279.746L208.871 279.838C209.78 281.384 209.302 283.353 207.777 284.308Z" fill="black"/>
<path d="M198.629 262.355L197.402 260.458L197.513 260.464L198.629 262.355Z" fill="black"/>
<path d="M501.144 484.362C503.008 483.805 504.869 483.293 506.752 482.803C508.439 482.193 510.102 481.625 511.808 481.083C512.538 480.805 513.27 480.505 513.977 480.249L496.07 485.545C498.151 485.11 499.171 484.87 501.12 484.384L501.144 484.362ZM488.267 344C490.412 343.635 494.913 344.552 498.607 345.474C498.298 345.369 497.99 345.264 497.682 345.159C497.083 345.04 496.483 344.943 495.908 344.803C495.31 344.661 494.736 344.499 494.14 344.335L492.493 344.119C491.961 344.025 491.429 343.91 490.875 343.793C490.361 343.767 489.892 343.744 489.401 343.72C488.909 343.695 488.488 343.607 488.045 343.518C487.931 343.557 487.971 343.649 487.904 343.646C487.469 343.378 487.028 343.692 486.704 343.922C486.695 344.101 486.517 344.07 486.466 344.202C486.414 344.333 486.367 344.398 486.315 344.53C486.315 344.53 486.313 344.575 486.312 344.597C486.31 344.642 486.307 344.686 486.305 344.731C486.303 344.776 486.301 344.821 486.299 344.865L486.303 344.776C486.303 344.776 486.299 344.865 486.296 344.91L486.272 345.401C486.664 344.727 487.294 344.198 488.311 344.024L488.267 344Z" fill="#EA8BF3"/>
<path d="M485.44 347.734L485.717 344.859C485.717 344.859 485.725 344.702 485.776 344.571L485.784 344.414L485.962 343.975C486.013 343.843 486.107 343.758 486.177 343.695L486.182 343.605L486.392 343.436L486.957 342.412L486.923 343.104C487.176 342.982 487.493 342.909 487.824 342.992C487.824 342.992 487.824 342.992 487.847 342.993L487.983 342.955L488.117 342.962C488.56 343.051 488.96 343.116 489.428 343.161C489.741 343.177 490.054 343.192 490.367 343.207L490.88 343.233C491.5 343.375 492.033 343.469 492.566 343.563L494.19 343.777L494.875 343.968C495.25 344.076 495.625 344.184 496.003 344.248C496.578 344.388 497.155 344.484 497.754 344.603L498.283 344.786C498.437 344.838 498.591 344.891 498.745 344.943L498.445 346.026C493.38 344.767 489.977 344.286 488.351 344.564C487.605 344.706 487.073 345.06 486.683 345.69L485.417 347.755L485.44 347.734ZM495.919 484.977L513.825 479.682L514.176 480.752C513.719 480.931 513.218 481.107 512.737 481.308L512.007 481.585C510.483 482.07 508.934 482.598 506.928 483.327C504.863 483.874 503.046 484.389 501.297 484.885C499.303 485.369 498.283 485.609 496.201 486.066L495.919 484.977Z" fill="#070600"/>
<path d="M205.043 1111.71C225.973 1111.85 246.092 1110.27 265.5 1107.67L269.152 1107.18C270.414 1107.02 271.518 1106.89 272.942 1106.63L281.027 1105.24L289.093 1103.78L293.139 1103.01L297.262 1102.05C302.791 1100.74 308.275 1099.42 313.766 1097.96C319.379 1096.29 324.954 1094.51 330.528 1092.72C352.945 1084.99 375.763 1074.11 397.021 1059.46C418.296 1044.93 437.696 1026.65 453.398 1006.62C469.188 986.617 481.358 965.114 490.532 943.978C499.731 922.776 506.116 901.883 510.786 881.69C515.367 861.514 518.213 841.991 520.113 823.049C521.991 804.083 522.925 785.653 523.093 767.767C523.263 749.836 522.921 732.284 522.068 715.131C521.694 707.297 521.227 699.525 520.669 691.793C531.709 689.965 542.128 687.569 553.512 684.683L567.886 680.646C572.735 679.027 577.586 677.385 582.46 675.723C592.201 672.106 601.983 668.088 611.808 663.221C631.383 653.619 650.898 641.169 668.706 625.656C686.511 610.187 702.426 591.736 715.052 571.891C727.678 552.023 737.026 530.986 743.621 510.372C750.219 489.691 754.179 469.395 756.376 449.863C756.654 447.413 756.954 444.964 757.186 442.535L757.722 435.327C757.885 432.939 758.093 430.531 758.21 428.162L758.471 421.076L758.579 417.543L758.665 415.8L758.664 414.904L758.672 413.852L758.553 405.381C758.429 399.731 758.373 394.084 757.734 388.432L756.9 379.947C756.592 377.11 756.35 374.299 755.84 371.496C754.908 365.874 753.933 360.249 752.865 354.665C751.55 349.113 750.165 343.602 748.714 338.088C747.239 332.595 745.308 327.259 743.536 321.886C735.97 300.55 725.748 280.404 713.512 262.039C701.276 243.652 687.051 227.025 671.344 212.273C655.59 197.587 638.312 184.728 619.705 173.842C601.074 162.977 581.051 154.014 559.607 147.512L551.552 145.12L543.255 143.098L534.929 141.208C532.089 140.664 529.202 140.186 526.358 139.732L517.738 138.365C514.821 138.019 511.857 137.738 508.893 137.457L499.929 136.678C496.601 136.513 493.132 136.476 489.709 136.419C480.378 136.293 471.064 136.706 461.791 137.681C443.849 139.593 426.185 143.602 409.379 149.736C406.206 150.945 402.976 151.973 399.905 153.389C396.814 154.759 393.723 156.151 390.651 157.589C384.468 160.352 378.656 163.782 372.845 167.19C361.197 174.049 350.682 182.465 340.337 191.069L336.294 194.945C336.021 195.021 336.114 195.406 335.904 195.575L335.432 196.067L334.42 197.069L332.441 199.054L328.501 203.092L326.565 205.124C325.948 205.833 325.395 206.589 324.8 207.299C322.439 210.228 320.142 213.205 317.891 216.162C315.746 219.236 313.687 222.381 311.628 225.527C303.698 238.259 297.09 251.907 292.39 266.343C289.798 273.471 287.975 280.906 286.132 288.295C284.399 295.712 283.084 303.284 281.86 310.838C281.545 312.681 281.285 314.773 281.075 316.756L280.411 322.479L279.956 326.689C279.799 328.07 279.735 329.366 279.624 330.704C279.229 335.97 278.756 341.456 278.645 346.422C278.582 347.696 278.52 348.947 278.504 350.178C277.86 369.093 278.386 386.52 279.329 403.229C280.353 421.017 281.883 438.069 283.665 454.573C283.914 456.78 284.142 458.963 284.393 461.126C287.824 491.821 291.905 521.137 295.883 549.843C300.164 580.535 304.306 610.437 307.762 639.722C309.515 654.545 311.052 669.2 312.354 683.62C313.63 697.658 314.606 711.435 315.28 724.973C316.524 752.357 316.513 778.85 314.09 802.492C312.9 814.326 311.207 825.462 308.966 835.474C306.66 845.416 303.809 854.166 300.677 861.357C297.521 868.569 294.157 874.113 290.789 878.381C287.397 882.67 283.994 885.816 279.773 888.765C275.532 891.669 270.272 894.343 263.458 896.738C261.663 897.254 259.888 897.838 258.089 898.443C256.096 898.905 254.059 899.341 252.062 899.87L250.565 900.266C250.043 900.397 249.459 900.435 248.894 900.542L245.552 901.115L242.229 901.735C241.754 901.846 240.922 901.917 240.245 902.017L238.15 902.272C215.646 905.437 195.105 905.116 178.373 902.049C169.96 900.558 162.572 898.266 156.04 895.413C149.487 892.536 143.648 889.268 138.347 885.065C137.7 884.562 137.032 884.037 136.363 883.533L134.431 881.847C133.093 880.818 131.951 879.463 130.618 878.344C128.215 875.762 125.698 873.241 123.428 870.24C122.197 868.858 121.184 867.173 119.98 865.702C118.944 864.016 117.742 862.501 116.733 860.727L115.509 858.763L115.405 858.601C115 857.73 114.806 856.667 115.165 855.745C115.314 855.461 115.619 855.633 115.815 855.732L116.497 855.99L187.061 879.411L196.933 882.654L264.99 729.899L270.881 717.179L271.956 701.331L261.854 695.949L229.427 679.251C225.625 677.361 221.621 675.461 217.478 673.644C215.263 672.705 213.049 671.745 210.789 670.804L139.901 641.701L97.3013 624.231L76.0138 615.475L65.3688 611.119C63.5905 610.404 61.8165 609.599 60.056 608.975L54.8572 607.239L49.6584 605.504C48.7982 605.238 47.8978 604.88 47.0791 604.682L44.7011 604.318L35.1679 602.839L25.6113 601.381L23.2333 601.017C22.5163 601.027 21.8641 601.084 21.1906 601.118L17.1254 601.365L0.931543 602.356L-1.08876 602.457C-1.42601 602.486 -1.7857 602.513 -2.10063 602.542L-2.89565 602.771L-6.09716 603.665L-12.5237 605.475L-25.3968 609.049L-35.7308 613.801C-37.4236 614.524 -39.6152 615.826 -41.9655 617.166C-44.3872 618.591 -46.9082 620.213 -49.3475 621.996C-54.2464 625.517 -58.8403 629.209 -62.9325 633.172C-71.0924 641.055 -77.9843 649.56 -83.8025 658.992C-89.6631 668.377 -94.537 678.64 -98.5283 689.618C-102.499 700.642 -105.608 712.336 -107.831 724.678C-110.032 737.043 -111.43 749.919 -112.041 763.191C-113.243 789.76 -111.32 817.895 -106.082 846.462L-103.97 857.182C-103.229 860.757 -102.286 864.342 -101.457 867.944L-100.155 873.316L-98.6522 878.698C-97.6194 882.265 -96.6781 885.873 -95.5784 889.443C-93.1766 896.572 -91.0003 903.734 -88.1474 910.795L-86.1487 916.112C-85.4966 917.869 -84.8009 919.65 -84.0137 921.391L-79.4714 931.873C-77.9886 935.395 -76.1394 938.757 -74.4969 942.22C-72.7851 945.641 -71.1649 949.103 -69.2923 952.443C-67.489 955.824 -65.5941 959.165 -63.6992 962.506L-62.977 963.751L-62.3578 964.812L-61.0923 966.846L-58.8332 970.518C-55.9166 975.388 -52.5244 980.147 -49.3343 984.918C-45.8718 989.613 -42.5677 994.345 -38.8294 998.897C-31.6285 1008.14 -23.5767 1016.94 -15.1734 1025.42C-10.8097 1029.55 -6.58572 1033.79 -1.96428 1037.7L4.88751 1043.59L11.9993 1049.2C31.1034 1064.08 52.356 1076.26 74.17 1085.69C96.0063 1095.12 118.478 1101.68 140.514 1105.7C162.548 1109.79 184.182 1111.53 205.068 1111.65L205.043 1111.71ZM489.553 432.571C487.995 418.34 486.796 404.552 486.032 391.48C485.288 378.431 485.027 366.056 485.503 355.531C485.55 352.756 485.839 350.531 485.982 348.097C486.012 347.494 486.044 346.846 486.115 346.312L486.228 345.399C486.642 344.726 487.272 344.197 488.266 344.022C490.412 343.658 494.912 344.575 498.606 345.496C498.76 345.549 498.87 345.577 499.025 345.629C499.2 345.705 499.377 345.758 499.553 345.812C504.538 347.335 509.953 349.685 515.176 352.743C520.421 355.802 525.477 359.523 529.93 363.663C534.36 367.823 538.165 372.379 541.226 377.032C544.31 381.686 546.653 386.393 548.324 391.089C548.624 392.268 549.218 393.395 549.493 394.618C549.725 395.816 550.048 396.974 550.416 398.135C550.535 399.35 550.745 400.547 551 401.725C551.196 402.294 551.142 402.941 551.201 403.549C551.261 404.156 551.298 404.763 551.38 405.371C551.656 406.572 551.48 407.862 551.551 409.142C551.565 409.77 551.601 410.399 551.637 411.028L551.625 411.274L551.604 411.698L551.563 412.525L551.482 414.178L551.386 417.465C551.333 418.538 551.215 419.562 551.163 420.612L550.941 423.759L550.592 426.743C549.707 434.672 548.223 441.586 546.42 447.252C544.616 452.941 542.541 457.318 540.354 460.793C538.102 464.22 535.753 466.903 532.709 469.575C529.69 472.225 525.777 474.831 520.543 477.416C518.591 478.417 516.348 479.381 513.951 480.315L496.044 485.611L520.597 691.431C517.725 669.812 491.389 450.242 489.526 432.659L489.553 432.571Z" fill="#EA8BF3" stroke="#070600" stroke-miterlimit="10"/>
<path d="M91.1876 878.746L92.1076 878.254C123.008 936.689 191.482 952.571 245.614 942.415L245.81 943.433C215.817 949.072 184.376 946.397 157.262 935.919C127.796 924.541 104.949 904.755 91.1876 878.746Z" fill="#070600"/>
<path d="M44.6814 845.181C46.1142 816.205 58.7225 787.647 86.4113 770.652C123.775 754.538 165.856 775.252 202.997 793.527C217.555 800.697 231.284 807.445 244.121 811.842L243.781 812.833C230.877 808.432 217.105 801.66 202.525 794.467C165.58 776.291 123.74 755.701 86.8808 771.571C42.4258 798.868 37.3353 856.531 55.1555 896.918C80.9419 946.926 134.132 980.26 197.372 986.075C262.485 992.049 324.927 967.344 360.374 921.596L361.193 922.241C325.53 968.27 262.723 993.114 197.275 987.123C133.656 981.29 80.1851 947.74 54.2142 897.387C47.2667 881.657 43.7833 863.345 44.6814 845.181Z" fill="#070600"/>
<path d="M-2.84132 821.759C-1.3566 791.732 6.82868 764.77 20.5419 745.113C40.1844 716.947 69.7502 705.464 106.019 711.938C151.09 726.977 202.562 748.424 259.099 775.676L258.649 776.617C202.157 749.367 150.729 727.945 105.768 712.934C69.9865 706.574 40.7868 717.895 21.4089 745.693C-8.28301 788.255 -9.78892 867.617 18.1842 915.516C71.0413 1019.45 197.958 1046.24 290.568 1018.7L290.854 1019.7C240.446 1034.7 185.098 1033.24 134.981 1015.62C82.2915 997.071 40.4862 961.724 17.2631 916.031C4.1323 893.568 -3.28159 862.363 -3.07002 830.459C-3.05933 827.526 -2.96145 824.642 -2.81894 821.76L-2.84132 821.759Z" fill="#070600"/>
<path d="M360.591 983.329C378.82 969.27 394.1 952.333 406.027 933.036L406.917 933.595C394.94 953.002 379.567 970.002 361.244 984.168L360.612 983.353L360.591 983.329Z" fill="#070600"/>
<path d="M-51.5216 793.215C-49.7309 757.001 -40.6068 725.09 -25.0674 701.559C-1.88152 666.492 34.6639 651.525 80.6352 658.322C137.713 677.336 199.138 703.105 274.033 739.484L273.583 740.424C198.732 704.07 137.352 678.304 80.4067 659.318C34.9459 652.614 -1.23221 667.398 -24.177 702.118C-65.9766 765.38 -54.8801 875.174 -18.7668 934.158C23.1382 1017.3 114.485 1069.66 219.605 1070.8C320.72 1071.9 409.66 1023.49 451.702 944.454L452.618 944.948C430.867 985.864 396.753 1019.14 353.967 1041.21C314.077 1061.79 267.627 1072.37 219.598 1071.85C170.071 1071.31 121.974 1059.05 80.5472 1036.42C36.3959 1012.29 1.72519 977.118 -19.6645 934.651C-38.0632 904.605 -49.677 862.33 -51.5491 818.678C-51.9257 809.992 -51.8857 801.484 -51.4759 793.195L-51.5216 793.215Z" fill="#070600"/>
<path d="M93.6203 813.248C93.6203 813.248 93.6525 813.048 93.724 812.962C100.893 803.843 125.62 813.688 126.673 814.121L223.277 849.826C223.541 849.929 223.683 850.227 223.58 850.491C223.477 850.754 223.179 850.896 222.916 850.794L126.289 815.087C126.026 814.985 101.234 805.092 94.543 813.607C94.3756 813.823 94.0372 813.873 93.8215 813.706C93.693 813.588 93.6115 813.427 93.6192 813.27L93.6203 813.248Z" fill="#070600"/>
<path d="M319.627 349.95C319.791 346.643 320.027 343.228 320.258 339.925L320.307 338.92C320.368 338.139 320.429 337.358 320.515 336.534C320.515 336.534 320.515 336.534 320.693 334.751C320.778 333.926 320.864 333.102 320.869 332.99C320.87 332.968 320.871 332.946 321.125 330.539C321.248 329.403 321.37 328.29 321.377 328.156C321.591 326.083 321.807 324.437 322.007 323.103L322.171 322.058C323.113 316.148 324.064 310.036 325.409 304.123C327.064 296.926 328.654 291.025 330.423 285.603C333.958 274.782 338.334 264.629 343.425 255.407C344.164 254.055 345.024 252.508 345.904 251.028C347.466 248.418 349.117 245.812 350.955 243.059L351.268 242.627C352.974 240.27 354.729 237.848 356.547 235.497C356.714 235.281 356.881 235.066 357.05 234.828C357.361 234.418 357.673 234.007 357.983 233.62C358.102 233.469 358.316 233.233 358.764 232.762C359.096 232.398 359.451 232.013 359.522 231.927C359.642 231.776 359.878 231.519 360.422 230.941C360.8 230.534 361.155 230.148 361.249 230.063C361.345 229.934 361.558 229.698 362.007 229.228C362.314 228.907 362.622 228.564 362.693 228.478C362.813 228.327 363.048 228.092 363.545 227.557C363.875 227.215 364.207 226.85 364.278 226.764C364.278 226.764 364.468 226.55 364.704 226.315C364.869 226.144 365.057 225.952 365.104 225.909C365.104 225.909 365.224 225.759 365.341 225.652L365.554 225.417C365.561 225.282 365.62 224.994 365.896 224.851C365.942 224.809 365.99 224.744 366.061 224.68L369.126 221.562C372.936 218.324 376.41 215.539 379.735 213.061C385.687 208.608 391.126 205.047 396.374 202.149C401.555 199.269 406.227 196.723 411.283 194.555C412.816 193.891 414.348 193.25 415.903 192.588L419.014 191.264C420.959 190.42 423.008 189.737 424.967 189.072C425.627 188.859 426.288 188.623 426.925 188.408C427.7 188.133 428.474 187.88 429.248 187.627L429.476 187.548C430.113 187.334 430.772 187.142 431.41 186.927C432.342 186.638 433.297 186.349 434.228 186.081C445.863 182.648 458.09 180.364 470.549 179.278C478.151 178.601 485.955 178.382 493.714 178.609C497.135 178.711 499.838 178.822 502.183 178.96L502.317 178.967C502.694 179.031 504.477 179.208 505.903 179.346C508.555 179.611 509.336 179.672 509.624 179.732L511.183 179.898C513.099 180.105 515.035 180.335 516.949 180.586L517.125 180.64C517.125 180.64 518.924 180.93 520.457 181.185C523.1 181.63 523.855 181.757 524.121 181.814C526.516 182.269 528.936 182.702 531.33 183.201L531.505 183.277C531.505 183.277 533.365 183.705 534.781 184.044C538.367 184.893 538.388 184.916 538.496 184.989C538.586 184.993 540.376 185.462 541.814 185.825C545.33 186.715 545.351 186.739 545.46 186.811C545.549 186.816 547.291 187.372 548.68 187.799C551.172 188.572 551.856 188.785 552.076 188.863C565.324 193.101 578.396 198.652 590.92 205.296C594.782 207.346 598.659 209.553 602.443 211.823C617.946 221.189 632.489 232.3 645.619 244.819C658.666 257.199 670.255 270.986 680.069 285.804C690.717 301.873 699.013 318.409 704.71 334.972L705.122 336.157C706.472 340.098 707.884 344.154 708.979 348.262C709.832 351.395 710.657 354.638 711.533 358.198C711.832 359.399 712.13 360.623 712.405 361.846C713.103 365.397 713.731 369.011 714.363 372.514L714.926 375.632C715.291 377.756 715.542 379.918 715.775 382.012L715.837 382.575C715.837 382.575 715.837 382.575 716.261 386.672C716.414 388.113 716.529 389.395 716.546 389.508C717.031 393.742 717.18 397.983 717.334 402.111L717.383 403.838C717.383 403.838 717.405 404.287 717.449 406.573C717.472 408.366 717.532 410.788 717.544 410.99C717.543 411.012 717.536 411.146 717.527 411.325C717.516 411.549 717.523 411.862 717.521 411.907C717.521 411.907 717.51 412.131 717.501 412.309L717.484 412.667C717.484 412.667 717.483 412.667 717.487 413.496C717.471 413.831 717.454 414.166 717.472 414.256C717.472 414.256 717.46 414.957 717.435 416.36C717.412 416.829 717.393 417.209 717.412 417.277C717.411 417.299 717.41 417.321 717.329 419.87C717.255 421.367 717.218 423.023 717.212 423.134C717.147 424.453 717.083 425.748 717.018 427.067C716.981 427.804 716.945 428.541 716.908 429.278C716.895 429.546 716.853 430.395 716.62 433.743C716.577 434.614 716.543 435.307 716.517 435.373C716.402 436.801 716.243 438.204 716.107 439.608L715.892 441.68C715.672 443.864 715.408 446.046 715.142 448.25L714.709 451.565C714.634 452.188 714.535 452.833 714.44 453.388L714.271 454.544C714.039 456.056 713.802 457.679 713.553 459.1L713.368 460.121C712.778 463.451 712.122 467.204 711.401 470.46C710.698 473.807 709.874 477.35 708.872 481.309L708.569 482.459C707.66 485.885 706.641 489.754 705.556 493.127L705.024 494.825C704.175 497.493 703.221 500.491 702.265 503.064C696.899 518.297 690.121 532.653 682.129 545.74C677.814 552.85 672.874 559.929 667.475 566.762C660.237 575.922 652.291 584.465 643.828 592.131C639.561 596.019 635.169 599.698 630.771 603.064C620.015 611.356 608.367 618.686 596.171 624.869C588.523 628.746 580.698 632.121 572.213 635.24C569.089 636.385 565.879 637.458 562.781 638.514L560.345 639.334C560.025 639.452 558.935 639.757 554.37 641.054C551.781 641.8 548.851 642.64 548.646 642.697C537.87 645.524 529.854 647.322 521.79 648.737L515.613 650.044L515.394 649.026L521.594 647.72C529.658 646.305 537.651 644.527 548.336 641.719C548.678 641.601 549.79 641.298 554.084 640.055C556.628 639.329 559.512 638.509 559.944 638.374L562.45 637.512C565.546 636.478 568.736 635.382 571.86 634.237C580.297 631.161 588.1 627.784 595.703 623.927C607.853 617.765 619.432 610.476 630.118 602.226C634.471 598.88 638.839 595.221 643.105 591.356C651.522 583.71 659.444 575.211 666.634 566.115C672.009 559.304 676.926 552.246 681.216 545.18C689.183 532.159 695.935 517.868 701.276 502.702C702.23 500.151 703.162 497.151 704.01 494.506L704.565 492.787C705.626 489.435 706.668 485.567 707.553 482.162L707.857 481.012C708.856 477.098 709.681 473.555 710.361 470.207C711.081 466.973 711.737 463.221 712.304 459.912L712.488 458.891C712.738 457.47 712.975 455.846 713.205 454.357L713.374 453.201C713.47 452.624 713.546 452 713.644 451.378L714.075 448.085C714.34 445.903 714.604 443.721 714.823 441.56L715.038 439.488C715.197 438.085 715.332 436.703 715.446 435.298C715.446 435.298 715.482 434.583 715.549 433.668C715.671 432.106 715.868 429.496 715.834 429.27C715.873 428.488 715.909 427.751 715.946 427.013C716.01 425.718 716.12 424.402 716.138 423.126C716.138 423.126 716.138 423.126 716.256 419.84C716.318 418.566 716.355 417.381 716.337 417.291C716.337 417.291 716.359 416.844 716.362 416.329C716.402 415.525 716.408 414.495 716.393 414.337C716.393 414.337 716.397 414.27 716.391 413.486C716.407 413.151 716.424 412.816 716.406 412.725C716.406 412.725 716.417 412.502 716.427 412.301L716.444 411.944C716.444 411.944 716.438 411.63 716.43 411.338L716.443 411.07C716.443 411.07 716.41 410.822 716.328 406.608C716.307 405.218 716.276 404.03 716.281 403.918L716.21 402.19C716.077 398.085 715.928 393.867 715.441 389.677C715.441 389.677 715.346 388.725 715.156 386.819C714.979 384.974 714.768 382.903 714.731 382.745L714.67 382.159C714.437 380.087 714.208 377.926 713.84 375.847L713.278 372.729C712.667 369.228 712.018 365.612 711.34 362.107C711.064 360.907 710.765 359.705 710.466 358.503C709.589 354.944 708.742 351.699 707.911 348.59C706.814 344.504 705.423 340.472 704.072 336.553L703.661 335.368C697.982 318.873 689.75 302.408 679.142 286.43C669.37 271.681 657.823 257.942 644.839 245.632C631.752 233.16 617.274 222.097 601.837 212.756C598.075 210.487 594.198 208.302 590.358 206.254C577.877 199.634 564.871 194.109 551.667 189.895L551.536 189.822C551.536 189.822 549.705 189.261 548.293 188.833C544.919 187.792 544.897 187.769 544.789 187.696C544.7 187.692 542.909 187.223 541.471 186.86C537.977 185.971 537.956 185.948 537.848 185.875C537.758 185.871 535.922 185.421 534.461 185.08C531.982 184.488 531.274 184.318 531.032 184.239C528.661 183.741 526.264 183.309 523.868 182.855L523.691 182.801C523.691 182.801 521.736 182.48 520.204 182.225C517.739 181.812 516.984 181.686 516.718 181.628C514.827 181.377 512.89 181.147 510.975 180.94L509.305 180.746C508.926 180.705 507.144 180.527 505.717 180.389C503.154 180.151 502.33 180.065 502.019 180.005C499.674 179.889 496.971 179.755 493.572 179.654C485.836 179.429 478.077 179.65 470.521 180.306C458.129 181.396 445.97 183.661 434.403 187.075C433.449 187.342 432.517 187.632 431.585 187.922C430.948 188.114 430.31 188.329 429.674 188.521L429.446 188.6C428.672 188.853 427.898 189.105 427.147 189.359C426.486 189.595 425.826 189.809 425.187 190.046C423.229 190.711 421.224 191.396 419.303 192.219L416.192 193.543C414.66 194.184 413.127 194.847 411.594 195.511C406.583 197.659 401.912 200.205 396.777 203.064C391.596 205.944 386.182 209.483 380.253 213.893C376.952 216.35 373.524 219.114 369.761 222.31L369.714 222.352L366.884 225.236C366.884 225.236 366.789 225.343 366.696 225.428L366.624 225.514L366.615 225.693L366.411 225.75C366.359 225.904 366.306 226.058 366.164 226.208C366.117 226.251 366.069 226.315 365.999 226.379L365.811 226.571C365.811 226.571 365.597 226.807 365.361 227.064C365.197 227.213 365.054 227.385 365.007 227.427C364.888 227.556 364.675 227.792 364.202 228.306C363.848 228.669 363.517 229.033 363.445 229.12C363.349 229.249 363.136 229.485 362.687 229.955C362.38 230.276 362.072 230.619 362.001 230.705C361.881 230.856 361.645 231.113 361.101 231.691C360.723 232.098 360.368 232.483 360.274 232.568C360.155 232.719 359.94 232.977 359.444 233.513C359.184 233.791 358.924 234.069 358.804 234.22L358.708 234.35C358.399 234.715 358.088 235.125 357.8 235.514C357.631 235.752 357.464 235.968 357.296 236.184C355.502 238.514 353.747 240.935 352.041 243.292L351.728 243.724C349.914 246.456 348.286 249.041 346.725 251.629C345.847 253.086 345.01 254.612 344.249 255.963C339.183 265.119 334.854 275.229 331.322 285.984C329.555 291.383 327.966 297.239 326.335 304.415C324.992 310.283 324.042 316.373 323.101 322.261L322.938 323.306C322.739 324.617 322.524 326.241 322.312 328.269C322.312 328.269 322.313 328.247 322.058 330.675C321.935 331.811 321.813 332.925 321.806 333.059C321.806 333.059 321.803 333.126 321.627 334.864C321.542 335.689 321.456 336.513 321.451 336.625C321.365 337.449 321.304 338.23 321.267 338.99L321.216 340.017C320.889 344.368 320.572 348.966 320.43 353.192L320.365 354.51C320.356 355.137 320.348 355.763 320.318 356.366C319.885 370.096 320.124 383.836 321.071 400.904C321.844 414.267 323.058 428.661 324.807 444.917L324.912 445.952C325.083 447.483 325.253 449.015 325.424 450.546C328.658 478.432 332.175 504.674 335.163 526.658C338.475 550.695 342.212 577.934 345.234 603.749C346.795 617.017 348.117 629.691 349.194 641.412C349.372 643.257 349.768 647.017 350.413 652.536L349.377 652.664C348.733 647.123 348.336 643.363 348.159 641.518C347.104 629.798 345.759 617.145 344.198 603.877C341.153 578.061 337.417 550.822 334.126 526.808C331.116 504.801 327.622 478.56 324.365 450.673C324.195 449.142 324.024 447.61 323.853 446.079L323.748 445.043C321.999 428.787 320.786 414.372 320.015 400.986C319.07 383.874 318.832 370.111 319.266 356.359C319.297 355.734 319.328 355.108 319.336 354.481L319.401 353.163C319.409 352.111 319.462 351.039 319.516 349.944L319.627 349.95Z" fill="#070600"/>
<path d="M356.479 712.364L357.515 712.236C360.354 736.788 361.782 750.027 361.991 753.957C361.989 754.001 361.985 754.068 361.982 754.135L361.975 754.269C362.006 754.562 362.016 754.809 362.027 755.033L362.062 755.685L361.03 755.723L360.994 755.094C360.984 754.847 360.974 754.601 360.965 754.331C360.967 754.287 360.97 754.22 360.974 754.153L360.98 754.019C360.697 748.876 358.292 727.772 356.502 712.343L356.479 712.364Z" fill="#070600"/>
<path d="M361.009 355.825C361.12 353.591 361.254 351.336 361.407 349.149L361.447 348.322C361.479 347.674 361.51 347.049 361.588 346.38C361.588 346.38 361.598 346.179 361.727 344.932C361.781 344.285 361.857 343.662 361.864 343.527C361.864 343.527 361.885 343.103 362.056 341.454C362.143 340.585 362.254 339.717 362.237 339.604C362.412 337.866 362.543 336.574 362.709 335.484L362.778 334.995C363.491 330.081 364.213 324.988 365.262 320.091C366.492 314.239 367.691 309.461 369.029 305.048C371.652 296.376 374.951 288.074 378.845 280.428L379.019 280.078C379.565 278.985 380.134 277.894 380.725 276.825C381.905 274.689 383.154 272.534 384.542 270.273C385.847 268.322 387.299 266.132 388.791 264.033L389.153 263.514C389.37 263.188 389.61 262.864 389.85 262.54C389.924 262.41 390.114 262.195 390.494 261.743C390.708 261.508 390.898 261.271 390.993 261.163C391.067 261.033 391.234 260.817 391.731 260.282C391.968 260.025 392.205 259.745 392.301 259.616C392.353 259.484 392.518 259.313 392.922 258.84C393.112 258.626 393.303 258.389 393.397 258.281C393.471 258.151 393.637 257.957 394.088 257.442C394.303 257.184 394.538 256.949 394.611 256.841C394.661 256.731 394.778 256.625 394.992 256.367C395.087 256.26 395.182 256.152 395.229 256.11C395.277 256.045 395.348 255.959 395.421 255.851L395.611 255.636C395.611 255.636 395.626 255.323 395.88 255.179C395.904 255.136 395.951 255.093 395.998 255.051L396.14 254.901L398.344 252.434C401.223 249.912 403.997 247.697 406.829 245.687C411.446 242.422 415.832 239.772 420.242 237.527C424.101 235.567 428.074 233.569 432.206 231.959C433.53 231.443 434.877 230.927 436.201 230.41L438.392 229.578C439.968 228.961 441.604 228.482 443.196 227.979L444.742 227.518C445.356 227.324 445.992 227.132 446.605 226.961L447.218 226.789C447.582 226.673 447.968 226.58 448.332 226.464L450.578 225.858C459.856 223.45 469.582 221.938 479.486 221.353C485.528 220.98 491.708 220.972 497.85 221.298C500.62 221.435 502.695 221.582 504.568 221.742L504.767 221.796C504.767 221.796 506.304 221.962 507.461 222.109C509.733 222.356 510.312 222.429 510.533 222.485L511.623 222.628C513.18 222.84 514.759 223.052 516.314 223.308L516.491 223.362C516.491 223.362 518 223.638 519.131 223.85C521.351 224.251 521.86 224.366 522.059 224.421C523.987 224.83 525.915 225.238 527.818 225.691L527.971 225.766C528.103 225.817 529.473 226.176 530.579 226.455C533.189 227.121 533.453 227.201 533.605 227.298C533.737 227.35 535.106 227.731 536.189 228.031C538.796 228.742 539.082 228.846 539.212 228.942C539.343 228.993 540.643 229.438 541.7 229.781C543.771 230.466 544.344 230.651 544.563 230.752C555.24 234.46 565.755 239.19 575.823 244.794C578.939 246.538 582.049 248.394 585.09 250.291C597.25 257.97 608.884 267.234 619.714 277.803C629.988 287.852 638.971 298.643 646.386 309.916C654.654 322.486 661.114 335.391 665.581 348.311L665.894 349.222C666.951 352.298 668.071 355.466 668.942 358.667C669.643 361.255 670.322 363.819 670.978 366.404C671.2 367.356 671.445 368.286 671.667 369.238C672.224 371.998 672.715 374.754 673.228 377.512L673.688 379.976C674.008 381.671 674.213 383.406 674.399 385.072L674.428 385.387C674.428 385.387 674.428 385.387 674.801 388.72C674.907 389.756 674.996 390.656 675.013 390.769C675.41 394.058 675.604 397.382 675.783 400.571L675.893 402.413C675.893 402.413 675.921 403.198 675.974 404.858C676.019 406.204 676.061 408.065 676.074 408.267C676.074 408.267 676.063 408.491 676.097 408.694C676.091 408.828 676.083 408.985 676.081 409.029C676.081 409.029 676.072 409.208 676.063 409.387L676.05 409.655C676.05 409.655 676.077 410.014 676.082 410.373C676.067 410.663 676.096 410.978 676.092 411.068C676.09 411.112 676.133 411.137 676.108 413.017C676.093 413.307 676.082 413.531 676.079 413.598C676.076 413.665 676.065 413.888 676.013 415.834C675.958 416.951 675.946 418.093 675.94 418.227C675.899 419.949 675.773 421.6 675.735 423.278C675.745 423.525 675.709 424.24 675.55 427.009C675.517 427.679 675.468 428.214 675.487 428.282C675.41 429.398 675.29 430.467 675.191 431.56C675.135 432.229 675.059 432.875 675.003 433.544C674.848 435.328 674.646 437.132 674.468 438.937L674.241 440.807C674.203 441.119 674.14 441.496 674.098 441.875C674.031 442.342 673.985 442.81 673.922 443.188C673.852 443.699 673.755 444.299 673.678 444.945C673.538 445.968 673.372 447.057 673.241 447.902C673.086 448.768 672.924 449.768 672.76 450.834C672.407 452.989 672.017 455.434 671.614 457.25C671.014 460.333 670.327 463.345 669.673 466.157C669.425 467.108 669.147 468.192 668.869 469.298C668.336 471.466 667.721 473.944 667.113 475.817C666.847 476.678 666.551 477.671 666.23 478.73C665.667 480.606 665.102 482.526 664.558 484.022C660.496 496.43 655.204 508.352 648.881 519.394C645.473 525.361 641.599 531.261 637.398 536.966C631.686 544.701 625.396 551.893 618.718 558.349C615.261 561.694 611.77 564.813 608.317 567.621C599.45 574.864 590.072 581.119 580.439 586.175C574.899 589.081 568.854 591.783 561.941 594.375C559.476 595.306 556.947 596.189 554.51 597.031L552.755 597.639C552.504 597.738 551.641 597.987 548.141 599.023C546.277 599.58 543.96 600.25 543.731 600.35C535.355 602.646 529.147 604.108 522.932 605.279L510.366 607.166L510.216 606.128L522.781 604.241C528.951 603.091 535.115 601.626 543.377 599.37C543.628 599.27 544.469 599.021 547.855 598.023C549.763 597.468 552.149 596.758 552.377 596.679L554.155 596.05C556.593 595.208 559.099 594.324 561.564 593.393C568.432 590.799 574.453 588.141 579.948 585.232C589.535 580.197 598.844 573.983 607.642 566.781C611.049 563.994 614.539 560.897 617.972 557.573C624.604 551.159 630.847 544.01 636.534 536.319C640.71 530.658 644.561 524.779 647.945 518.855C654.242 507.879 659.485 496.044 663.546 483.659C664.089 482.185 664.654 480.265 665.216 478.411C665.537 477.352 665.833 476.336 666.1 475.476C666.684 473.624 667.297 471.191 667.83 469.022C668.11 467.894 668.387 466.81 668.636 465.859C669.289 463.07 669.975 460.058 670.574 456.997C670.977 455.181 671.366 452.759 671.695 450.625C671.86 449.558 672.023 448.536 672.177 447.67C672.33 446.849 672.472 445.781 672.612 444.758C672.711 444.113 672.786 443.512 672.856 443.001C672.918 442.645 672.964 442.177 673.032 441.71C673.073 441.332 673.137 440.932 673.175 440.62L673.4 438.795C673.578 437.012 673.779 435.208 673.934 433.424C673.99 432.755 674.067 432.087 674.122 431.44C674.22 430.37 674.34 429.301 674.415 428.229C674.416 428.207 674.444 427.649 674.479 426.934C674.536 425.772 674.689 423.585 674.657 423.337C674.727 421.459 674.827 419.896 674.865 418.218C674.865 418.218 674.878 417.95 674.941 415.781C674.992 414.753 675.019 413.747 675.003 413.612C675.004 413.589 675.018 413.321 675.012 412.985C675.037 412.471 675.046 411.397 675.009 411.238C674.991 411.148 674.976 410.99 674.984 410.386C674.997 410.118 674.988 409.849 674.97 409.758C674.97 409.758 674.98 409.557 674.968 409.355L674.981 409.087C674.981 409.087 674.967 408.907 674.955 408.705C674.962 408.571 674.969 408.414 674.971 408.37C674.955 408.257 674.931 407.382 674.853 404.87C674.822 403.704 674.808 402.628 674.792 402.493L674.682 400.629C674.504 397.44 674.33 394.162 673.931 390.917C673.931 390.917 673.937 390.805 673.699 388.823C673.562 387.517 673.36 385.715 673.346 385.535L673.297 385.175C673.111 383.508 672.904 381.796 672.583 380.145L672.122 377.681C671.609 374.924 671.119 372.167 670.56 369.43C670.337 368.5 670.114 367.571 669.87 366.618C669.215 364.033 668.558 361.47 667.856 358.904C666.983 355.726 665.885 352.581 664.826 349.527L664.513 348.616C660.064 335.787 653.646 322.951 645.441 310.452C638.068 299.248 629.129 288.481 618.918 278.503C608.153 267.982 596.562 258.764 584.466 251.134C581.448 249.238 578.337 247.382 575.243 245.661C565.219 240.059 554.747 235.376 544.137 231.671L544.007 231.598C543.875 231.546 542.399 231.048 541.341 230.704C538.983 229.938 538.72 229.836 538.59 229.74C538.436 229.687 536.956 229.278 535.873 228.978C533.399 228.296 533.134 228.216 533.005 228.12C532.873 228.068 531.369 227.681 530.286 227.403C528.274 226.878 527.721 226.739 527.502 226.638C525.599 226.186 523.671 225.777 521.765 225.369L521.611 225.317C521.611 225.317 520.058 225.038 518.904 224.825C516.817 224.453 516.263 224.336 516.064 224.281C514.531 224.048 512.996 223.838 511.462 223.628L510.151 223.406C510.151 223.406 508.482 223.212 507.346 223.089C505.23 222.85 504.652 222.776 504.43 222.72C502.58 222.562 500.526 222.438 497.779 222.28C491.66 221.955 485.524 221.965 479.528 222.318C469.692 222.884 460.011 224.398 450.824 226.788L448.577 227.394C448.214 227.488 447.85 227.604 447.465 227.697L446.852 227.869C446.238 228.04 445.624 228.233 445.01 228.427L443.464 228.91C441.895 229.393 440.281 229.873 438.729 230.468L436.538 231.3C435.214 231.817 433.867 232.333 432.543 232.85C428.456 234.439 424.506 236.439 420.67 238.376C416.306 240.602 411.944 243.23 407.373 246.453C404.565 248.442 401.815 250.613 398.96 253.114L396.85 255.473C396.85 255.473 396.755 255.581 396.684 255.667L396.636 255.732L396.628 255.888L396.492 255.926C396.464 256.037 396.413 256.168 396.318 256.276C396.27 256.341 396.223 256.383 396.152 256.469L396.033 256.598C396.033 256.598 395.866 256.813 395.677 257.006C395.583 257.113 395.511 257.199 395.441 257.263C395.367 257.393 395.201 257.587 394.774 258.058C394.561 258.294 394.347 258.552 394.252 258.66C394.178 258.79 394.012 258.984 393.608 259.456C393.418 259.671 393.229 259.885 393.156 259.994C393.081 260.147 392.893 260.339 392.417 260.898C392.179 261.177 391.943 261.434 391.848 261.542C391.774 261.672 391.608 261.866 391.203 262.361C391.013 262.575 390.823 262.79 390.727 262.92L390.631 263.049C390.391 263.373 390.174 263.698 389.934 264.022L389.549 264.563C388.08 266.641 386.628 268.831 385.346 270.761C383.981 273 382.734 275.133 381.555 277.247C380.965 278.293 380.419 279.386 379.872 280.478L379.698 280.828C375.851 288.432 372.578 296.668 369.958 305.273C368.621 309.663 367.445 314.42 366.218 320.227C365.193 325.104 364.45 330.173 363.76 335.066L363.691 335.555C363.525 336.645 363.395 337.915 363.223 339.586C363.222 339.608 363.204 339.966 363.04 341.48C362.951 342.372 362.861 343.286 362.852 343.464L362.85 343.509C362.85 343.509 362.831 343.889 362.711 344.958C362.657 345.605 362.581 346.228 362.574 346.362C362.518 347.054 362.465 347.678 362.434 348.304L362.393 349.13C362.151 352.657 361.923 356.363 361.842 359.808L361.759 362.402C361.457 373.495 361.668 384.614 362.461 398.471C363.075 409.139 364.094 421.149 365.596 435.153L365.704 436.144C365.844 437.383 365.984 438.621 366.124 439.86C367.219 449.432 368.412 459.256 369.746 469.87L368.71 469.998C367.377 459.361 366.183 449.538 365.089 439.966C364.949 438.727 364.809 437.488 364.668 436.25L364.56 435.259C363.06 421.232 362.041 409.223 361.428 398.532C360.66 384.631 360.449 373.49 360.73 362.373L360.814 359.78C360.857 358.46 360.9 357.119 360.968 355.756L361.009 355.825Z" fill="#070600"/>
<path d="M383.704 588.81L384.739 588.704C385.103 592.216 385.446 595.704 385.768 599.147C386.122 602.859 388.567 625.421 391.677 653.995C397.177 704.433 404.688 773.536 405.02 779.487L403.987 779.548C403.653 773.619 396.141 704.561 390.641 654.122C387.53 625.549 385.063 602.986 384.733 599.252C384.41 595.81 384.068 592.321 383.704 588.81Z" fill="#070600"/>
<path d="M402.45 360.494C402.486 359.779 402.521 359.064 402.556 358.349L402.587 357.724C402.613 357.21 402.636 356.741 402.661 356.227C402.665 356.16 402.69 355.646 402.739 355.111C402.763 354.619 402.832 354.13 402.814 354.04C402.821 353.906 402.844 353.437 402.938 352.433C402.993 351.787 403.068 351.163 403.054 351.006C403.131 349.89 403.23 348.797 403.369 347.796C403.82 344.123 404.315 339.982 405.049 336.01C405.849 331.615 406.684 327.849 407.569 324.444C409.304 317.901 411.524 311.493 414.176 305.398L414.379 304.916C414.732 304.127 415.062 303.337 415.437 302.549C416.237 300.864 417.081 299.182 418.042 297.415C418.997 295.76 419.951 294.128 420.926 292.519L421.194 292.084C421.34 291.845 421.486 291.606 421.633 291.367C421.684 291.235 421.827 291.063 422.09 290.717C422.211 290.544 422.352 290.395 422.403 290.285C422.455 290.131 422.598 289.959 422.91 289.526C423.054 289.332 423.22 289.161 423.27 289.051C423.322 288.897 423.443 288.724 423.706 288.379C423.826 288.228 423.945 288.077 423.994 287.99C424.047 287.836 424.167 287.662 424.501 287.253C424.62 287.102 424.741 286.929 424.812 286.843C424.863 286.711 424.958 286.604 425.126 286.388C425.174 286.324 425.221 286.281 425.245 286.238C425.294 286.15 425.342 286.086 425.415 285.977L425.422 285.821L425.534 285.826C425.534 285.826 425.545 285.603 425.709 285.454C425.734 285.411 425.757 285.389 425.804 285.347L427.43 283.255C429.449 281.384 431.592 279.698 433.813 278.263C437.074 276.162 440.5 274.338 444.022 272.855L444.411 272.695C447.179 271.511 450.038 270.286 453.019 269.336C454.339 268.909 455.635 268.502 456.954 268.097L457.66 267.863C458.842 267.496 460.09 267.177 461.268 266.9L462.401 266.62C462.764 266.526 463.149 266.433 463.511 266.361L464.349 266.179C464.598 266.124 464.847 266.069 465.096 266.014C465.458 265.942 465.819 265.871 466.181 265.799L466.77 265.671C473.579 264.283 480.803 263.543 488.264 263.464C492.811 263.42 497.371 263.601 501.828 264.023C503.478 264.172 505.171 264.345 506.795 264.56L506.972 264.613C507.104 264.642 508.171 264.807 508.95 264.913C510.484 265.123 510.995 265.215 511.215 265.293L511.659 265.36C512.925 265.58 514.19 265.799 515.454 266.063L515.608 266.115C515.74 266.167 516.76 266.374 517.491 266.522C519.02 266.844 519.485 266.957 519.705 267.035C521.164 267.42 522.624 267.784 524.082 268.192L524.213 268.243C524.366 268.318 525.426 268.616 526.176 268.855C527.809 269.339 528.295 269.475 528.489 269.619C528.642 269.694 529.679 270.014 530.451 270.253C532.061 270.759 532.568 270.918 532.763 271.04C532.916 271.114 533.928 271.478 534.653 271.76C536.237 272.331 536.721 272.512 536.916 272.656C544.913 275.761 552.892 279.694 560.502 284.281C562.872 285.719 565.216 287.224 567.514 288.748C576.396 294.787 585.166 302.185 593.565 310.753C601.112 318.449 607.296 326.056 612.456 334.015C618.322 343.084 622.947 352.361 626.206 361.615L626.324 361.956C627.128 364.258 627.973 366.651 628.66 369.059C629.173 370.899 629.663 372.759 630.155 374.598L630.658 376.638C631.056 378.561 631.431 380.484 631.806 382.406L632.183 384.306C632.435 385.55 632.596 386.812 632.759 388.052L632.752 388.186C632.752 388.186 632.828 388.458 633.064 390.486C633.139 391.228 633.218 391.904 633.234 392.017C633.526 394.271 633.728 396.521 633.912 398.702L634.113 400.974C634.126 401.154 634.156 401.917 634.201 402.815C634.24 403.824 634.299 405.35 634.334 405.553C634.332 405.598 634.324 405.755 634.361 405.913L634.349 406.159C634.349 406.159 634.387 406.295 634.379 406.452L634.369 406.653C634.369 406.653 634.419 407.013 634.427 407.305C634.436 407.574 634.445 407.843 634.463 407.934C634.503 408.025 634.514 408.25 634.522 409.46C634.511 409.683 634.502 409.862 634.522 409.908C634.516 410.019 634.498 410.399 634.483 411.608C634.444 412.39 634.427 413.195 634.442 413.33C634.427 414.091 634.413 414.829 634.4 415.545C634.37 416.148 634.364 416.73 634.356 417.335C634.395 417.449 634.386 418.098 634.28 420.242C634.255 420.734 634.237 421.114 634.231 421.225C634.191 422.03 634.109 422.787 634.048 423.568C634.017 424.193 633.941 424.817 633.91 425.442C633.866 426.336 633.776 427.25 633.709 428.164L633.589 429.682C633.579 429.883 633.567 430.128 633.56 430.262C633.555 430.374 633.547 430.53 633.516 430.708C633.507 430.887 633.498 431.066 633.47 431.176C633.46 431.377 633.399 431.71 633.384 432.023C633.365 432.403 633.301 432.78 633.267 433.025C633.203 433.403 633.13 433.981 633.057 434.56C632.951 435.338 632.864 436.185 632.772 436.696C632.647 437.406 632.507 438.429 632.363 439.52C632.123 441.21 631.903 442.946 631.648 444.031C631.298 446.119 630.857 448.247 630.42 450.286L630.273 450.995C630.056 451.768 629.847 452.833 629.589 453.962C629.215 455.646 628.861 457.375 628.491 458.521C628.28 459.16 628.03 460.133 627.756 461.15C627.371 462.587 626.985 464.068 626.648 464.992C623.815 474.728 620.034 484.172 615.453 493.038C612.978 497.82 610.19 502.564 607.143 507.139C602.934 513.448 598.323 519.312 593.453 524.513C590.782 527.36 588.262 529.855 585.732 532.127C578.749 538.388 571.828 543.398 564.552 547.45C560.868 549.508 556.834 551.369 551.489 553.501C549.731 554.198 547.952 554.849 546.172 555.522L545.032 555.936C544.803 556.037 544.188 556.253 541.754 557.006C540.481 557.391 538.911 557.896 538.706 557.975C532.706 559.761 528.329 560.888 523.961 561.815L506.146 564.338L505.996 563.3L523.766 560.775C528.066 559.868 532.398 558.738 538.261 557.012C538.49 556.912 539.104 556.718 541.447 555.983C542.743 555.577 544.38 555.075 544.587 554.974L545.818 554.519C547.575 553.867 549.354 553.216 551.112 552.519C556.412 550.407 560.399 548.566 564.038 546.529C571.245 542.518 578.096 537.549 585.032 531.331C587.539 529.081 590.034 526.628 592.705 523.782C597.551 518.624 602.114 512.825 606.299 506.538C609.322 502.006 612.086 497.283 614.56 492.546C619.116 483.723 622.871 474.346 625.702 464.654C626.037 463.753 626.423 462.293 626.784 460.878C627.059 459.839 627.31 458.844 627.522 458.182C627.867 457.102 628.242 455.396 628.593 453.734C628.851 452.582 629.083 451.518 629.278 450.744L629.424 450.057C629.865 447.929 630.28 445.889 630.651 443.802C630.884 442.716 631.129 440.937 631.341 439.357C631.486 438.245 631.627 437.199 631.752 436.489C631.844 435.978 631.951 435.177 632.035 434.397C632.109 433.796 632.182 433.218 632.247 432.818C632.28 432.595 632.322 432.217 632.362 431.86C632.378 431.525 632.439 431.192 632.473 430.97C632.478 430.858 632.486 430.702 632.517 430.524C632.526 430.346 632.535 430.167 632.563 430.056L632.575 429.811C632.58 429.699 632.586 429.587 632.589 429.52L632.708 428.025C632.774 427.133 632.842 426.218 632.909 425.325C632.94 424.7 632.993 424.075 633.046 423.451C633.106 422.693 633.166 421.934 633.226 421.176C633.229 421.109 633.25 420.684 633.275 420.17C633.316 419.344 633.4 417.646 633.368 417.398C633.357 416.703 633.387 416.1 633.395 415.495C633.43 414.781 633.422 414.041 633.435 413.325C633.438 413.258 633.459 412.834 633.479 411.536C633.515 410.798 633.529 410.06 633.513 409.925C633.516 409.88 633.527 409.657 633.516 409.41C633.535 409.03 633.507 408.245 633.491 408.11C633.453 407.973 633.447 407.637 633.419 407.3C633.409 407.053 633.398 406.828 633.38 406.738C633.381 406.716 633.389 406.559 633.374 406.402L633.384 406.201C633.384 406.201 633.369 406.043 633.355 405.886L633.367 405.64C633.311 405.413 633.272 404.381 633.217 402.788C633.192 401.936 633.161 401.196 633.148 401.016L632.948 398.721C632.763 396.562 632.56 394.335 632.266 392.126C632.268 392.081 632.235 391.856 632.075 390.549C631.982 389.715 631.842 388.477 631.805 388.318L631.77 388.115C631.607 386.897 631.444 385.658 631.213 384.437L630.837 382.537C630.462 380.615 630.087 378.693 629.688 376.792L629.206 374.775C628.737 372.937 628.223 371.098 627.709 369.259C627.042 366.896 626.197 364.525 625.392 362.224L625.275 361.882C622.057 352.697 617.451 343.489 611.627 334.489C606.508 326.599 600.366 319.039 592.862 311.39C584.506 302.869 575.8 295.519 566.961 289.505C564.708 287.983 562.364 286.478 560.015 285.063C552.449 280.501 544.535 276.616 536.473 273.463C536.189 273.314 535.133 272.926 534.363 272.642C532.868 272.097 532.428 271.941 532.254 271.821C532.101 271.746 530.999 271.4 530.227 271.161C528.683 270.681 528.198 270.523 528.025 270.402C527.872 270.327 526.769 270.004 525.974 269.763C524.606 269.36 524.076 269.199 523.835 269.098C522.4 268.691 520.941 268.305 519.481 267.942L519.349 267.89C519.217 267.839 518.153 267.63 517.355 267.456C515.937 267.162 515.472 267.049 515.274 266.972C514.032 266.732 512.789 266.513 511.546 266.295L510.904 266.151C510.771 266.123 509.682 265.957 508.881 265.85C507.413 265.643 506.924 265.574 506.704 265.496C505.101 265.305 503.453 265.134 501.826 264.964C497.413 264.544 492.878 264.342 488.374 264.41C480.98 264.493 473.823 265.236 467.082 266.605L466.493 266.733C466.132 266.804 465.77 266.876 465.386 266.947C465.137 267.001 464.91 267.057 464.661 267.112L463.846 267.296C463.483 267.39 463.121 267.462 462.736 267.555L461.602 267.834C460.423 268.135 459.199 268.432 458.04 268.778L457.334 269.012C456.015 269.417 454.718 269.846 453.399 270.251C450.463 271.203 447.627 272.406 444.882 273.592L444.493 273.752C441.038 275.238 437.658 277.02 434.444 279.078C432.317 280.428 430.29 282.03 428.365 283.816L428.201 283.965L426.813 285.778C426.813 285.778 426.74 285.886 426.67 285.95L426.663 286.084L426.548 286.145C426.548 286.145 426.496 286.299 426.448 286.364C426.422 286.43 426.376 286.473 426.305 286.536C426.232 286.667 426.159 286.775 425.993 286.969C425.945 287.034 425.874 287.097 425.849 287.163C425.796 287.317 425.655 287.467 425.391 287.812C425.248 287.985 425.128 288.158 425.056 288.244C425.004 288.398 424.883 288.571 424.598 288.915C424.478 289.066 424.382 289.196 424.31 289.304C424.257 289.458 424.114 289.631 423.78 290.062C423.637 290.234 423.493 290.428 423.421 290.515C423.369 290.669 423.248 290.842 422.938 291.23C422.819 291.381 422.699 291.531 422.628 291.617L422.627 291.64L422.554 291.748C422.386 291.986 422.24 292.225 422.092 292.487L421.823 292.944C420.849 294.531 419.895 296.163 418.964 297.797C418.026 299.542 417.183 301.202 416.384 302.865C416.033 303.631 415.68 304.42 415.35 305.21L415.147 305.693C412.497 311.743 410.302 318.084 408.592 324.584C407.71 327.945 406.896 331.712 406.099 336.062C405.366 340.012 404.871 344.153 404.422 347.781C404.307 348.761 404.208 349.853 404.111 350.901C404.108 350.968 404.073 351.683 403.994 352.374C403.938 353.043 403.883 353.712 403.875 353.868C403.871 353.958 403.844 354.494 403.795 355.029C403.772 355.498 403.703 355.987 403.72 356.1C403.693 356.636 403.669 357.128 403.645 357.619L403.613 358.267C403.473 361.104 403.337 363.852 403.276 366.447L403.244 368.439C403.095 376.897 403.279 385.394 403.871 396.061C404.328 404.034 405.152 413.638 406.383 425.412L406.442 426.042C406.547 427.077 406.675 428.114 406.78 429.172C408.791 446.919 411.06 464.88 413.038 480.117C415.28 497.271 417.583 515.011 419.538 531.635C420.604 540.87 421.496 549.089 422.235 556.784C422.491 559.305 424.702 580.713 427.784 610.316C435.034 680.145 447.171 796.979 447.483 801.988L447.541 803.089L446.508 803.149L446.463 802.251L446.966 802.03L446.449 802.072C446.136 797.084 434 680.229 426.748 610.421C423.668 580.796 421.456 559.411 421.2 556.89C420.461 549.194 419.591 540.977 418.501 531.763C416.568 515.162 414.265 497.423 412.023 480.269C410.045 465.032 407.776 447.07 405.766 429.301C405.638 428.264 405.533 427.206 405.428 426.171L405.369 425.541C404.117 413.744 403.294 404.118 402.837 396.145C402.245 385.477 402.04 376.935 402.213 368.455L402.245 366.464C402.274 364.517 402.374 362.484 402.477 360.406L402.45 360.494Z" fill="#070600"/>
<path d="M443.851 364.177C443.862 363.954 443.876 363.663 443.889 363.395C443.91 362.971 443.931 362.546 443.938 362.412C443.977 361.63 444.014 360.87 444.072 360.157C444.292 357.525 444.544 354.693 444.903 351.956C445.298 348.952 445.72 346.308 446.175 343.889C447.02 339.475 448.133 335.095 449.594 330.442L449.806 329.781C449.942 329.295 450.099 328.832 450.257 328.37C450.674 327.181 451.115 325.949 451.627 324.652C452.135 323.446 452.641 322.261 453.146 321.099L453.296 320.793C453.372 320.618 453.448 320.443 453.522 320.289C453.551 320.157 453.648 320.005 453.772 319.764C453.845 319.656 453.895 319.546 453.921 319.481C453.927 319.346 454.024 319.194 454.196 318.889C454.269 318.781 454.342 318.65 454.368 318.584C454.373 318.473 454.448 318.32 454.618 318.059C454.667 317.972 454.739 317.864 454.765 317.798C454.771 317.686 454.869 317.512 455.04 317.229C455.112 317.121 455.162 317.011 455.188 316.945C455.192 316.856 455.266 316.725 455.362 316.596C455.413 316.464 455.462 316.377 455.534 316.291C455.537 316.223 455.586 316.136 455.613 316.048L455.615 316.003C455.615 316.003 455.662 315.961 455.663 315.939L456.644 314.218C457.92 312.87 459.315 311.819 460.97 310.96C462.97 309.917 465.32 309.026 467.977 308.283L468.34 308.189C470.179 307.676 472.063 307.164 474.052 306.792C475.091 306.597 476.131 306.402 477.17 306.23C477.983 306.091 478.817 305.975 479.628 305.881L481.677 305.646C481.833 305.654 481.992 305.617 482.149 305.603C482.419 305.593 482.689 305.562 482.958 305.553L483.251 305.523C487.68 305.159 492.403 305.191 497.308 305.613C500.319 305.874 503.255 306.265 506.073 306.785C507.139 306.973 508.225 307.183 509.289 307.415L509.421 307.466C509.552 307.517 510.217 307.662 510.661 307.751C511.591 307.954 512.012 308.042 512.231 308.143C513.116 308.365 514 308.588 514.884 308.834C515.124 308.957 515.765 309.124 516.208 309.235C517.091 309.48 517.511 309.591 517.707 309.712C518.632 310.027 519.623 310.367 520.633 310.753C520.895 310.9 521.555 311.134 522.039 311.315C522.874 311.625 523.403 311.808 523.663 311.978C523.815 312.075 524.496 312.332 524.98 312.513C525.816 312.823 526.343 313.028 526.581 313.197C526.733 313.294 527.369 313.572 527.851 313.775C528.662 314.128 529.166 314.355 529.404 314.523C534.873 317.123 540.318 320.236 545.449 323.782C547.03 324.868 548.629 326.045 550.182 327.241C555.984 331.716 561.718 337.128 567.66 343.76C572.33 348.941 575.843 353.526 578.749 358.149C582.237 363.696 585.024 369.366 587.053 374.976L587.113 375.135C587.625 376.549 588.135 378.008 588.578 379.463C588.904 380.576 589.229 381.69 589.532 382.802L589.853 384.027L590.9 388.648C591.086 389.419 591.204 390.208 591.345 390.977C591.364 391.045 591.436 391.407 591.565 392.421C591.612 392.826 591.661 393.187 591.679 393.278C591.814 394.18 591.927 395.059 592.064 395.917C592.228 397.112 592.415 398.331 592.602 399.527C592.634 399.775 592.655 400.268 592.695 400.808C592.746 401.594 592.81 402.56 592.84 402.853C592.838 402.898 592.833 403.009 592.872 403.123L592.864 403.28C592.864 403.28 592.903 403.394 592.898 403.505C592.93 403.753 592.964 403.979 592.975 404.204C593.009 404.429 593.019 404.676 593.057 404.812C593.117 404.95 593.122 405.308 593.156 405.982L593.143 406.25C593.181 406.386 593.179 406.879 593.154 407.37C593.131 407.839 593.129 408.332 593.146 408.445L593.176 409.656C593.193 410.216 593.186 410.798 593.203 411.359C593.28 411.632 593.258 412.526 593.227 413.6C593.214 413.868 593.204 414.069 593.197 414.203C593.172 414.717 593.147 415.208 593.123 415.7C593.097 416.236 593.069 416.795 593.042 417.331L592.984 418.515C592.953 419.14 592.923 419.743 592.937 420.371L592.915 420.818C592.915 420.818 592.905 421.019 592.899 421.131C592.892 421.287 592.885 421.421 592.882 421.488C592.876 421.6 592.863 421.868 592.827 422.135C592.813 422.426 592.799 422.716 592.77 422.849C592.76 423.05 592.692 423.517 592.645 424.007C592.593 424.609 592.516 425.255 592.482 425.5C592.418 425.877 592.33 426.769 592.237 427.727C592.107 428.997 591.999 430.291 591.86 430.822C591.715 431.957 591.523 433.112 591.332 434.267C591.238 434.8 591.145 435.332 591.074 435.866C590.962 436.309 590.804 437.242 590.647 438.152C590.451 439.397 590.231 440.685 590.047 441.235C589.941 441.566 589.763 442.453 589.587 443.295C589.35 444.448 589.119 445.512 588.961 445.974C587.335 453.061 585.063 460.048 582.249 466.694C580.727 470.314 578.983 473.879 577.112 477.302C574.429 482.209 571.497 486.7 568.389 490.689C566.62 492.953 564.957 494.886 563.325 496.642C558.435 501.798 553.833 505.646 548.866 508.738C546.301 510.335 543.597 511.59 541.261 512.639C540.185 513.123 539.109 513.585 538.035 514.025L537.509 514.245C537.509 514.245 537.006 514.467 535.616 514.958C534.954 515.194 534.043 515.507 533.882 515.589C531.308 516.492 528.37 517.489 525.215 518.34L500.696 522.861L500.5 521.844L524.973 517.343C528.037 516.509 530.929 515.532 533.367 514.69C533.575 514.566 534.054 514.388 535.261 513.977C535.944 513.742 536.857 513.407 537.017 513.325L537.635 513.064C538.71 512.603 539.784 512.163 540.838 511.678C543.152 510.627 545.811 509.393 548.328 507.838C553.226 504.788 557.757 501.003 562.577 495.911C564.185 494.199 565.824 492.287 567.57 490.044C570.652 486.12 573.538 481.649 576.196 476.809C578.043 473.407 579.764 469.864 581.284 466.288C584.074 459.685 586.32 452.742 587.968 445.679C588.125 445.239 588.361 444.086 588.567 443.088C588.771 442.135 588.946 441.315 589.055 440.918C589.213 440.433 589.412 439.121 589.603 437.989C589.763 437.011 589.921 436.078 590.031 435.658C590.1 435.169 590.194 434.636 590.287 434.103C590.479 432.948 590.669 431.815 590.816 430.658C590.931 430.149 591.064 428.811 591.166 427.652C591.262 426.626 591.349 425.757 591.415 425.335C591.45 425.09 591.524 424.489 591.575 423.91C591.623 423.397 591.67 422.906 591.703 422.684C591.708 422.572 591.722 422.304 591.756 422.06C591.771 421.769 591.786 421.456 591.814 421.346C591.816 421.301 591.823 421.167 591.828 421.055C591.836 420.899 591.843 420.765 591.846 420.698L591.851 420.586C591.857 420.475 591.863 420.363 591.865 420.318C591.892 419.76 591.923 419.134 591.932 418.508L591.99 417.323C592.018 416.765 592.046 416.206 592.072 415.67C592.096 415.179 592.121 414.687 592.144 414.218C592.148 414.129 592.161 413.883 592.174 413.615C592.203 413.034 592.219 411.803 592.165 411.532C592.131 410.858 592.137 410.276 592.121 409.693L592.112 408.528C592.112 408.528 592.098 407.9 592.125 407.364C592.147 406.917 592.146 406.469 592.131 406.334L592.145 406.044C592.111 405.818 592.096 405.235 592.057 405.099C592.002 404.872 591.97 404.602 591.939 404.331C591.926 404.129 591.89 403.948 591.875 403.813C591.876 403.791 591.881 403.679 591.842 403.565C591.85 403.409 591.811 403.295 591.816 403.183L591.824 403.027C591.75 402.71 591.698 401.946 591.639 400.89C591.597 400.373 591.576 399.902 591.564 399.677C591.376 398.503 591.212 397.286 591.025 396.089C590.911 395.233 590.774 394.375 590.661 393.496C590.663 393.451 590.593 393.045 590.526 392.593C590.463 392.053 590.361 391.398 590.323 391.262C590.185 390.427 590.043 389.681 589.88 388.911L588.533 383.089C588.229 381.999 587.903 380.885 587.576 379.794C587.154 378.362 586.621 376.925 586.131 375.512L586.072 375.353C584.062 369.811 581.316 364.211 577.869 358.733C575.006 354.157 571.512 349.639 566.885 344.483C560.963 337.897 555.295 332.533 549.535 328.105C547.981 326.931 546.403 325.778 544.844 324.693C539.733 321.193 534.356 318.083 528.865 315.46C528.627 315.291 527.924 315.01 527.421 314.784C526.675 314.456 526.193 314.253 525.976 314.108C525.825 313.988 525.099 313.728 524.594 313.524C523.803 313.216 523.32 313.036 523.081 312.889C522.906 312.791 522.202 312.532 521.675 312.327C520.883 312.042 520.4 311.861 520.16 311.715C519.259 311.379 518.246 311.038 517.255 310.698C517.036 310.597 516.351 310.407 515.91 310.273C515.07 310.052 514.673 309.921 514.477 309.821C513.725 309.627 512.84 309.404 511.956 309.182L511.736 309.103C511.605 309.03 510.895 308.905 510.452 308.794C509.655 308.62 509.256 308.533 509.014 308.454C507.994 308.247 506.929 308.037 505.886 307.851C503.113 307.333 500.199 306.943 497.211 306.683C492.35 306.264 487.695 306.213 483.332 306.602L483.061 306.633C482.769 306.663 482.5 306.672 482.207 306.703C482.073 306.696 481.937 306.734 481.779 306.749L479.775 306.986C478.964 307.08 478.152 307.197 477.361 307.337C476.322 307.532 475.283 307.704 474.266 307.9C472.344 308.275 470.46 308.787 468.644 309.279L468.281 309.374C465.716 310.075 463.411 310.947 461.48 311.971C459.986 312.748 458.683 313.736 457.503 314.955L456.644 316.48L456.565 316.722L456.443 316.918C456.443 316.918 456.369 317.071 456.271 317.223C456.27 317.245 456.223 317.288 456.222 317.31C456.192 317.465 456.095 317.617 455.949 317.856C455.876 317.965 455.826 318.074 455.801 318.14C455.84 318.254 455.72 318.405 455.55 318.688C455.501 318.775 455.428 318.883 455.403 318.927C455.398 319.038 455.3 319.213 455.104 319.539C455.032 319.647 454.958 319.778 454.933 319.844C454.927 319.956 454.852 320.109 454.682 320.392C454.609 320.5 454.559 320.609 454.533 320.675C454.407 320.96 454.331 321.136 454.256 321.311L454.105 321.64C453.577 322.8 453.094 323.964 452.588 325.148C452.077 326.422 451.637 327.632 451.242 328.821C451.085 329.284 450.95 329.748 450.793 330.21L450.581 330.872C449.144 335.481 448.032 339.838 447.189 344.208C446.735 346.605 446.314 349.226 445.92 352.208C445.562 354.923 445.311 357.732 445.114 360.365C445.08 361.058 445.02 361.816 444.983 362.553C444.977 362.687 444.955 363.134 444.932 363.603C444.909 364.05 444.888 364.475 444.88 364.653C444.873 364.787 444.855 365.145 444.839 365.48C444.823 365.793 444.808 366.105 444.802 366.217C444.782 366.619 444.765 366.977 444.747 367.334L444.727 367.736C444.675 369.705 444.625 371.606 444.626 373.397L444.624 374.808C444.606 380.608 444.775 386.685 445.199 393.963C445.498 399.24 446.126 406.46 447.11 416.005L447.418 418.842C448.817 431.744 450.49 445.465 451.925 457.204L452.196 459.413C453.719 471.649 455.266 484.289 456.617 495.912C457.428 503.052 458.108 509.222 458.683 514.804C459.409 521.85 459.964 527.835 460.336 532.556L459.301 532.639C458.93 527.918 458.397 521.957 457.648 514.91C457.073 509.327 456.415 503.158 455.58 496.04C454.23 484.395 452.683 471.754 451.16 459.541L450.889 457.332C449.454 445.593 447.782 431.849 446.382 418.947L446.075 416.11C445.092 406.544 444.464 399.324 444.144 394.022C443.744 386.724 443.553 380.623 443.572 374.801L443.574 373.39C443.574 371.576 443.646 369.676 443.693 367.82L443.718 367.306C443.736 366.948 443.733 366.567 443.75 366.21C443.755 366.121 443.772 365.763 443.789 365.428C443.804 365.115 443.82 364.802 443.825 364.691C443.829 364.624 443.835 364.49 443.843 364.333L443.851 364.177Z" fill="#070600"/>
<path d="M470.956 680.064L471.99 679.981L479.97 780.797C482.121 807.935 483.542 825.855 483.536 825.966L482.502 826.049C482.51 825.893 481.066 807.995 478.935 780.903L470.955 680.086L470.956 680.064Z" fill="#070600"/>
<path d="M104.235 860.782C117.676 868.814 138.342 885.177 138.342 885.177C135.692 884.867 110.328 855.305 115.81 855.845C117.927 856.039 58.4004 838.09 58.4004 838.09L104.212 860.803L104.235 860.782Z" fill="#070600"/>
<path d="M511.462 611.25L496.093 485.523L514 480.227L516.705 479.42C515.933 480.076 502.373 491.656 504.172 515.059C506.424 544.24 511.051 605.542 511.486 611.229L511.462 611.25Z" fill="#070600"/>
<path d="M486.205 345.398C485.841 345.962 485.677 346.581 485.582 347.136C485.895 340.813 487.185 316.981 487.462 311.374C487.462 311.374 489.624 336.944 493.653 341.04C496.893 344.358 501.772 346.212 503.556 346.815C502.651 346.569 500.973 346.083 499.005 345.583C498.85 345.53 498.74 345.502 498.586 345.45C494.892 344.528 490.391 343.611 488.246 343.976C487.23 344.149 486.599 344.678 486.207 345.353L486.205 345.398Z" fill="#070600"/>
<path d="M485.506 348.678C485.506 348.678 485.449 348.004 485.58 347.182L485.506 348.678Z" fill="#070600"/>
<path d="M58.1415 838.345L58.4637 837.264L115.344 855.305L115.022 856.387L58.1415 838.345Z" fill="#070600"/>
<path d="M271.754 701.342L719.316 961.135L697.916 1013.09L197.165 882.933L271.754 701.342Z" fill="#EEF0F2"/>
<path d="M297.814 909.299L196.823 883.052L271.518 701.13L354.822 749.503C346.877 758.92 336.421 766.129 324.577 770.179C332.048 781.657 336.091 795.451 335.365 810.129C333.928 839.195 314.229 863.08 287.777 871.357C294.575 882.421 298.341 895.462 297.791 909.298L297.814 909.299Z" fill="#070600"/>
<path d="M195.741 883.648L196.199 882.551L271.246 699.841L272.269 700.429L720.615 960.686L698.505 1014.31L697.62 1014.08L195.719 883.647L195.741 883.648ZM272.262 702.847L198.565 882.242L697.283 1011.85L717.996 961.586L272.262 702.847Z" fill="#070600"/>
<path d="M692.411 945.54L861.679 1045.98C864.741 1047.9 861.272 1055.12 857.779 1054.21L673.972 1006.87C704.911 999.774 714.72 969.868 692.388 945.539L692.411 945.54Z" fill="#EA8BF3"/>
<path d="M672.945 1006.81C672.968 1006.35 673.301 1005.96 673.754 1005.85C688.205 1002.53 698.569 993.995 702.164 982.415C705.812 970.681 701.985 957.502 691.637 946.241C691.298 945.866 691.282 945.282 691.593 944.872C691.927 944.463 692.491 944.379 692.926 944.625L862.195 1045.06C863.976 1046.18 864.415 1048.62 863.254 1051.27C862.242 1053.62 860.026 1055.86 857.506 1055.2L673.699 1007.86C673.235 1007.75 672.921 1007.31 672.922 1006.84L672.924 1006.79L672.945 1006.81ZM705.549 975.102C705.416 977.783 704.949 980.448 704.148 983.051C700.659 994.3 691.258 1002.82 678.093 1006.87L858.052 1053.21C859.312 1053.54 860.685 1052.04 861.367 1050.49C861.949 1049.13 862.097 1047.5 861.141 1046.89L697.029 949.508C703.052 957.667 705.993 966.569 705.57 975.126L705.549 975.102Z" fill="#070600"/>
<path d="M384.244 789.367L384.738 788.45L685.608 950.892L685.114 951.808L384.244 789.367Z" fill="#070600"/>
</g>
<defs>
<clipPath id="clip0_98_524">
<rect width="1411.44" height="1035.5" fill="white" transform="translate(947.239 -187.574) rotate(92.8308)"/>
</clipPath>
</defs>
</svg>
