<svg width="377" height="601" viewBox="0 0 377 601" fill="none" xmlns="http://www.w3.org/2000/svg">
<path d="M-12.3356 458.942C-61.148 412.759 -90.0116 342.232 -83.6765 268.71C-73.7251 152.918 19.8014 72.903 124.815 90.3476C229.83 107.792 307.171 216.183 297.22 331.975C287.268 447.768 193.742 527.782 88.7276 510.338C50.3929 503.988 15.7293 485.456 -12.3186 458.919L-12.3356 458.942ZM224.182 144.043C196.518 117.869 162.365 99.627 124.558 93.3514C21.0341 76.1568 -71.1612 155.034 -80.9693 269.184C-90.7773 383.334 -14.5354 490.182 88.989 507.377C192.513 524.571 284.709 445.694 294.517 331.544C300.746 259.082 272.271 189.541 224.161 144.023L224.182 144.043Z" fill="white"/>
<path d="M160.488 140.776C161.49 141.457 162.778 141.11 163.365 140.002C163.952 138.894 163.616 137.443 162.614 136.762C161.613 136.081 160.325 136.428 159.738 137.536C159.151 138.644 159.487 140.095 160.488 140.776Z" fill="white"/>
<path d="M170.676 147.596C171.677 148.277 172.965 147.931 173.552 146.822C174.139 145.714 173.803 144.264 172.802 143.583C171.8 142.902 170.512 143.248 169.925 144.356C169.338 145.464 169.674 146.915 170.676 147.596Z" fill="white"/>
<path d="M151.893 162.172C145.014 155.666 141.507 144.591 147.296 133.59C147.667 132.904 148.488 132.682 149.127 133.132C149.762 133.541 150.012 134.507 149.64 135.193C143.708 146.48 148.822 156.963 156.042 161.91C163.284 166.876 173.761 167.069 179.694 155.781C180.065 155.096 180.886 154.873 181.525 155.324C182.181 155.752 182.41 156.699 182.038 157.384C175.514 169.841 163.346 170.353 154.687 164.43C153.701 163.766 152.761 162.993 151.872 162.152L151.893 162.172Z" fill="white"/>
</svg>
