<svg width="345" height="328" viewBox="0 0 345 328" fill="none" xmlns="http://www.w3.org/2000/svg">
<path d="M-51.3551 327.574L-0.324768 -15.3722L-131.67 -206.153L71.7427 -117.079L20.7124 -304.379L145.099 -207.265L151.929 -321.533L218.262 -219.97L239.621 -324.799L345 -16.6283L214.138 -78.7504L244.55 248.19L104.603 48.1497L-51.3551 327.538V327.574ZM-122.037 -198.078L3.09016 -16.3053L2.96129 -15.5516L-45.5562 310.312L104.281 41.9051L240.136 236.131L210.337 -84.4208L339.233 -23.1958L240.362 -312.382L219.808 -211.429L154.538 -311.377L147.934 -200.662L26.5113 -295.478L76.7362 -111.014L73.6435 -112.378L-122.07 -198.078H-122.037Z" fill="white"/>
</svg>
