<svg width="530" height="141" viewBox="0 0 530 141" fill="none" xmlns="http://www.w3.org/2000/svg">
<path d="M221.876 141.005L245.831 -74.1065L0 -10.2449L216.892 -183.15L241.012 -386.881L315.604 -196.094L386.396 -343.632L408.865 -201.216L474.976 -265.66L459.942 -159.623L529.715 -208.608L426.212 48.5555L380.834 -77.0818L221.848 140.974L221.876 141.005ZM249.053 -78.0633L225.813 130.79L381.715 -83.0017L426.405 40.7645L523.547 -200.572L456.362 -153.397L471.149 -257.747L407.075 -195.266L385.13 -334.307L315.412 -189.008L242.499 -375.47L219.508 -181.371L219.012 -180.972L12.8863 -16.6863L249.053 -78.0327V-78.0633Z" fill="white"/>
</svg>
