<svg width="647" height="64" viewBox="0 0 647 64" fill="none" xmlns="http://www.w3.org/2000/svg">
<path d="M738.591 -311.226L738.591 33.345C737.433 39.6119 732.982 59.5305 722.715 62.5989C718.418 63.873 713.838 62.0008 709.104 56.9561C698.58 45.8007 694.231 26.4801 690.732 10.93C690.269 8.87578 689.831 6.89952 689.368 5.00127C684.171 -16.8676 680.054 -40.8428 676.837 -67.8863C674.264 55.6559 639.399 59.9205 637.907 60.0245C597.921 60.0245 581.814 -10.6268 575.304 -69.9146C575.227 -70.5127 575.175 -71.0848 575.124 -71.6829C575.047 -72.2289 574.995 -72.853 574.944 -73.4511C574.481 -78.0017 574.043 -82.6043 573.657 -87.2069C573.451 -83.2543 573.22 -79.2238 572.937 -75.1933L572.705 -71.8909C572.602 -70.5907 572.499 -69.2385 572.371 -67.8863C568.846 -25.0327 559.428 30.4586 534.572 51.5214C526.853 58.0743 518.002 60.9347 508.301 60.0245C458.023 55.2659 444.232 -38.5024 440.475 -95.0079C439.755 -86.5048 438.674 -76.6495 437.027 -66.1701C428.51 -12.057 406.356 52.6656 349.105 53.6277C284.856 54.7199 262.264 -29.1152 254.545 -79.1718C253.567 -85.4906 252.795 -91.4194 252.178 -96.8021C251.097 -70.0186 247.932 -46.1994 242.735 -25.7347L242.735 -24.5906L242.426 -24.5906C227.554 33.059 196.162 64.3931 154.015 63.639C91.6441 62.5469 23.6122 -8.93654 5.47201 -92.4336C-7.90795 -154.218 3.79951 -232.618 34.5734 -287.511C44.9943 -306.104 56.8562 -320.484 69.8245 -330.261L70.9566 -331.119C71.3426 -331.405 71.7285 -331.665 72.1145 -331.925C91.361 -345.473 111.457 -347.995 131.887 -339.466C136.493 -337.542 140.97 -335.202 145.19 -332.549C145.55 -332.341 145.859 -332.159 146.167 -331.925C146.399 -331.795 146.682 -331.613 147.017 -331.379C153.578 -327.089 159.856 -321.784 165.646 -315.647C167.215 -313.983 168.759 -312.241 170.2 -310.472C184.532 -293.414 195.828 -270.531 203.83 -242.421C204.164 -241.303 204.473 -240.159 204.782 -239.015L204.885 -238.625C207.098 -230.434 209.079 -221.567 210.777 -212.283L211.395 -208.669C212.553 -201.882 213.505 -194.835 214.277 -187.84C214.894 -193.145 215.717 -199.178 216.772 -205.652L217.004 -207.213C217.107 -207.681 217.158 -208.123 217.21 -208.539L217.261 -208.825C218.265 -214.728 219.397 -220.578 220.632 -226.221C220.941 -227.651 221.275 -229.082 221.61 -230.538L221.764 -231.266C221.97 -232.254 222.227 -233.216 222.459 -234.204C225.804 -248.012 229.818 -260.676 234.449 -272.039C236.173 -276.226 237.846 -279.918 239.518 -283.247C239.982 -284.209 240.445 -285.171 240.934 -286.133C249.167 -302.203 258.971 -314.607 270.061 -323.058C271.064 -323.864 272.119 -324.618 273.174 -325.346C284.882 -333.355 298.107 -337.282 312.491 -337.048C342.493 -336.528 365.985 -318.793 382.349 -284.339L382.478 -284.053C383.07 -282.779 383.662 -281.505 384.228 -280.23L384.331 -279.944C390.995 -264.836 396.27 -246.894 400.026 -226.637C400.258 -225.415 400.49 -224.193 400.695 -222.971C402.96 -210.229 404.349 -198.242 405.198 -188.152C405.816 -197.461 406.768 -208.019 408.132 -219.148L408.621 -222.841C410.73 -239.119 413.458 -253.837 416.726 -266.813C416.932 -267.697 417.163 -268.555 417.395 -269.439L417.472 -269.777C421.177 -283.949 425.551 -296.196 430.543 -306.286C430.955 -307.17 431.418 -308.028 431.881 -308.912L432.01 -309.146C436.487 -317.623 441.453 -324.618 446.753 -329.897L447.191 -330.313C447.474 -330.599 447.757 -330.859 448.066 -331.145C448.426 -331.483 448.812 -331.847 449.198 -332.185C456.788 -338.842 465.074 -342.561 474.028 -343.393C493.377 -345.187 508.944 -332.575 520.266 -305.87C520.523 -305.298 520.781 -304.674 521.038 -304.049L521.141 -303.815C521.398 -303.165 521.655 -302.515 521.913 -301.865C525.283 -293.128 528.217 -283.247 530.661 -272.481L530.867 -271.623C531.073 -270.661 531.304 -269.725 531.51 -268.763L531.51 -268.503C534.289 -255.813 536.528 -241.121 538.149 -225.103C538.277 -223.933 538.406 -222.763 538.509 -221.567C539.332 -212.985 539.898 -204.82 540.284 -197.383C540.773 -203.026 541.339 -208.721 541.983 -214.39L542.189 -215.976C542.317 -217.016 542.446 -218.082 542.6 -219.122C542.703 -220.188 542.832 -221.281 543.012 -222.373C543.475 -226.117 544.015 -230.018 544.684 -234.204L544.684 -234.386C545.199 -237.663 545.739 -240.939 546.305 -244.19C546.949 -247.856 548.081 -253.733 549.753 -260.936L549.933 -261.69C550.114 -262.47 550.294 -263.276 550.474 -264.082C552.404 -272.195 554.591 -280.126 556.932 -287.641L557.395 -289.15C557.576 -289.696 557.73 -290.164 557.884 -290.658C565.655 -314.659 578.572 -343.679 595.888 -345.681C605.949 -346.851 616.216 -338.868 626.379 -321.966C638.035 -302.619 646.089 -281.14 651.004 -256.281C651.107 -255.657 651.235 -255.059 651.364 -254.487L651.415 -254.175C651.492 -253.681 651.595 -253.161 651.698 -252.667C653.294 -243.956 654.503 -234.932 655.404 -225.077L655.687 -221.619C655.841 -219.642 655.995 -217.64 656.124 -215.612C656.201 -217.12 656.304 -218.602 656.433 -220.11L656.433 -220.136L656.433 -220.578C656.484 -221.593 656.561 -222.633 656.664 -223.673C657.205 -231.656 657.9 -239.899 658.774 -248.844L659.546 -257.113C662.505 -289.41 666.159 -329.611 686.872 -355.744C692.945 -363.389 699.043 -367.654 705.501 -368.746C711.059 -369.656 716.051 -368.408 720.322 -365.054C729.791 -357.617 735.889 -339.57 738.462 -311.382L738.462 -311.33L738.591 -311.226ZM674.367 -91.0814L676.94 -91.2114C677.146 -88.8971 677.378 -86.6348 677.635 -84.3205C681.031 -50.62 685.689 -21.6002 691.89 4.42919C692.327 6.32744 692.79 8.30372 693.253 10.384C696.676 25.622 700.947 44.5785 710.982 55.2139C714.996 59.4785 718.701 61.1427 722.02 60.1545C729.071 58.0483 733.985 44.2925 736.069 33.163L736.069 -311.044C733.548 -338.452 727.758 -355.874 718.881 -362.843C715.15 -365.782 710.956 -366.822 706.067 -366.016C700.278 -365.028 694.694 -361.075 689.034 -353.95C668.809 -328.415 665.181 -288.655 662.248 -256.697L661.476 -248.454C660.601 -239.483 659.906 -231.266 659.366 -223.257C659.263 -222.243 659.186 -221.255 659.135 -220.24L659.135 -220.058C658.98 -217.978 658.852 -216.002 658.749 -214C657.874 -200.062 657.333 -185.916 657.128 -171.926L654.554 -171.926L654.554 -171.978C654.812 -191.143 654.4 -206.771 653.242 -221.203L652.959 -224.661C652.059 -234.438 650.849 -243.383 649.305 -251.965C649.202 -252.459 649.1 -253.005 649.022 -253.551C648.868 -254.357 648.714 -255.007 648.611 -255.605C643.748 -280.126 635.797 -301.345 624.321 -320.432C614.698 -336.398 605.28 -343.965 596.3 -342.925C580.321 -341.052 567.996 -312.943 560.457 -289.67C560.303 -289.176 560.149 -288.681 559.968 -288.135L559.505 -286.653C557.164 -279.19 555.028 -271.311 553.098 -263.25C552.893 -262.444 552.738 -261.664 552.558 -260.884L552.378 -260.13C550.705 -252.979 549.599 -247.154 548.956 -243.513C548.39 -240.263 547.849 -237.013 547.36 -233.736L547.309 -233.476C546.666 -229.212 546.125 -225.441 545.662 -221.749C545.482 -220.656 545.353 -219.616 545.251 -218.55C545.096 -217.458 544.967 -216.418 544.839 -215.404L544.633 -213.818C543.038 -200.036 541.957 -186.176 541.468 -172.706L541.339 -169.378C541.288 -167.375 541.237 -165.321 541.211 -163.319L538.638 -163.319L538.638 -163.345C538.638 -163.345 538.638 -164.385 538.638 -166.127C538.638 -167.037 538.638 -168.156 538.638 -169.482C538.638 -170.496 538.638 -171.614 538.638 -172.81C538.509 -183.992 537.943 -201.44 536.065 -221.047C535.962 -222.217 535.833 -223.387 535.704 -224.531C534.083 -240.445 531.871 -255.033 529.117 -267.905L529.117 -268.191C528.911 -268.893 528.706 -269.803 528.5 -270.739L528.294 -271.623C525.901 -282.285 522.993 -292.036 519.674 -300.617C519.391 -301.267 519.134 -301.943 518.877 -302.619C518.568 -303.373 518.31 -303.971 518.053 -304.57C507.195 -330.131 492.503 -342.222 474.388 -340.532C465.974 -339.752 458.152 -336.242 451.179 -330.105C450.639 -329.637 450.278 -329.299 449.893 -328.935C449.584 -328.649 449.326 -328.415 449.069 -328.155L448.632 -327.739C443.511 -322.642 438.725 -315.881 434.377 -307.638L434.248 -307.404C433.811 -306.546 433.373 -305.714 432.962 -304.83C428.047 -294.896 423.724 -282.831 420.096 -268.945L420.019 -268.607C419.762 -267.671 419.53 -266.787 419.299 -265.85C416.005 -252.797 413.278 -237.949 411.168 -221.749L410.962 -220.11L410.756 -218.524C408.08 -196.941 407.102 -177.621 406.742 -165.191L406.665 -161.837C406.665 -161.057 406.665 -160.381 406.665 -159.86L406.665 -159.028L404.092 -159.028C404.092 -159.6 404.092 -160.537 404.092 -161.889L404.092 -162.981C404.066 -163.683 404.04 -164.437 404.015 -165.269C403.732 -176.009 402.6 -197.695 398.277 -222.243C398.071 -223.439 397.839 -224.661 397.608 -225.857C393.851 -246.036 388.602 -263.874 381.989 -278.852L381.886 -279.138C381.346 -280.386 380.728 -281.661 380.162 -282.883L380.034 -283.169C364.132 -316.531 341.438 -333.667 312.568 -334.161C298.725 -334.395 285.988 -330.625 274.744 -322.928C273.74 -322.252 272.737 -321.524 271.759 -320.744C260.952 -312.527 251.406 -300.409 243.326 -284.677C242.838 -283.741 242.375 -282.805 241.937 -281.843C240.29 -278.54 238.644 -274.926 236.945 -270.791C232.365 -259.558 228.377 -247.024 225.109 -233.528C224.826 -232.358 224.595 -231.396 224.363 -230.434L224.183 -229.706C223.848 -228.275 223.54 -226.845 223.205 -225.415C221.996 -219.798 220.864 -214 219.886 -208.149L219.886 -207.915C219.783 -207.473 219.706 -207.005 219.629 -206.537L219.423 -205.028C217.339 -192.209 216.206 -181.183 215.589 -174.188L213.016 -174.188C212.45 -181.937 211.292 -194.055 208.95 -207.993L208.333 -211.607C206.66 -220.786 204.705 -229.576 202.492 -237.715L202.389 -238.105C202.08 -239.223 201.797 -240.341 201.437 -241.459C193.538 -269.231 182.396 -291.828 168.322 -308.6C166.906 -310.316 165.414 -312.006 163.896 -313.619C158.209 -319.651 152.086 -324.8 145.679 -328.987C145.37 -329.195 145.112 -329.351 144.829 -329.533C144.495 -329.767 144.238 -329.923 143.98 -330.079C139.786 -332.705 135.438 -334.968 130.961 -336.84C111.405 -345.031 92.1073 -342.587 73.6583 -329.585C73.2467 -329.299 72.8864 -329.065 72.5262 -328.805L71.4198 -327.973C58.7603 -318.429 47.13 -304.309 36.8892 -286.029C6.39833 -231.656 -5.18049 -153.984 8.04508 -92.7716C25.9537 -10.3667 92.8277 60.1806 154.118 61.2727C195.21 62.0008 225.778 31.0307 240.239 -25.9428L240.496 -26.9309C247.238 -53.8965 250.454 -86.6348 250.042 -124.366L252.615 -124.418C252.615 -124.236 253.181 -104.837 257.118 -79.3278C264.734 -30.1033 286.786 52.3535 349.105 51.2874C404.555 50.3513 426.169 -13.1751 434.531 -66.3261C438.52 -91.6794 439.189 -113.158 439.291 -121.219C439.317 -121.895 439.317 -122.416 439.317 -122.858L439.317 -123.82L441.89 -123.82C441.89 -123.586 441.89 -123.274 441.89 -122.936C441.89 -122.39 441.89 -121.843 441.916 -121.219C442.019 -115.837 442.276 -107.204 442.971 -96.3601C445.827 -51.6082 457.946 52.8996 508.559 57.6842C517.539 58.5163 525.747 55.864 532.926 49.7792C557.087 29.2885 566.324 -25.5008 569.798 -67.8603C569.926 -69.2125 570.029 -70.5387 570.132 -71.8649L570.364 -75.1153C570.981 -83.8264 571.393 -92.5116 571.599 -100.287C571.65 -101.301 571.676 -102.263 571.702 -103.173L571.702 -103.615C571.933 -113.392 571.83 -119.529 571.83 -119.581L574.403 -119.633C574.403 -119.451 574.506 -113.21 575.098 -103.381C575.15 -102.523 575.201 -101.717 575.252 -100.859L575.304 -99.8966C575.355 -99.0905 575.407 -98.2843 575.458 -97.4262L575.793 -92.5636C575.844 -91.9395 575.896 -91.2894 575.947 -90.6393C576.385 -84.9706 576.925 -79.1718 577.517 -73.4771C577.568 -72.905 577.62 -72.3329 577.697 -71.7868C577.748 -71.1108 577.8 -70.5907 577.877 -69.9926C583.1 -22.3023 597.844 57.6582 637.804 57.6582C638.035 57.6322 672.206 52.7956 674.316 -70.1226C674.419 -76.9616 674.444 -83.9565 674.367 -90.8994L674.367 -91.0814Z" fill="white"/>
</svg>
