<svg width="602" height="604" viewBox="0 0 602 604" fill="none" xmlns="http://www.w3.org/2000/svg">
<path d="M51.6522 359.819L253.349 303.729L162.962 131.761L350.342 242.835L541.552 190.844L374.91 316.317L520.196 320.799L391.559 388.219L459.517 417.981L359.68 443.081L413.83 481.128L163.135 489.031L273.35 409.362L51.6771 359.787L51.6522 359.819ZM257.415 304.894L61.5873 359.368L278.929 407.993L170.354 486.466L405.621 479.058L353.472 442.425L451.72 417.716L385.836 388.88L511.423 323.05L368.343 318.636L531.206 195.998L349.034 245.522L348.602 245.27L170.557 139.696L257.386 304.905L257.415 304.894Z" fill="white"/>
</svg>
