<svg width="140" height="140" viewBox="0 0 140 140" fill="none" xmlns="http://www.w3.org/2000/svg">
<path d="M22.4963 115.917C30.2613 110.994 37.8899 107.355 45.3823 105C52.8746 102.645 61.0805 101.468 70 101.468C78.9195 101.468 87.1254 102.645 94.6177 105C102.11 107.355 109.781 110.994 117.63 115.917C123.552 109.995 128.137 103.134 131.384 95.3349C134.63 87.5357 136.254 79.0979 136.254 70.0214C136.254 51.6444 129.798 36.004 116.885 23.1C103.972 10.1974 88.3277 3.74618 69.9508 3.74618C51.5738 3.74618 35.9455 10.1974 23.0658 23.1C10.186 36.004 3.74618 51.6444 3.74618 70.0214C3.74618 79.0979 5.36952 87.5357 8.61621 95.3349C11.8629 103.134 16.4896 109.995 22.4963 115.917ZM70.03 79.633C63.0171 79.633 57.0846 77.2169 52.2324 72.3847C47.3802 67.5525 44.9541 61.63 44.9541 54.6171C44.9541 47.6043 47.3702 41.6718 52.2024 36.8196C57.0347 31.9674 62.9572 29.5413 69.97 29.5413C76.9829 29.5413 82.9154 31.9574 87.7676 36.7896C92.6198 41.6218 95.0459 47.5443 95.0459 54.5572C95.0459 61.57 92.6298 67.5025 87.7976 72.3547C82.9653 77.2069 77.0428 79.633 70.03 79.633ZM70.0599 140C60.3998 140 51.2948 138.198 42.745 134.593C34.1965 130.986 26.737 125.991 20.3664 119.608C13.9957 113.223 9.00867 105.764 5.4052 97.2294C1.80173 88.6966 0 79.5695 0 69.848C0 60.1151 1.80245 51.0272 5.40734 42.5844C9.01366 34.143 14.0086 26.737 20.392 20.3664C26.777 13.9957 34.2365 9.00867 42.7706 5.4052C51.3034 1.80173 60.4305 0 70.152 0C79.8849 0 88.9728 1.80245 97.4156 5.40734C105.857 9.01366 113.263 14.0086 119.634 20.3921C126.004 26.777 130.991 34.1987 134.595 42.6572C138.198 51.1157 140 60.21 140 69.9401C140 79.6002 138.198 88.7052 134.593 97.2551C130.986 105.803 125.991 113.263 119.608 119.634C113.223 126.004 105.801 130.991 97.3428 134.595C88.8843 138.198 79.79 140 70.0599 140ZM69.9936 136.254C77.7756 136.254 85.6448 134.738 93.6009 131.705C101.557 128.672 108.603 124.444 114.74 119.021C108.461 114.811 101.559 111.458 94.0355 108.96C86.5117 106.463 78.5063 105.214 70.0193 105.214C61.5322 105.214 53.4134 106.356 45.6627 108.639C37.912 110.923 31.1111 114.383 25.2599 119.021C31.3965 124.444 38.4408 128.672 46.3927 131.705C54.3445 134.738 62.2115 136.254 69.9936 136.254ZM70 75.8868C75.7798 75.8868 80.7747 73.7819 84.9847 69.5719C89.1947 65.3619 91.2997 60.367 91.2997 54.5872C91.2997 48.8073 89.1947 43.8124 84.9847 39.6024C80.7747 35.3925 75.7798 33.2875 70 33.2875C64.2202 33.2875 59.2253 35.3925 55.0153 39.6024C50.8053 43.8124 48.7003 48.8073 48.7003 54.5872C48.7003 60.367 50.8053 65.3619 55.0153 69.5719C59.2253 73.7819 64.2202 75.8868 70 75.8868Z" fill="#EA8BF3"/>
</svg>
